<svg width="37" height="37" viewBox="0 0 37 37" fill="none" xmlns="http://www.w3.org/2000/svg">
<g clip-path="url(#clip0_1_19370)">
<path d="M29.2008 24.6C28.6008 22.8 24.9008 21.2 22.2008 20.2C23.3008 19.4 24.4008 18.1 25.1008 15.6C26.5008 9.5 22.4008 6.5 18.8008 6.5C15.0008 6.5 11.1008 9.5 12.6008 15.6C13.2008 18.2 14.4008 19.5 15.6008 20.3C12.9008 21.3 9.30078 22.9 8.70078 24.7C7.80078 27.6 7.80078 30.5 7.80078 30.5H30.1008C30.1008 30.5 30.1008 27.6 29.2008 24.6Z" stroke="#022344" stroke-width="2" stroke-miterlimit="10" stroke-linecap="round" stroke-linejoin="round"/>
<path d="M24.5009 21.1992L19.0009 26.7992L13.4009 21.1992" stroke="#022344" stroke-width="2" stroke-miterlimit="10" stroke-linecap="round" stroke-linejoin="round"/>
</g>
<defs>
<clipPath id="clip0_1_19370">
<rect width="36" height="36" fill="white" transform="translate(0.800781 0.5)"/>
</clipPath>
</defs>
</svg>
