<svg width="21" height="23" viewBox="0 0 21 23" fill="none" xmlns="http://www.w3.org/2000/svg">
<g clip-path="url(#clip0_1_19333)">
<g clip-path="url(#clip1_1_19333)">
<g clip-path="url(#clip2_1_19333)">
<path fill-rule="evenodd" clip-rule="evenodd" d="M10.8007 2.7832C6.47949 2.7832 2.94653 6.36804 2.94653 10.8275C2.94653 13.0762 3.84595 15.5665 5.31768 17.4896C6.79321 19.4177 8.74616 20.6582 10.8007 20.6582C12.8553 20.6582 14.8082 19.4177 16.2838 17.4896C17.7555 15.5665 18.6549 13.0762 18.6549 10.8275C18.6549 6.36804 15.1219 2.7832 10.8007 2.7832ZM1.32153 10.8275C1.32153 5.50399 5.54897 1.1582 10.8007 1.1582C16.0524 1.1582 20.2799 5.50399 20.2799 10.8275C20.2799 13.4703 19.2392 16.3016 17.5743 18.4771C15.9131 20.6478 13.5327 22.2832 10.8007 22.2832C8.06877 22.2832 5.68838 20.6478 4.0272 18.4771C2.36221 16.3016 1.32153 13.4703 1.32153 10.8275Z" fill="#050B20"/>
<path fill-rule="evenodd" clip-rule="evenodd" d="M7.27979 10.095C7.27979 8.15055 8.85614 6.57422 10.8006 6.57422C12.7451 6.57422 14.3215 8.15055 14.3215 10.095C14.3215 12.0395 12.7451 13.6158 10.8006 13.6158C8.85614 13.6158 7.27979 12.0395 7.27979 10.095ZM10.8006 8.19922C9.75358 8.19922 8.90479 9.04801 8.90479 10.095C8.90479 11.142 9.75358 11.9908 10.8006 11.9908C11.8477 11.9908 12.6965 11.142 12.6965 10.095C12.6965 9.04801 11.8477 8.19922 10.8006 8.19922Z" fill="#E1E1E1"/>
</g>
</g>
</g>
<defs>
<clipPath id="clip0_1_19333">
<rect width="20" height="22" fill="white" transform="translate(0.800781 0.720703)"/>
</clipPath>
<clipPath id="clip1_1_19333">
<rect width="20" height="22" fill="white" transform="translate(0.800781 0.720703)"/>
</clipPath>
<clipPath id="clip2_1_19333">
<rect width="20" height="22" fill="white" transform="translate(0.800781 0.720703)"/>
</clipPath>
</defs>
</svg>
