<svg width="27" height="27" viewBox="0 0 27 27" fill="none" xmlns="http://www.w3.org/2000/svg">
<g clip-path="url(#clip0_1_19347)">
<g clip-path="url(#clip1_1_19347)">
<path d="M24.3134 11.9596C23.905 11.9596 23.554 11.653 23.5074 11.2381C23.0957 7.58076 20.2541 4.74242 16.5968 4.33617C16.1515 4.28634 15.8298 3.88551 15.8796 3.43917C15.9284 2.99392 16.3281 2.66134 16.7766 2.722C21.1934 3.21167 24.6254 6.63934 25.1215 11.0561C25.1725 11.5025 24.8507 11.9043 24.4055 11.9542C24.3751 11.9574 24.3437 11.9596 24.3134 11.9596Z" fill="#E1E1E1"/>
<path d="M20.4768 11.9713C20.0955 11.9713 19.7564 11.7026 19.6806 11.3148C19.3686 9.71145 18.1325 8.47537 16.5313 8.16445C16.0904 8.07887 15.8033 7.65312 15.8889 7.2122C15.9745 6.77128 16.4111 6.4842 16.8411 6.56978C19.0956 7.00745 20.8365 8.74729 21.2752 11.0028C21.3608 11.4448 21.0737 11.8705 20.6339 11.9561C20.5808 11.9659 20.5288 11.9713 20.4768 11.9713Z" fill="#E1E1E1"/>
<path fill-rule="evenodd" clip-rule="evenodd" d="M8.90632 18.7811C14.0121 23.888 17.4116 25.227 19.5588 25.227C20.6183 25.227 21.3745 24.9009 21.8782 24.539C21.901 24.526 24.2323 23.1004 24.6407 20.9424C24.8336 19.9295 24.5519 18.9274 23.8282 18.0434C20.8469 14.424 19.3281 14.762 17.6511 15.5777C16.6208 16.0825 15.8072 16.4747 13.5095 14.1791C11.213 11.8817 11.6092 11.068 12.1107 10.0379C12.9275 8.36095 13.2636 6.84175 9.64299 3.85825C8.76116 3.13784 7.76557 2.85617 6.75374 3.04575C4.62716 3.44334 3.19499 5.73675 3.19499 5.73675C2.05532 7.33684 1.28183 11.1577 8.90632 18.7811ZM7.08524 4.63609C7.18057 4.62092 7.27482 4.61225 7.36799 4.61225C7.79266 4.61225 8.20216 4.778 8.61057 5.11384C11.5302 7.51881 11.1608 8.27716 10.6494 9.3269C9.88133 10.9053 9.47941 12.4458 12.3601 15.3285C15.2439 18.2113 16.7855 17.8094 18.3617 17.0391L18.3643 17.0378C19.4128 16.5282 20.1708 16.1598 22.5726 19.0758C22.9832 19.5763 23.1403 20.0768 23.0515 20.6044C22.8467 21.8177 21.4362 22.9043 21.0094 23.1686C19.4808 24.2585 15.8007 23.3777 10.0547 17.6328C4.31082 11.8879 3.42899 8.20784 4.55782 6.62075C4.78316 6.2535 5.87407 4.84084 7.08524 4.63609Z" fill="#050B20"/>
</g>
</g>
<defs>
<clipPath id="clip0_1_19347">
<rect width="26" height="26" fill="white" transform="translate(0.800781 0.970703)"/>
</clipPath>
<clipPath id="clip1_1_19347">
<rect width="26" height="26" fill="white" transform="translate(0.800781 0.970703)"/>
</clipPath>
</defs>
</svg>
