<svg width="14" height="14" viewBox="0 0 14 14" fill="none" xmlns="http://www.w3.org/2000/svg">
<path d="M3.00497 13.4888H0.280363V4.729H3.00497V13.4888ZM1.62802 3.55713C0.77841 3.55713 0.075285 2.82471 0.075285 1.9458C0.075285 1.09619 0.77841 0.393066 1.62802 0.393066C2.50693 0.393066 3.21005 1.09619 3.21005 1.9458C3.21005 2.82471 2.50693 3.55713 1.62802 3.55713ZM13.171 13.4888H10.4757V9.24072C10.4757 8.21533 10.4464 6.92627 9.04013 6.92627C7.63388 6.92627 7.4288 8.01025 7.4288 9.15283V13.4888H4.70419V4.729H7.31161V5.93018H7.34091C7.72177 5.25635 8.60068 4.52393 9.91903 4.52393C12.6729 4.52393 13.2003 6.34033 13.2003 8.68408V13.4888H13.171Z" fill="#000"/>

</svg>
