<svg width="25" height="23" viewBox="0 0 25 23" fill="none" xmlns="http://www.w3.org/2000/svg">
<g clip-path="url(#clip0_1_19340)">
<g clip-path="url(#clip1_1_19340)">
<g clip-path="url(#clip2_1_19340)">
<path fill-rule="evenodd" clip-rule="evenodd" d="M12.5592 12.8083C11.8344 12.8083 11.1119 12.5688 10.5073 12.09L5.64857 8.17271C5.29865 7.89105 5.24449 7.37863 5.52507 7.0298C5.80782 6.68205 6.31915 6.6268 6.66799 6.90738L11.5224 10.8203C12.1324 11.3035 12.9914 11.3035 13.6057 10.816L18.4114 6.90955C18.7602 6.62463 19.2715 6.6788 19.5554 7.02763C19.8381 7.37538 19.785 7.88671 19.4373 8.17055L14.6229 12.0835C14.0141 12.5667 13.2861 12.8083 12.5592 12.8083Z" fill="#E1E1E1"/>
<path fill-rule="evenodd" clip-rule="evenodd" d="M17.848 19.8868C17.8501 19.8846 17.8588 19.8868 17.8653 19.8868C19.1014 19.8868 20.1977 19.4448 21.0384 18.6052C22.0145 17.6334 22.5507 16.237 22.5507 14.6738V7.23338C22.5507 4.20763 20.5726 2.01171 17.848 2.01171H7.21178C4.4872 2.01171 2.50903 4.20763 2.50903 7.23338V14.6738C2.50903 16.237 3.04636 17.6334 4.02136 18.6052C4.86203 19.4448 5.95945 19.8868 7.19445 19.8868H17.848ZM7.1912 21.5118C5.51961 21.5118 4.02678 20.9051 2.87412 19.7568C1.59037 18.4763 0.884033 16.6714 0.884033 14.6738V7.23338C0.884033 3.33013 3.60428 0.386719 7.21178 0.386719H17.848C21.4555 0.386719 24.1757 3.33013 24.1757 7.23338V14.6738C24.1757 16.6714 23.4694 18.4763 22.1856 19.7568C21.0341 20.904 19.5401 21.5118 17.8653 21.5118H7.1912Z" fill="#050B20"/>
</g>
</g>
</g>
<defs>
<clipPath id="clip0_1_19340">
<rect width="24" height="22" fill="white" transform="translate(0.800781 0.220703)"/>
</clipPath>
<clipPath id="clip1_1_19340">
<rect width="24" height="22" fill="white" transform="translate(0.800781 0.220703)"/>
</clipPath>
<clipPath id="clip2_1_19340">
<rect width="24" height="22" fill="white" transform="translate(0.800781 0.220703)"/>
</clipPath>
</defs>
</svg>
