<svg width="37" height="37" viewBox="0 0 37 37" fill="none" xmlns="http://www.w3.org/2000/svg">
<g clip-path="url(#clip0_1_19389)">
<path d="M24.4008 9.99844H27.3008C28.4008 9.99844 29.4008 10.8984 29.4008 12.0984V29.9984C29.4008 31.0984 28.5008 32.0984 27.3008 32.0984H10.9008C9.80078 32.0984 8.80078 31.1984 8.80078 29.9984V11.9984C8.80078 10.8984 9.70078 9.89844 10.9008 9.89844H14.6008M12.5008 16.5984H25.7008M12.5008 20.1984H25.7008M12.5008 23.8984H16.9008" stroke="#022344" stroke-width="2" stroke-miterlimit="10" stroke-linecap="round" stroke-linejoin="round"/>
<path d="M19.9007 25.9L21.8007 27.9L25.7007 23.9M21.3007 7.7V7.4C21.3007 6.4 20.4007 5.5 19.5007 5.5C18.6007 5.5 17.7007 6.4 17.7007 7.4V7.7H14.7007V11.4H24.3007V7.7H21.3007Z" stroke="#022344" stroke-width="2" stroke-miterlimit="10" stroke-linecap="round" stroke-linejoin="round"/>
</g>
<defs>
<clipPath id="clip0_1_19389">
<rect width="36" height="36" fill="white" transform="translate(0.800781 0.5)"/>
</clipPath>
</defs>
</svg>
