<svg width="61" height="61" viewBox="0 0 61 61" fill="none" xmlns="http://www.w3.org/2000/svg">
<g clip-path="url(#clip0_1_19473)">
<g clip-path="url(#clip1_1_19473)">
<path d="M24.3863 4.95312C20.685 4.95312 17.3302 7.13083 15.8234 10.5114L9.7264 24.1906C6.07132 24.4418 3.18359 27.4843 3.18359 31.2031V36.5938C3.18359 39.8298 5.80695 42.4531 9.04296 42.4531H10.649C10.6577 42.0022 10.6692 41.5514 10.6836 41.1005C10.3021 40.323 10.0871 39.449 10.0871 38.5245L9.98046 34.3672C9.98046 31.2927 10.606 30.1094 12.8881 29.6497C13.9729 29.4311 14.8811 28.692 15.3256 27.6786L22.8546 10.5114C24.3613 7.13083 27.7162 4.95312 31.4175 4.95312H24.3863Z" fill="#EEF1FB"/>
<path d="M9.04296 42.4531C5.80695 42.4531 3.18359 39.8298 3.18359 36.5938V31.2031C3.18359 27.4843 6.07132 24.4418 9.7264 24.1906L15.8234 10.5114C17.3301 7.13083 20.6849 4.95312 24.3863 4.95312H35.0615C38.5839 4.95312 41.809 6.9275 43.4109 10.0646L46.4257 15.9688M58.496 31.2031C58.496 27.3199 55.348 24.1719 51.4648 24.1719H19.4726M29.082 15.9688V5.07031M33.3007 42.4531H28.0271M21.5818 37.7656C18.993 37.7656 16.8943 39.8643 16.8943 42.4531C16.8943 45.0419 18.993 47.1406 21.5818 47.1406C24.1705 47.1406 26.2693 45.0419 26.2693 42.4531C26.2693 39.8643 24.1707 37.7656 21.5818 37.7656Z" stroke="#405FF2" stroke-width="3" stroke-miterlimit="10" stroke-linecap="round" stroke-linejoin="round"/>
<path d="M58.496 42.1016C58.496 46.5997 54.8496 50.3047 50.3515 50.3047C45.8534 50.3047 42.207 46.6583 42.207 42.1602C42.207 37.662 45.912 34.0156 50.4101 34.0156M44.375 48.6055L36.9336 56.0469" stroke="#FF5CF3" stroke-width="3" stroke-miterlimit="10" stroke-linecap="round" stroke-linejoin="round"/>
</g>
</g>
<defs>
<clipPath id="clip0_1_19473">
<rect width="60" height="60" fill="white" transform="translate(0.839844 0.5)"/>
</clipPath>
<clipPath id="clip1_1_19473">
<rect width="60" height="60" fill="white" transform="translate(0.839844 0.5)"/>
</clipPath>
</defs>
</svg>
