<svg width="16" height="13" viewBox="0 0 16 13" fill="none" xmlns="http://www.w3.org/2000/svg">
<path d="M13.5918 3.81689C13.5918 3.96338 13.5918 4.08057 13.5918 4.22705C13.5918 8.29932 10.5156 12.9575 4.86133 12.9575C3.10352 12.9575 1.49219 12.4595 0.144531 11.5806C0.378906 11.6099 0.613281 11.6392 0.876953 11.6392C2.3125 11.6392 3.63086 11.1411 4.68555 10.3208C3.33789 10.2915 2.19531 9.4126 1.81445 8.18213C2.01953 8.21143 2.19531 8.24072 2.40039 8.24072C2.66406 8.24072 2.95703 8.18213 3.19141 8.12354C1.78516 7.83057 0.730469 6.6001 0.730469 5.10596V5.07666C1.14062 5.31104 1.63867 5.42822 2.13672 5.45752C1.28711 4.90088 0.759766 3.96338 0.759766 2.90869C0.759766 2.32275 0.90625 1.79541 1.16992 1.35596C2.69336 3.20166 4.97852 4.43213 7.52734 4.57861C7.46875 4.34424 7.43945 4.10986 7.43945 3.87549C7.43945 2.17627 8.81641 0.799316 10.5156 0.799316C11.3945 0.799316 12.1855 1.15088 12.7715 1.76611C13.4453 1.61963 14.1191 1.35596 14.7051 1.00439C14.4707 1.73682 14.002 2.32275 13.3574 2.70361C13.9727 2.64502 14.5879 2.46924 15.1152 2.23486C14.7051 2.8501 14.1777 3.37744 13.5918 3.81689Z" fill="#000000"/>
</svg>
