<svg width="20" height="23" viewBox="0 0 20 23" fill="none" xmlns="http://www.w3.org/2000/svg">
<path d="M15.9844 11.7485C15.9844 11.8462 15.8379 14.7271 19.0117 16.2407C18.4258 18.0474 16.375 22.0513 13.9824 22.0513C12.6152 22.0513 11.834 21.1724 10.2715 21.1724C8.66016 21.1724 7.78125 22.0513 6.56055 22.0513C4.2168 22.1489 1.9707 17.7544 1.33594 15.9478C0.847656 14.5806 0.652344 13.2622 0.652344 11.9927C0.652344 7.64697 3.5332 5.54736 6.26758 5.49854C7.58594 5.49854 9.24609 6.42627 9.97852 6.42627C10.6621 6.42627 12.5664 5.30322 14.3242 5.44971C16.1309 5.59619 17.498 6.27979 18.4258 7.59814C16.8145 8.62354 15.9844 9.94189 15.9844 11.7485ZM13.25 3.74072C12.2734 4.86377 11.1016 5.49854 9.83203 5.40088C9.73438 4.08252 10.2227 2.86182 11.1016 1.88525C11.8828 1.00635 13.25 0.273926 14.4219 0.17627C14.4219 0.713379 14.5684 2.17822 13.25 3.74072Z" fill="white"/>

</svg>
