<svg width="33" height="11" viewBox="0 0 33 11" fill="none" xmlns="http://www.w3.org/2000/svg">
<path d="M26.261 5.06055C25.7171 5.06055 25.1854 5.22183 24.7332 5.52401C24.2809 5.82618 23.9285 6.25567 23.7203 6.75817C23.5122 7.26066 23.4577 7.8136 23.5638 8.34705C23.6699 8.88049 23.9319 9.3705 24.3164 9.75509C24.701 10.1397 25.191 10.4016 25.7245 10.5077C26.2579 10.6138 26.8109 10.5594 27.3134 10.3512C27.8159 10.1431 28.2454 9.7906 28.5475 9.33837C28.8497 8.88613 29.011 8.35445 29.011 7.81055C29.0102 7.08145 28.7202 6.38245 28.2046 5.8669C27.6891 5.35135 26.9901 5.06136 26.261 5.06055ZM26.261 9.06055C26.0138 9.06055 25.7721 8.98724 25.5665 8.84988C25.361 8.71253 25.2007 8.51731 25.1061 8.2889C25.0115 8.06049 24.9868 7.80916 25.035 7.56668C25.0832 7.32421 25.2023 7.10148 25.3771 6.92666C25.5519 6.75185 25.7747 6.6328 26.0171 6.58457C26.2596 6.53633 26.5109 6.56109 26.7393 6.6557C26.9677 6.75031 27.163 6.91052 27.3003 7.11608C27.4377 7.32164 27.511 7.56332 27.511 7.81055C27.5106 8.14195 27.3788 8.45967 27.1445 8.69401C26.9101 8.92835 26.5924 9.06017 26.261 9.06055ZM7.26099 5.06055C6.71709 5.06055 6.1854 5.22183 5.73317 5.52401C5.28093 5.82618 4.92846 6.25567 4.72032 6.75817C4.51218 7.26066 4.45772 7.8136 4.56383 8.34705C4.66994 8.88049 4.93185 9.3705 5.31644 9.75509C5.70104 10.1397 6.19104 10.4016 6.72449 10.5077C7.25794 10.6138 7.81087 10.5594 8.31337 10.3512C8.81586 10.1431 9.24535 9.7906 9.54753 9.33837C9.8497 8.88613 10.011 8.35445 10.011 7.81055C10.0102 7.08145 9.72019 6.38245 9.20464 5.8669C8.68909 5.35135 7.99008 5.06136 7.26099 5.06055ZM7.26099 9.06055C7.01376 9.06055 6.77209 8.98724 6.56652 8.84988C6.36096 8.71253 6.20075 8.51731 6.10614 8.2889C6.01153 8.06049 5.98677 7.80916 6.03501 7.56668C6.08324 7.32421 6.20229 7.10148 6.3771 6.92666C6.55192 6.75185 6.77465 6.6328 7.01712 6.58457C7.2596 6.53633 7.51093 6.56109 7.73934 6.6557C7.96775 6.75031 8.16297 6.91052 8.30032 7.11608C8.43768 7.32164 8.51099 7.56332 8.51099 7.81055C8.51061 8.14195 8.37879 8.45967 8.14445 8.69401C7.91011 8.92835 7.59239 9.06017 7.26099 9.06055Z" fill="black"/>
<path d="M31.911 6.43611C31.8314 6.29805 29.9239 3.06055 26.261 3.06055C22.7219 3.06055 20.8725 2.26748 20.6319 2.1568C20.2221 1.88911 17.346 0.0605469 15.261 0.0605469H9.26099C7.2363 0.0605469 4.46567 1.7848 3.93174 2.12973L1.0238 3.09905C0.87447 3.14883 0.744589 3.24433 0.652552 3.37203C0.560515 3.49972 0.510988 3.65314 0.510986 3.81055V7.81055C0.510984 7.98392 0.57105 8.15195 0.680964 8.28603C0.790879 8.42011 0.943853 8.51197 1.11386 8.54598L4.01886 9.12723C3.79486 8.57688 3.71466 7.97856 3.78581 7.38865C3.85696 6.79873 4.07713 6.23664 4.42557 5.75534C4.77401 5.27404 5.23925 4.88937 5.77745 4.63757C6.31566 4.38577 6.9091 4.27514 7.50188 4.3161C8.09466 4.35706 8.66725 4.54826 9.16571 4.87168C9.66417 5.19511 10.0721 5.64011 10.351 6.16476C10.6299 6.68941 10.7707 7.27644 10.7601 7.87053C10.7494 8.46463 10.5877 9.04623 10.2901 9.56055H23.2319C22.9239 9.02854 22.7615 8.4248 22.761 7.81009C22.7605 7.19538 22.9219 6.59138 23.2289 6.05885C23.536 5.52632 23.9779 5.08406 24.5101 4.77655C25.0424 4.46905 25.6463 4.30715 26.261 4.30715C26.8757 4.30715 27.4796 4.46905 28.0118 4.77655C28.5441 5.08406 28.986 5.52632 29.2931 6.05885C29.6001 6.59138 29.7615 7.19538 29.761 7.81009C29.7605 8.4248 29.5981 9.02854 29.2901 9.56055H31.261C31.4599 9.56055 31.6507 9.48153 31.7913 9.34088C31.932 9.20022 32.011 9.00946 32.011 8.81055V6.81055C32.011 6.67913 31.9765 6.55002 31.911 6.43611ZM15.261 7.56055H12.261C12.0621 7.56055 11.8713 7.48153 11.7307 7.34088C11.59 7.20023 11.511 7.00946 11.511 6.81055C11.511 6.61163 11.59 6.42087 11.7307 6.28022C11.8713 6.13956 12.0621 6.06055 12.261 6.06055H15.261C15.4599 6.06055 15.6507 6.13956 15.7913 6.28022C15.932 6.42087 16.011 6.61163 16.011 6.81055C16.011 7.00946 15.932 7.20023 15.7913 7.34088C15.6507 7.48153 15.4599 7.56055 15.261 7.56055ZM18.261 7.56055C18.1126 7.56055 17.9676 7.51656 17.8443 7.43415C17.721 7.35174 17.6248 7.2346 17.5681 7.09756C17.5113 6.96051 17.4965 6.80972 17.5254 6.66423C17.5543 6.51874 17.6258 6.38511 17.7307 6.28022C17.8355 6.17533 17.9692 6.1039 18.1147 6.07496C18.2602 6.04602 18.411 6.06087 18.548 6.11764C18.685 6.1744 18.8022 6.27053 18.8846 6.39387C18.967 6.51721 19.011 6.66221 19.011 6.81055C19.011 7.00946 18.932 7.20023 18.7913 7.34088C18.6507 7.48153 18.4599 7.56055 18.261 7.56055ZM18.5964 3.23136C18.4923 3.28342 18.3774 3.31053 18.261 3.31055H12.261C12.1804 3.31054 12.1003 3.29754 12.0238 3.27205C11.9866 3.25973 9.11099 2.31055 7.26099 2.31055H4.88205C6.00355 1.6828 7.82092 0.810547 9.26099 0.810547H15.261C16.8735 0.810547 18.9596 1.9043 20.0114 2.52386L18.5964 3.23136ZM21.261 7.56055C21.1126 7.56055 20.9676 7.51656 20.8443 7.43415C20.721 7.35174 20.6248 7.2346 20.5681 7.09756C20.5113 6.96051 20.4965 6.80972 20.5254 6.66423C20.5543 6.51874 20.6258 6.38511 20.7307 6.28022C20.8355 6.17533 20.9692 6.1039 21.1147 6.07496C21.2602 6.04602 21.411 6.06087 21.548 6.11764C21.685 6.1744 21.8022 6.27053 21.8846 6.39387C21.967 6.51721 22.011 6.66221 22.011 6.81055C22.011 7.00946 21.932 7.20023 21.7913 7.34088C21.6507 7.48153 21.4599 7.56055 21.261 7.56055Z" fill="black"/>
</svg>
