<svg width="29" height="10" viewBox="0 0 29 10" fill="none" xmlns="http://www.w3.org/2000/svg">
<path d="M23.3125 4.90234C22.8366 4.90234 22.3714 5.04347 21.9757 5.30787C21.58 5.57227 21.2715 5.94808 21.0894 6.38776C20.9073 6.82745 20.8596 7.31126 20.9525 7.77803C21.0453 8.2448 21.2745 8.67355 21.611 9.01007C21.9475 9.34659 22.3763 9.57576 22.8431 9.66861C23.3098 9.76145 23.7936 9.7138 24.2333 9.53168C24.673 9.34956 25.0488 9.04114 25.3132 8.64544C25.5776 8.24973 25.7188 7.78451 25.7188 7.30859C25.718 6.67063 25.4643 6.05901 25.0132 5.6079C24.5621 5.1568 23.9505 4.90305 23.3125 4.90234ZM23.3125 8.40234C23.0962 8.40234 22.8847 8.3382 22.7048 8.21801C22.525 8.09783 22.3848 7.92701 22.302 7.72715C22.2192 7.5273 22.1976 7.30738 22.2398 7.09521C22.282 6.88305 22.3861 6.68816 22.5391 6.53519C22.6921 6.38223 22.887 6.27806 23.0991 6.23586C23.3113 6.19366 23.5312 6.21532 23.7311 6.2981C23.9309 6.38088 24.1017 6.52107 24.2219 6.70094C24.3421 6.8808 24.4063 7.09227 24.4063 7.30859C24.4059 7.59857 24.2906 7.87658 24.0855 8.08162C23.8805 8.28667 23.6025 8.40201 23.3125 8.40234ZM6.6875 4.90234C6.21159 4.90234 5.74637 5.04347 5.35066 5.30787C4.95495 5.57227 4.64654 5.94808 4.46442 6.38776C4.28229 6.82745 4.23464 7.31126 4.32749 7.77803C4.42033 8.2448 4.6495 8.67355 4.98603 9.01007C5.32255 9.34659 5.7513 9.57576 6.21806 9.66861C6.68483 9.76145 7.16865 9.7138 7.60833 9.53168C8.04802 9.34956 8.42382 9.04114 8.68822 8.64544C8.95263 8.24973 9.09375 7.78451 9.09375 7.30859C9.09304 6.67063 8.8393 6.05901 8.38819 5.6079C7.93709 5.1568 7.32546 4.90305 6.6875 4.90234ZM6.6875 8.40234C6.47118 8.40234 6.25971 8.3382 6.07985 8.21801C5.89998 8.09783 5.75979 7.92701 5.67701 7.72715C5.59422 7.5273 5.57256 7.30738 5.61477 7.09521C5.65697 6.88305 5.76114 6.68816 5.9141 6.53519C6.06707 6.38223 6.26195 6.27806 6.47412 6.23586C6.68629 6.19366 6.9062 6.21532 7.10606 6.2981C7.30592 6.38088 7.47674 6.52107 7.59692 6.70094C7.7171 6.8808 7.78125 7.09227 7.78125 7.30859C7.78092 7.59857 7.66558 7.87658 7.46053 8.08162C7.25549 8.28667 6.97748 8.40201 6.6875 8.40234Z" fill="white"/>
<path d="M28.2563 6.10596C28.1866 5.98516 26.5176 3.15234 23.3125 3.15234C20.2158 3.15234 18.5976 2.45841 18.3871 2.36156C18.0285 2.12734 15.5119 0.527344 13.6875 0.527344H8.4375C6.6659 0.527344 4.2416 2.03606 3.77441 2.33788L1.22996 3.18603C1.0993 3.22959 0.985652 3.31315 0.90512 3.42489C0.824587 3.53662 0.781251 3.67086 0.78125 3.80859V7.30859C0.781248 7.4603 0.833806 7.60732 0.929981 7.72464C1.02616 7.84196 1.16001 7.92234 1.30877 7.9521L3.85064 8.46069C3.65464 7.97914 3.58446 7.45561 3.64672 6.93943C3.70898 6.42326 3.90163 5.93143 4.20651 5.51029C4.5114 5.08915 4.91848 4.75256 5.38941 4.53224C5.86034 4.31192 6.3796 4.21511 6.89828 4.25095C7.41696 4.28679 7.91798 4.45409 8.35413 4.73709C8.79028 5.02008 9.14721 5.40946 9.39127 5.86853C9.63534 6.3276 9.75851 6.84125 9.74919 7.36108C9.73987 7.88092 9.59836 8.38982 9.33798 8.83984H20.662C20.3926 8.37433 20.2505 7.84607 20.25 7.3082C20.2495 6.77032 20.3908 6.24182 20.6594 5.77586C20.9281 5.3099 21.3148 4.92291 21.7805 4.65385C22.2462 4.38478 22.7746 4.24312 23.3125 4.24312C23.8504 4.24312 24.3788 4.38478 24.8445 4.65385C25.3102 4.92291 25.6969 5.3099 25.9656 5.77586C26.2342 6.24182 26.3755 6.77032 26.375 7.3082C26.3745 7.84607 26.2324 8.37433 25.963 8.83984H27.6875C27.8615 8.83984 28.0285 8.7707 28.1515 8.64763C28.2746 8.52456 28.3438 8.35764 28.3438 8.18359V6.43359C28.3438 6.31861 28.3136 6.20563 28.2563 6.10596ZM13.6875 7.08984H11.0625C10.8885 7.08984 10.7215 7.0207 10.5985 6.89763C10.4754 6.77456 10.4062 6.60764 10.4062 6.43359C10.4062 6.25955 10.4754 6.09263 10.5985 5.96956C10.7215 5.84648 10.8885 5.77734 11.0625 5.77734H13.6875C13.8615 5.77734 14.0285 5.84648 14.1515 5.96956C14.2746 6.09263 14.3438 6.25955 14.3438 6.43359C14.3438 6.60764 14.2746 6.77456 14.1515 6.89763C14.0285 7.0207 13.8615 7.08984 13.6875 7.08984ZM16.3125 7.08984C16.1827 7.08984 16.0558 7.05135 15.9479 6.97925C15.84 6.90714 15.7559 6.80464 15.7062 6.68473C15.6565 6.56482 15.6435 6.43287 15.6689 6.30557C15.6942 6.17827 15.7567 6.06133 15.8485 5.96956C15.9402 5.87778 16.0572 5.81527 16.1845 5.78995C16.3118 5.76463 16.4437 5.77763 16.5636 5.8273C16.6835 5.87697 16.786 5.96108 16.8582 6.069C16.9303 6.17692 16.9688 6.3038 16.9688 6.43359C16.9688 6.60764 16.8996 6.77456 16.7765 6.89763C16.6535 7.0207 16.4865 7.08984 16.3125 7.08984ZM16.606 3.3018C16.5149 3.34736 16.4144 3.37108 16.3125 3.37109H11.0625C10.992 3.37109 10.9219 3.35972 10.855 3.33741C10.8224 3.32663 8.30625 2.49609 6.6875 2.49609H4.60593C5.58724 1.94681 7.17745 1.18359 8.4375 1.18359H13.6875C15.0984 1.18359 16.9238 2.14062 17.8441 2.68274L16.606 3.3018ZM18.9375 7.08984C18.8077 7.08984 18.6808 7.05135 18.5729 6.97925C18.465 6.90714 18.3809 6.80464 18.3312 6.68473C18.2815 6.56482 18.2685 6.43287 18.2939 6.30557C18.3192 6.17827 18.3817 6.06133 18.4735 5.96956C18.5652 5.87778 18.6822 5.81527 18.8095 5.78995C18.9368 5.76463 19.0687 5.77763 19.1886 5.8273C19.3085 5.87697 19.411 5.96108 19.4832 6.069C19.5553 6.17692 19.5938 6.3038 19.5938 6.43359C19.5938 6.60764 19.5246 6.77456 19.4015 6.89763C19.2785 7.0207 19.1115 7.08984 18.9375 7.08984Z" fill="white"/>
</svg>
