<svg width="23" height="26" viewBox="0 0 23 26" fill="none" xmlns="http://www.w3.org/2000/svg">
<path d="M0.646061 2.32083C-0.178618 1.95877 0.324168 0.585707 1.14884 0.948019L5.28335 2.78052C5.65114 2.94434 5.70861 3.26538 5.70861 3.63064V6.27883L21.4734 8.32227C21.8411 8.36939 22.1053 8.73487 22.0653 9.13771L21.7148 16.5183C21.6948 16.9968 21.35 17.2205 20.9563 17.2205H5.70881V20.0071L18.7328 20.4512C22.3042 20.4102 22.1318 25.9773 18.8649 25.9773C16.9429 25.9773 15.7188 23.6944 16.6669 21.8587L10.1794 21.6382C11.6419 24.491 8.12795 27.1863 6.19437 24.9415C5.35543 23.9654 5.20596 22.5955 5.86111 21.4903C5.27788 21.4715 4.35569 21.6036 4.35569 20.722V3.96384L0.646431 2.32003L0.646061 2.32083ZM18.9993 21.9383C18.3413 21.9164 17.8155 22.2848 17.695 23.0184C17.5168 24.1331 18.8558 25.065 19.6919 24.1205C20.3988 23.3238 19.9418 22.058 18.9995 21.9383H18.9993ZM8.80559 22.0799C8.15331 21.3651 7.13354 21.6959 6.86619 22.6278C6.52425 23.837 7.9321 24.898 8.80559 23.8968C9.26538 23.3741 9.26248 22.5806 8.80559 22.0799ZM5.7083 7.76868V15.7418H20.4015L20.6889 9.71181L5.7083 7.76868Z" fill="#050B20"/>
</svg>
