<svg width="22" height="18" viewBox="0 0 22 18" fill="none" xmlns="http://www.w3.org/2000/svg">
<path fill-rule="evenodd" clip-rule="evenodd" d="M8.60787 3.95513C8.04043 3.81825 7.45872 3.74939 6.875 3.75C3.14 3.75 0.125 6.519 0.125 9.90637C0.125 11.5871 0.87725 13.1906 2.20212 14.3494L2.20512 14.3524C2.25235 14.3926 2.28868 14.444 2.31077 14.5019C2.33285 14.5599 2.33998 14.6225 2.3315 14.6839L2.33113 14.6865C2.23663 15.4073 2.04088 16.8236 2.04088 16.8236C2.03109 16.8954 2.04232 16.9686 2.07319 17.0342C2.10406 17.0997 2.15326 17.155 2.21485 17.1932C2.27643 17.2314 2.34777 17.251 2.42024 17.2496C2.49272 17.2481 2.56322 17.2258 2.62325 17.1851L4.595 15.8449C4.68725 15.7822 4.802 15.7639 4.90887 15.7943L4.91075 15.795C5.54638 15.9727 6.20862 16.0627 6.875 16.0627C9.18538 16.0627 11.2235 15.0015 12.4381 13.3927C13.1626 13.6196 13.9404 13.7426 14.75 13.7426C15.4602 13.7426 16.166 13.6459 16.8429 13.455L16.8451 13.4546C16.898 13.4393 16.9536 13.4358 17.008 13.4444C17.0624 13.453 17.1142 13.4736 17.1597 13.5045L19.2642 14.9351C19.3242 14.9759 19.3948 14.9985 19.4673 15C19.5399 15.0015 19.6113 14.9819 19.6729 14.9437C19.7346 14.9054 19.7838 14.8501 19.8146 14.7844C19.8455 14.7187 19.8566 14.6455 19.8466 14.5736C19.8466 14.5736 19.6348 13.0432 19.5354 12.2876V12.2854C19.5267 12.2237 19.5338 12.1608 19.556 12.1026C19.5782 12.0444 19.6147 11.9927 19.6621 11.9524L19.6655 11.9498C21.0744 10.7257 21.875 9.02738 21.875 7.2465C21.875 3.67162 18.692 0.75 14.75 0.75C12.1302 0.75 9.84538 2.04038 8.60787 3.95513ZM8.22425 4.63763C7.78038 4.54581 7.32827 4.4997 6.875 4.5C3.57312 4.5 0.875 6.912 0.875 9.90637C0.875 11.3745 1.53837 12.7717 2.69487 13.7843C2.83669 13.9059 2.94577 14.0611 3.01213 14.2357C3.07849 14.4104 3.10002 14.5989 3.07475 14.784C3.02863 15.1357 2.9585 15.6529 2.89888 16.0909L4.17387 15.2242C4.3098 15.1319 4.46432 15.0704 4.62656 15.0443C4.7888 15.0181 4.9548 15.0278 5.11287 15.0728C5.68325 15.2321 6.27725 15.3127 6.875 15.3127C8.849 15.3127 10.604 14.4521 11.6998 13.1182C9.2885 12.0735 7.625 9.83062 7.625 7.2465C7.625 6.31987 7.83875 5.43713 8.22425 4.63763ZM8.375 7.2465C8.375 4.06425 11.2411 1.5 14.75 1.5C18.2589 1.5 21.125 4.06425 21.125 7.2465C21.125 8.814 20.414 10.3057 19.1742 11.3831C19.0314 11.5052 18.9215 11.6612 18.8548 11.8368C18.788 12.0124 18.7665 12.202 18.7921 12.3881C18.8428 12.771 18.9226 13.3575 18.9886 13.8409L17.5809 12.8839C17.4442 12.7912 17.2889 12.7297 17.1258 12.7038C16.9628 12.6779 16.796 12.6881 16.6374 12.7339C16.0231 12.9062 15.388 12.9932 14.75 12.9926C11.2411 12.9926 8.375 10.4284 8.375 7.2465ZM7.625 12H4.25C4.15054 12 4.05516 12.0395 3.98484 12.1098C3.91451 12.1802 3.875 12.2755 3.875 12.375C3.875 12.4745 3.91451 12.5698 3.98484 12.6402C4.05516 12.7105 4.15054 12.75 4.25 12.75H7.625C7.72446 12.75 7.81984 12.7105 7.89017 12.6402C7.96049 12.5698 8 12.4745 8 12.375C8 12.2755 7.96049 12.1802 7.89017 12.1098C7.81984 12.0395 7.72446 12 7.625 12ZM6.875 9.75H4.25C4.15054 9.75 4.05516 9.78951 3.98484 9.85983C3.91451 9.93016 3.875 10.0255 3.875 10.125C3.875 10.2245 3.91451 10.3198 3.98484 10.3902C4.05516 10.4605 4.15054 10.5 4.25 10.5H6.875C6.97446 10.5 7.06984 10.4605 7.14017 10.3902C7.21049 10.3198 7.25 10.2245 7.25 10.125C7.25 10.0255 7.21049 9.93016 7.14017 9.85983C7.06984 9.78951 6.97446 9.75 6.875 9.75ZM17.75 6.375C17.4567 6.38257 17.1779 6.50443 16.9731 6.71458C16.7683 6.92473 16.6537 7.20656 16.6537 7.5C16.6537 7.79344 16.7683 8.07527 16.9731 8.28542C17.1779 8.49557 17.4567 8.61743 17.75 8.625C18.0433 8.61743 18.3221 8.49557 18.5269 8.28542C18.7317 8.07527 18.8463 7.79344 18.8463 7.5C18.8463 7.20656 18.7317 6.92473 18.5269 6.71458C18.3221 6.50443 18.0433 6.38257 17.75 6.375ZM14.75 6.375C14.4567 6.38257 14.1779 6.50443 13.9731 6.71458C13.7683 6.92473 13.6537 7.20656 13.6537 7.5C13.6537 7.79344 13.7683 8.07527 13.9731 8.28542C14.1779 8.49557 14.4567 8.61743 14.75 8.625C15.0433 8.61743 15.3221 8.49557 15.5269 8.28542C15.7317 8.07527 15.8463 7.79344 15.8463 7.5C15.8463 7.20656 15.7317 6.92473 15.5269 6.71458C15.3221 6.50443 15.0433 6.38257 14.75 6.375ZM11.75 6.375C11.4567 6.38257 11.1779 6.50443 10.9731 6.71458C10.7683 6.92473 10.6537 7.20656 10.6537 7.5C10.6537 7.79344 10.7683 8.07527 10.9731 8.28542C11.1779 8.49557 11.4567 8.61743 11.75 8.625C12.0433 8.61743 12.3221 8.49557 12.5269 8.28542C12.7317 8.07527 12.8463 7.79344 12.8463 7.5C12.8463 7.20656 12.7317 6.92473 12.5269 6.71458C12.3221 6.50443 12.0433 6.38257 11.75 6.375ZM6.5 7.5H4.25C4.15054 7.5 4.05516 7.53951 3.98484 7.60983C3.91451 7.68016 3.875 7.77554 3.875 7.875C3.875 7.97446 3.91451 8.06984 3.98484 8.14017C4.05516 8.21049 4.15054 8.25 4.25 8.25H6.5C6.59946 8.25 6.69484 8.21049 6.76517 8.14017C6.83549 8.06984 6.875 7.97446 6.875 7.875C6.875 7.77554 6.83549 7.68016 6.76517 7.60983C6.69484 7.53951 6.59946 7.5 6.5 7.5ZM17.75 7.125C17.8495 7.125 17.9448 7.16451 18.0152 7.23483C18.0855 7.30516 18.125 7.40054 18.125 7.5C18.125 7.59946 18.0855 7.69484 18.0152 7.76517C17.9448 7.83549 17.8495 7.875 17.75 7.875C17.6505 7.875 17.5552 7.83549 17.4848 7.76517C17.4145 7.69484 17.375 7.59946 17.375 7.5C17.375 7.40054 17.4145 7.30516 17.4848 7.23483C17.5552 7.16451 17.6505 7.125 17.75 7.125ZM14.75 7.125C14.8495 7.125 14.9448 7.16451 15.0152 7.23483C15.0855 7.30516 15.125 7.40054 15.125 7.5C15.125 7.59946 15.0855 7.69484 15.0152 7.76517C14.9448 7.83549 14.8495 7.875 14.75 7.875C14.6505 7.875 14.5552 7.83549 14.4848 7.76517C14.4145 7.69484 14.375 7.59946 14.375 7.5C14.375 7.40054 14.4145 7.30516 14.4848 7.23483C14.5552 7.16451 14.6505 7.125 14.75 7.125ZM11.75 7.125C11.8495 7.125 11.9448 7.16451 12.0152 7.23483C12.0855 7.30516 12.125 7.40054 12.125 7.5C12.125 7.59946 12.0855 7.69484 12.0152 7.76517C11.9448 7.83549 11.8495 7.875 11.75 7.875C11.6505 7.875 11.5552 7.83549 11.4848 7.76517C11.4145 7.69484 11.375 7.59946 11.375 7.5C11.375 7.40054 11.4145 7.30516 11.4848 7.23483C11.5552 7.16451 11.6505 7.125 11.75 7.125Z" fill="black"/>
</svg>