<svg width="22" height="22" viewBox="0 0 22 22" fill="none" xmlns="http://www.w3.org/2000/svg">
<path d="M10.9999 21.2853C5.3428 21.2853 0.714233 16.6567 0.714233 10.9996C0.714233 5.34244 5.3428 0.713867 10.9999 0.713867C16.6571 0.713867 21.2857 5.34244 21.2857 10.9996C21.2857 16.6567 16.6571 21.2853 10.9999 21.2853ZM10.9999 2.42815C6.28566 2.42815 2.42852 6.2853 2.42852 10.9996C2.42852 15.7139 6.28566 19.571 10.9999 19.571C15.7142 19.571 19.5714 15.7139 19.5714 10.9996C19.5714 6.2853 15.7142 2.42815 10.9999 2.42815ZM10.9999 16.9996C10.4857 16.9996 10.1428 16.6567 10.1428 16.1424C10.1428 15.6282 10.4857 15.2853 10.9999 15.2853C11.5142 15.2853 11.8571 15.6282 11.8571 16.1424C11.8571 16.6567 11.5142 16.9996 10.9999 16.9996ZM10.9999 14.4282C10.4857 14.4282 10.1428 14.0853 10.1428 13.571V10.9996C10.1428 10.4853 10.4857 10.1424 10.9999 10.1424C11.9428 10.1424 12.7142 9.37101 12.7142 8.42815C12.7142 7.4853 11.9428 6.71387 10.9999 6.71387C10.0571 6.71387 9.28566 7.4853 9.28566 8.42815C9.28566 8.94244 8.94281 9.2853 8.42852 9.2853C7.91423 9.2853 7.57138 8.94244 7.57138 8.42815C7.57138 6.54244 9.11423 4.99958 10.9999 4.99958C12.8857 4.99958 14.4285 6.54244 14.4285 8.42815C14.4285 10.0567 13.3142 11.3424 11.8571 11.771V13.571C11.8571 14.0853 11.5142 14.4282 10.9999 14.4282Z" fill="black"/>
</svg>