<svg width="14" height="14" viewBox="0 0 14 14" fill="none" xmlns="http://www.w3.org/2000/svg">
<path d="M6.63778 3.49463C8.48349 3.49463 10.0069 5.01807 10.0069 6.86377C10.0069 8.73877 8.48349 10.2329 6.63778 10.2329C4.76278 10.2329 3.26864 8.73877 3.26864 6.86377C3.26864 5.01807 4.76278 3.49463 6.63778 3.49463ZM6.63778 9.06104C7.83896 9.06104 8.80575 8.09424 8.80575 6.86377C8.80575 5.6626 7.83896 4.6958 6.63778 4.6958C5.40732 4.6958 4.44052 5.6626 4.44052 6.86377C4.44052 8.09424 5.43661 9.06104 6.63778 9.06104ZM10.9151 3.37744C10.9151 3.81689 10.5636 4.16846 10.1241 4.16846C9.68466 4.16846 9.3331 3.81689 9.3331 3.37744C9.3331 2.93799 9.68466 2.58643 10.1241 2.58643C10.5636 2.58643 10.9151 2.93799 10.9151 3.37744ZM13.1417 4.16846C13.2003 5.25244 13.2003 8.50439 13.1417 9.58838C13.0831 10.6431 12.8487 11.5513 12.087 12.3423C11.3253 13.104 10.3878 13.3384 9.3331 13.397C8.24911 13.4556 4.99716 13.4556 3.91318 13.397C2.85849 13.3384 1.95028 13.104 1.15927 12.3423C0.397551 11.5513 0.163176 10.6431 0.104582 9.58838C0.0459881 8.50439 0.0459881 5.25244 0.104582 4.16846C0.163176 3.11377 0.397551 2.17627 1.15927 1.41455C1.95028 0.652832 2.85849 0.418457 3.91318 0.359863C4.99716 0.30127 8.24911 0.30127 9.3331 0.359863C10.3878 0.418457 11.3253 0.652832 12.087 1.41455C12.8487 2.17627 13.0831 3.11377 13.1417 4.16846ZM11.7354 10.731C12.087 9.88135 11.9991 7.83057 11.9991 6.86377C11.9991 5.92627 12.087 3.87549 11.7354 2.99658C11.5011 2.43994 11.0616 1.97119 10.505 1.76611C9.62607 1.41455 7.57528 1.50244 6.63778 1.50244C5.67099 1.50244 3.62021 1.41455 2.7706 1.76611C2.18466 2.00049 1.74521 2.43994 1.51083 2.99658C1.15927 3.87549 1.24716 5.92627 1.24716 6.86377C1.24716 7.83057 1.15927 9.88135 1.51083 10.731C1.74521 11.3169 2.18466 11.7563 2.7706 11.9907C3.62021 12.3423 5.67099 12.2544 6.63778 12.2544C7.57528 12.2544 9.62607 12.3423 10.505 11.9907C11.0616 11.7563 11.5304 11.3169 11.7354 10.731Z" fill="white"/>
</svg>
