<svg width="21" height="21" viewBox="0 0 21 21" fill="none" xmlns="http://www.w3.org/2000/svg">
<path d="M10.4006 0.433594C4.88064 0.433594 0.410645 4.91359 0.410645 10.4336C0.410645 15.9536 4.88064 20.4336 10.4006 20.4336C15.9306 20.4336 20.4106 15.9536 20.4106 10.4336C20.4106 4.91359 15.9306 0.433594 10.4006 0.433594ZM17.3306 6.43359H14.3806C14.0606 5.18359 13.6006 3.98359 13.0006 2.87359C14.8406 3.50359 16.3706 4.78359 17.3306 6.43359ZM10.4106 2.47359C11.2406 3.67359 11.8906 5.00359 12.3206 6.43359H8.50064C8.93064 5.00359 9.58064 3.67359 10.4106 2.47359ZM2.67064 12.4336C2.51064 11.7936 2.41064 11.1236 2.41064 10.4336C2.41064 9.74359 2.51064 9.07359 2.67064 8.43359H6.05064C5.97064 9.09359 5.91064 9.75359 5.91064 10.4336C5.91064 11.1136 5.97064 11.7736 6.05064 12.4336H2.67064ZM3.49064 14.4336H6.44064C6.76064 15.6836 7.22064 16.8836 7.82064 17.9936C5.98064 17.3636 4.45064 16.0936 3.49064 14.4336ZM6.44064 6.43359H3.49064C4.45064 4.77359 5.98064 3.50359 7.82064 2.87359C7.22064 3.98359 6.76064 5.18359 6.44064 6.43359ZM10.4106 18.3936C9.58064 17.1936 8.93064 15.8636 8.50064 14.4336H12.3206C11.8906 15.8636 11.2406 17.1936 10.4106 18.3936ZM12.7506 12.4336H8.07064C7.98064 11.7736 7.91064 11.1136 7.91064 10.4336C7.91064 9.75359 7.98064 9.08359 8.07064 8.43359H12.7506C12.8406 9.08359 12.9106 9.75359 12.9106 10.4336C12.9106 11.1136 12.8406 11.7736 12.7506 12.4336ZM13.0006 17.9936C13.6006 16.8836 14.0606 15.6836 14.3806 14.4336H17.3306C16.3706 16.0836 14.8406 17.3636 13.0006 17.9936ZM14.7706 12.4336C14.8506 11.7736 14.9106 11.1136 14.9106 10.4336C14.9106 9.75359 14.8506 9.09359 14.7706 8.43359H18.1506C18.3106 9.07359 18.4106 9.74359 18.4106 10.4336C18.4106 11.1236 18.3106 11.7936 18.1506 12.4336H14.7706Z" fill="#444444"/>
</svg>
