<svg width="160" height="79" viewBox="0 0 160 79" fill="none" xmlns="http://www.w3.org/2000/svg">
<circle cx="39.462" cy="39.1031" r="38.8443" fill="#405FF2"/>
<path d="M9.37369 48.6035L16.2857 29.7035H20.1737L27.0857 48.6035H23.4137L21.9017 44.2295H14.5307L12.9917 48.6035H9.37369ZM15.4757 41.5295H20.9567L18.2027 33.6725L15.4757 41.5295ZM34.1977 48.9275C32.5237 48.9275 31.2277 48.4055 30.3097 47.3615C29.4097 46.3175 28.9597 44.7875 28.9597 42.7715V35.2115H32.3887V42.4475C32.3887 43.5995 32.6227 44.4815 33.0907 45.0935C33.5587 45.7055 34.2967 46.0115 35.3047 46.0115C36.2587 46.0115 37.0417 45.6695 37.6537 44.9855C38.2837 44.3015 38.5987 43.3475 38.5987 42.1235V35.2115H42.0547V48.6035H39.0037L38.7337 46.3355C38.3197 47.1275 37.7167 47.7575 36.9247 48.2255C36.1507 48.6935 35.2417 48.9275 34.1977 48.9275ZM51.5694 48.6035C50.1654 48.6035 49.0404 48.2615 48.1944 47.5775C47.3484 46.8935 46.9254 45.6785 46.9254 43.9325V38.1005H44.6304V35.2115H46.9254L47.3304 31.6205H50.3814V35.2115H53.9994V38.1005H50.3814V43.9595C50.3814 44.6075 50.5164 45.0575 50.7864 45.3095C51.0744 45.5435 51.5604 45.6605 52.2444 45.6605H53.9184V48.6035H51.5694ZM63.0499 48.9275C61.7539 48.9275 60.5839 48.6305 59.5399 48.0365C58.5139 47.4425 57.6949 46.6235 57.0829 45.5795C56.4889 44.5175 56.1919 43.2935 56.1919 41.9075C56.1919 40.5215 56.4979 39.3065 57.1099 38.2625C57.7219 37.2005 58.5409 36.3725 59.5669 35.7785C60.6109 35.1845 61.7809 34.8875 63.0769 34.8875C64.3549 34.8875 65.5069 35.1845 66.5329 35.7785C67.5769 36.3725 68.3959 37.2005 68.9899 38.2625C69.6019 39.3065 69.9079 40.5215 69.9079 41.9075C69.9079 43.2935 69.6019 44.5175 68.9899 45.5795C68.3959 46.6235 67.5769 47.4425 66.5329 48.0365C65.4889 48.6305 64.3279 48.9275 63.0499 48.9275ZM63.0499 45.9305C63.9499 45.9305 64.7329 45.5975 65.3989 44.9315C66.0649 44.2475 66.3979 43.2395 66.3979 41.9075C66.3979 40.5755 66.0649 39.5765 65.3989 38.9105C64.7329 38.2265 63.9589 37.8845 63.0769 37.8845C62.1589 37.8845 61.3669 38.2265 60.7009 38.9105C60.0529 39.5765 59.7289 40.5755 59.7289 41.9075C59.7289 43.2395 60.0529 44.2475 60.7009 44.9315C61.3669 45.5975 62.1499 45.9305 63.0499 45.9305ZM85.9461 48.6035V29.7035H92.9391C94.4511 29.7035 95.7021 29.9555 96.6921 30.4595C97.6821 30.9635 98.4201 31.6565 98.9061 32.5385C99.3921 33.4205 99.6351 34.4105 99.6351 35.5085C99.6351 36.5525 99.4011 37.5155 98.9331 38.3975C98.4651 39.2615 97.7361 39.9635 96.7461 40.5035C95.7561 41.0255 94.4871 41.2865 92.9391 41.2865H89.4021V48.6035H85.9461ZM89.4021 38.4785H92.7231C93.9291 38.4785 94.7931 38.2175 95.3151 37.6955C95.8551 37.1555 96.1251 36.4265 96.1251 35.5085C96.1251 34.5725 95.8551 33.8435 95.3151 33.3215C94.7931 32.7815 93.9291 32.5115 92.7231 32.5115H89.4021V38.4785ZM106.039 48.9275C104.887 48.9275 103.942 48.7475 103.204 48.3875C102.466 48.0095 101.917 47.5145 101.557 46.9025C101.197 46.2905 101.017 45.6155 101.017 44.8775C101.017 43.6355 101.503 42.6275 102.475 41.8535C103.447 41.0795 104.905 40.6925 106.849 40.6925H110.251V40.3685C110.251 39.4505 109.99 38.7755 109.468 38.3435C108.946 37.9115 108.298 37.6955 107.524 37.6955C106.822 37.6955 106.21 37.8665 105.688 38.2085C105.166 38.5325 104.842 39.0185 104.716 39.6665H101.341C101.431 38.6945 101.755 37.8485 102.313 37.1285C102.889 36.4085 103.627 35.8595 104.527 35.4815C105.427 35.0855 106.435 34.8875 107.551 34.8875C109.459 34.8875 110.962 35.3645 112.06 36.3185C113.158 37.2725 113.707 38.6225 113.707 40.3685V48.6035H110.764L110.44 46.4435C110.044 47.1635 109.486 47.7575 108.766 48.2255C108.064 48.6935 107.155 48.9275 106.039 48.9275ZM106.822 46.2275C107.812 46.2275 108.577 45.9035 109.117 45.2555C109.675 44.6075 110.026 43.8065 110.17 42.8525H107.227C106.309 42.8525 105.652 43.0235 105.256 43.3655C104.86 43.6895 104.662 44.0945 104.662 44.5805C104.662 45.1025 104.86 45.5075 105.256 45.7955C105.652 46.0835 106.174 46.2275 106.822 46.2275ZM117.005 48.6035V35.2115H120.083L120.407 37.7225C120.893 36.8585 121.55 36.1745 122.378 35.6705C123.224 35.1485 124.214 34.8875 125.348 34.8875V38.5325H124.376C123.62 38.5325 122.945 38.6495 122.351 38.8835C121.757 39.1175 121.289 39.5225 120.947 40.0985C120.623 40.6745 120.461 41.4755 120.461 42.5015V48.6035H117.005ZM133.677 48.6035C132.273 48.6035 131.148 48.2615 130.302 47.5775C129.456 46.8935 129.033 45.6785 129.033 43.9325V38.1005H126.738V35.2115H129.033L129.438 31.6205H132.489V35.2115H136.107V38.1005H132.489V43.9595C132.489 44.6075 132.624 45.0575 132.894 45.3095C133.182 45.5435 133.668 45.6605 134.352 45.6605H136.026V48.6035H133.677ZM144.609 48.9275C143.421 48.9275 142.377 48.7385 141.477 48.3605C140.577 47.9645 139.857 47.4245 139.317 46.7405C138.777 46.0565 138.453 45.2645 138.345 44.3645H141.828C141.936 44.8865 142.224 45.3365 142.692 45.7145C143.178 46.0745 143.799 46.2545 144.555 46.2545C145.311 46.2545 145.86 46.1015 146.202 45.7955C146.562 45.4895 146.742 45.1385 146.742 44.7425C146.742 44.1665 146.49 43.7795 145.986 43.5815C145.482 43.3655 144.78 43.1585 143.88 42.9605C143.304 42.8345 142.719 42.6815 142.125 42.5015C141.531 42.3215 140.982 42.0965 140.478 41.8265C139.992 41.5385 139.596 41.1785 139.29 40.7465C138.984 40.2965 138.831 39.7475 138.831 39.0995C138.831 37.9115 139.299 36.9125 140.235 36.1025C141.189 35.2925 142.521 34.8875 144.231 34.8875C145.815 34.8875 147.075 35.2565 148.011 35.9945C148.965 36.7325 149.532 37.7495 149.712 39.0455H146.445C146.247 38.0555 145.5 37.5605 144.204 37.5605C143.556 37.5605 143.052 37.6865 142.692 37.9385C142.35 38.1905 142.179 38.5055 142.179 38.8835C142.179 39.2795 142.44 39.5945 142.962 39.8285C143.484 40.0625 144.177 40.2785 145.041 40.4765C145.977 40.6925 146.832 40.9355 147.606 41.2055C148.398 41.4575 149.028 41.8445 149.496 42.3665C149.964 42.8705 150.198 43.5995 150.198 44.5535C150.216 45.3815 150 46.1285 149.55 46.7945C149.1 47.4605 148.452 47.9825 147.606 48.3605C146.76 48.7385 145.761 48.9275 144.609 48.9275Z" fill="white"/>
</svg>
