<svg width="160" height="79" viewBox="0 0 160 79" fill="none" xmlns="http://www.w3.org/2000/svg">
<circle cx="39.462" cy="39.8189" r="38.8443" fill="#405FF2"/>
<path d="M9.37369 49.3193L16.2857 30.4193H20.1737L27.0857 49.3193H23.4137L21.9017 44.9453H14.5307L12.9917 49.3193H9.37369ZM15.4757 42.2453H20.9567L18.2027 34.3883L15.4757 42.2453ZM34.1977 49.6433C32.5237 49.6433 31.2277 49.1213 30.3097 48.0773C29.4097 47.0333 28.9597 45.5033 28.9597 43.4873V35.9273H32.3887V43.1633C32.3887 44.3153 32.6227 45.1973 33.0907 45.8093C33.5587 46.4213 34.2967 46.7273 35.3047 46.7273C36.2587 46.7273 37.0417 46.3853 37.6537 45.7013C38.2837 45.0173 38.5987 44.0633 38.5987 42.8393V35.9273H42.0547V49.3193H39.0037L38.7337 47.0513C38.3197 47.8433 37.7167 48.4733 36.9247 48.9413C36.1507 49.4093 35.2417 49.6433 34.1977 49.6433ZM51.5694 49.3193C50.1654 49.3193 49.0404 48.9773 48.1944 48.2933C47.3484 47.6093 46.9254 46.3943 46.9254 44.6483V38.8163H44.6304V35.9273H46.9254L47.3304 32.3363H50.3814V35.9273H53.9994V38.8163H50.3814V44.6753C50.3814 45.3233 50.5164 45.7733 50.7864 46.0253C51.0744 46.2593 51.5604 46.3763 52.2444 46.3763H53.9184V49.3193H51.5694ZM63.0499 49.6433C61.7539 49.6433 60.5839 49.3463 59.5399 48.7523C58.5139 48.1583 57.6949 47.3393 57.0829 46.2953C56.4889 45.2333 56.1919 44.0093 56.1919 42.6233C56.1919 41.2373 56.4979 40.0223 57.1099 38.9783C57.7219 37.9163 58.5409 37.0883 59.5669 36.4943C60.6109 35.9003 61.7809 35.6033 63.0769 35.6033C64.3549 35.6033 65.5069 35.9003 66.5329 36.4943C67.5769 37.0883 68.3959 37.9163 68.9899 38.9783C69.6019 40.0223 69.9079 41.2373 69.9079 42.6233C69.9079 44.0093 69.6019 45.2333 68.9899 46.2953C68.3959 47.3393 67.5769 48.1583 66.5329 48.7523C65.4889 49.3463 64.3279 49.6433 63.0499 49.6433ZM63.0499 46.6463C63.9499 46.6463 64.7329 46.3133 65.3989 45.6473C66.0649 44.9633 66.3979 43.9553 66.3979 42.6233C66.3979 41.2913 66.0649 40.2923 65.3989 39.6263C64.7329 38.9423 63.9589 38.6003 63.0769 38.6003C62.1589 38.6003 61.3669 38.9423 60.7009 39.6263C60.0529 40.2923 59.7289 41.2913 59.7289 42.6233C59.7289 43.9553 60.0529 44.9633 60.7009 45.6473C61.3669 46.3133 62.1499 46.6463 63.0499 46.6463Z" fill="white"/>
<path d="M85.9461 49.3193V30.4193H92.9391C94.4511 30.4193 95.7021 30.6713 96.6921 31.1753C97.6821 31.6793 98.4201 32.3723 98.9061 33.2543C99.3921 34.1363 99.6351 35.1263 99.6351 36.2243C99.6351 37.2683 99.4011 38.2313 98.9331 39.1133C98.4651 39.9773 97.7361 40.6793 96.7461 41.2193C95.7561 41.7413 94.4871 42.0023 92.9391 42.0023H89.4021V49.3193H85.9461ZM89.4021 39.1943H92.7231C93.9291 39.1943 94.7931 38.9333 95.3151 38.4113C95.8551 37.8713 96.1251 37.1423 96.1251 36.2243C96.1251 35.2883 95.8551 34.5593 95.3151 34.0373C94.7931 33.4973 93.9291 33.2273 92.7231 33.2273H89.4021V39.1943ZM106.039 49.6433C104.887 49.6433 103.942 49.4633 103.204 49.1033C102.466 48.7253 101.917 48.2303 101.557 47.6183C101.197 47.0063 101.017 46.3313 101.017 45.5933C101.017 44.3513 101.503 43.3433 102.475 42.5693C103.447 41.7953 104.905 41.4083 106.849 41.4083H110.251V41.0843C110.251 40.1663 109.99 39.4913 109.468 39.0593C108.946 38.6273 108.298 38.4113 107.524 38.4113C106.822 38.4113 106.21 38.5823 105.688 38.9243C105.166 39.2483 104.842 39.7343 104.716 40.3823H101.341C101.431 39.4103 101.755 38.5643 102.313 37.8443C102.889 37.1243 103.627 36.5753 104.527 36.1973C105.427 35.8013 106.435 35.6033 107.551 35.6033C109.459 35.6033 110.962 36.0803 112.06 37.0343C113.158 37.9883 113.707 39.3383 113.707 41.0843V49.3193H110.764L110.44 47.1593C110.044 47.8793 109.486 48.4733 108.766 48.9413C108.064 49.4093 107.155 49.6433 106.039 49.6433ZM106.822 46.9433C107.812 46.9433 108.577 46.6193 109.117 45.9713C109.675 45.3233 110.026 44.5223 110.17 43.5683H107.227C106.309 43.5683 105.652 43.7393 105.256 44.0813C104.86 44.4053 104.662 44.8103 104.662 45.2963C104.662 45.8183 104.86 46.2233 105.256 46.5113C105.652 46.7993 106.174 46.9433 106.822 46.9433ZM117.005 49.3193V35.9273H120.083L120.407 38.4383C120.893 37.5743 121.55 36.8903 122.378 36.3863C123.224 35.8643 124.214 35.6033 125.348 35.6033V39.2483H124.376C123.62 39.2483 122.945 39.3653 122.351 39.5993C121.757 39.8333 121.289 40.2383 120.947 40.8143C120.623 41.3903 120.461 42.1913 120.461 43.2173V49.3193H117.005ZM133.677 49.3193C132.273 49.3193 131.148 48.9773 130.302 48.2933C129.456 47.6093 129.033 46.3943 129.033 44.6483V38.8163H126.738V35.9273H129.033L129.438 32.3363H132.489V35.9273H136.107V38.8163H132.489V44.6753C132.489 45.3233 132.624 45.7733 132.894 46.0253C133.182 46.2593 133.668 46.3763 134.352 46.3763H136.026V49.3193H133.677ZM144.609 49.6433C143.421 49.6433 142.377 49.4543 141.477 49.0763C140.577 48.6803 139.857 48.1403 139.317 47.4563C138.777 46.7723 138.453 45.9803 138.345 45.0803H141.828C141.936 45.6023 142.224 46.0523 142.692 46.4303C143.178 46.7903 143.799 46.9703 144.555 46.9703C145.311 46.9703 145.86 46.8173 146.202 46.5113C146.562 46.2053 146.742 45.8543 146.742 45.4583C146.742 44.8823 146.49 44.4953 145.986 44.2973C145.482 44.0813 144.78 43.8743 143.88 43.6763C143.304 43.5503 142.719 43.3973 142.125 43.2173C141.531 43.0373 140.982 42.8123 140.478 42.5423C139.992 42.2543 139.596 41.8943 139.29 41.4623C138.984 41.0123 138.831 40.4633 138.831 39.8153C138.831 38.6273 139.299 37.6283 140.235 36.8183C141.189 36.0083 142.521 35.6033 144.231 35.6033C145.815 35.6033 147.075 35.9723 148.011 36.7103C148.965 37.4483 149.532 38.4653 149.712 39.7613H146.445C146.247 38.7713 145.5 38.2763 144.204 38.2763C143.556 38.2763 143.052 38.4023 142.692 38.6543C142.35 38.9063 142.179 39.2213 142.179 39.5993C142.179 39.9953 142.44 40.3103 142.962 40.5443C143.484 40.7783 144.177 40.9943 145.041 41.1923C145.977 41.4083 146.832 41.6513 147.606 41.9213C148.398 42.1733 149.028 42.5603 149.496 43.0823C149.964 43.5863 150.198 44.3153 150.198 45.2693C150.216 46.0973 150 46.8443 149.55 47.5103C149.1 48.1763 148.452 48.6983 147.606 49.0763C146.76 49.4543 145.761 49.6433 144.609 49.6433Z" fill="#050B20"/>
</svg>
