<svg width="17" height="16" viewBox="0 0 17 16" fill="none" xmlns="http://www.w3.org/2000/svg">
<path fill-rule="evenodd" clip-rule="evenodd" d="M7.0912 2.48461C5.73664 1.13005 3.5404 1.13005 2.1856 2.48461C0.831039 3.83941 0.831039 6.03565 2.1856 7.39021L8.548 13.7524L14.855 7.44517C16.2095 6.09061 16.2095 3.89413 14.855 2.53957C13.5004 1.18501 11.3039 1.18501 9.94936 2.53957L9.11512 3.37357C8.96462 3.524 8.76055 3.6085 8.54776 3.6085C8.33497 3.6085 8.1309 3.524 7.9804 3.37357L7.0912 2.48461ZM1.39024 1.68925C3.18424 -0.10475 6.0928 -0.10475 7.88704 1.68925L8.54776 2.35021L9.15376 1.74421C10.9478 -0.04979 13.8563 -0.04979 15.6506 1.74421C17.4448 3.53821 17.4443 6.44677 15.6506 8.24077L8.95528 14.9353C8.93225 14.9584 8.90728 14.9794 8.88064 14.9982C8.77097 15.0777 8.63656 15.1154 8.50157 15.1047C8.36657 15.0939 8.23982 15.0354 8.14408 14.9396L1.39024 8.18557C-0.403761 6.39157 -0.403761 3.48301 1.39024 1.68877V1.68925Z" fill="#525252"/>
</svg>
