<svg width="33" height="33" viewBox="0 0 33 33" fill="none" xmlns="http://www.w3.org/2000/svg">
<path d="M32.4106 16.4338C32.4106 17.4156 31.6214 18.2116 30.6396 18.2116C25.8443 18.2116 12.2903 18.2116 2.18417 18.2116C1.20235 18.2116 0.410645 17.4156 0.410645 16.4338C0.410645 15.452 1.20657 14.6561 2.18838 14.6561H30.6329C31.6147 14.6561 32.4106 15.452 32.4106 16.4338ZM32.4106 30.6559C32.4106 29.674 31.6147 28.8781 30.6329 28.8781H2.18839C1.20657 28.8781 0.410645 29.674 0.410645 30.6559C0.410645 31.6377 1.20657 32.4336 2.18839 32.4336H30.6329C31.6147 32.4336 32.4106 31.6377 32.4106 30.6559ZM32.4106 2.21133C32.4106 1.22951 31.6147 0.433594 30.6329 0.433594H2.18838C1.20656 0.433594 0.410645 1.22951 0.410645 2.21133C0.410645 3.19315 1.20657 3.98907 2.18838 3.98907H30.6329C31.6147 3.98907 32.4106 3.19315 32.4106 2.21133Z" fill="black"/>
</svg>
