<svg width="649" height="588" viewBox="0 0 649 588" fill="none" xmlns="http://www.w3.org/2000/svg">
<path d="M578.077 285.422H83.3887L297.162 16.7868C301.169 11.724 306.271 7.63597 312.086 4.83033C317.901 2.02468 324.277 0.574518 330.733 0.588974C343.891 0.588974 356.131 6.4926 364.317 16.7733L578.077 285.422ZM132.212 261.888H529.268L345.891 31.4175C344.08 29.1344 341.776 27.2917 339.15 26.0281C336.525 24.7645 333.647 24.1129 330.733 24.1224C324.802 24.1224 319.277 26.7838 315.575 31.4175L132.212 261.888Z" fill="#F9D12B"/>
<path d="M571.62 285.422H76.9043L290.691 16.7867C298.891 6.49249 311.131 0.588867 324.276 0.588867C337.42 0.588867 349.673 6.49249 357.86 16.7732L571.62 285.422ZM125.727 261.888H522.797L339.42 31.4174C335.732 26.7837 330.193 24.1223 324.262 24.1223C318.331 24.1223 312.793 26.7837 309.104 31.4174L125.727 261.888Z" fill="#FFE03C"/>
<path d="M648.488 210.742V537.535C648.484 550.768 643.225 563.458 633.866 572.814C624.508 582.169 611.817 587.425 598.584 587.425H88.3864C75.1535 587.422 62.4637 582.162 53.1078 572.804C43.752 563.446 38.4961 550.754 38.4961 537.521V210.728C38.4997 197.498 43.7571 184.81 53.1126 175.454C62.4681 166.099 75.1558 160.841 88.3864 160.838H598.597C605.151 160.838 611.64 162.129 617.695 164.637C623.749 167.144 629.251 170.82 633.885 175.454C638.519 180.088 642.195 185.59 644.702 191.644C647.21 197.699 648.488 204.188 648.488 210.742Z" fill="#71645E"/>
<path d="M38.4824 391.214H648.487V458.829H38.4824V391.214ZM38.4824 278.532H648.487V348.795H38.4824V278.532ZM648.487 230.803V210.742C648.487 197.506 643.23 184.813 633.871 175.454C624.512 166.096 611.819 160.838 598.584 160.838H88.3863C75.1509 160.838 62.4577 166.096 53.0989 175.454C43.7401 184.813 38.4824 197.506 38.4824 210.742V230.803H648.487ZM38.4824 507.882V537.521C38.4824 550.757 43.7401 563.45 53.0989 572.809C62.4577 582.168 75.1509 587.425 88.3863 587.425H598.584C611.819 587.425 624.512 582.168 633.871 572.809C643.23 563.45 648.487 550.757 648.487 537.521V507.882H38.4824Z" fill="#5E514C"/>
<path d="M610.04 210.742V537.535C610.037 550.768 604.777 563.458 595.419 572.814C586.06 582.169 573.369 587.425 560.136 587.425H49.939C36.7037 587.425 24.0104 582.168 14.6517 572.809C5.29287 563.45 0.0351562 550.757 0.0351562 537.521V210.728C0.0387385 197.495 5.29803 184.805 14.6564 175.45C24.0148 166.094 36.706 160.838 49.939 160.838H560.136C573.372 160.838 586.065 166.096 595.424 175.454C604.782 184.813 610.04 197.506 610.04 210.742Z" fill="#7B6F69"/>
<path d="M555.719 517.338C555.989 517.338 556.192 517.392 556.435 517.406C556.772 515.92 557.016 514.393 557.016 512.799V235.464C557.016 223.535 547.343 213.862 535.414 213.862H81.1863C81.0069 215.412 80.4145 216.886 79.4711 218.129C78.5276 219.371 77.2678 220.338 75.8231 220.928C52.6814 230.627 59.7198 257.944 60.1521 276.857C60.5979 296.527 58.6391 316.129 56.8153 335.69C56.3425 340.689 55.8696 345.674 55.4238 350.632L55.9372 350.713C59.99 351.632 63.3404 356.887 61.7462 360.94C61.449 361.71 61.0843 362.426 60.7601 363.169C62.3087 364.269 63.3733 365.923 63.7321 367.789C69.6358 393.862 64.3671 419.706 60.9627 445.738C62.5838 447.521 63.3539 450.034 62.4082 453.087C56.6802 471.622 57.2341 496.831 64.1374 514.961C72.4187 536.67 93.6285 530.172 112.717 530.051C128.334 529.943 143.884 531.969 159.501 531.739C230.06 530.699 300.553 526.254 371.234 526.065C371.612 526.065 371.95 526.133 372.315 526.173C374.044 525.129 376.087 524.727 378.083 525.039C406.656 529.213 435.998 534.63 464.976 531.429C492.63 528.375 516.582 520.837 544.898 520.756C546.357 520.756 547.546 521.148 548.613 521.675C549.24 520.334 550.249 519.209 551.513 518.44C552.777 517.671 554.24 517.279 555.719 517.338Z" fill="white"/>
<path d="M557.029 235.464V512.813C557.029 514.394 556.772 515.934 556.461 517.42C556.191 517.366 555.975 517.366 555.718 517.366C554.243 517.304 552.782 517.678 551.518 518.442C550.254 519.207 549.243 520.326 548.612 521.662C547.463 521.07 546.19 520.76 544.897 520.757C516.581 520.865 492.616 528.403 464.989 531.429C435.971 534.604 406.655 529.186 378.069 525.052C376.07 524.745 374.026 525.141 372.287 526.174C371.939 526.109 371.587 526.073 371.233 526.066C300.539 526.282 230.06 530.672 159.487 531.74C143.897 531.956 128.307 529.929 112.717 530.037C93.628 530.2 72.4182 536.657 64.1504 514.974C57.2606 496.845 56.6662 471.609 62.3942 453.101C62.8427 451.857 62.9464 450.514 62.6943 449.216C62.4422 447.917 61.8437 446.711 60.9622 445.725C64.3531 419.692 69.6623 393.862 63.7181 367.776C63.3641 365.912 62.298 364.26 60.7461 363.169L61.7593 360.94C63.3534 356.901 60.003 351.659 55.9232 350.7C55.7611 350.646 55.6125 350.646 55.3828 350.646L56.8283 335.691C58.6251 316.129 60.5975 296.513 60.1652 276.83C59.6923 257.957 52.6944 230.641 75.8091 220.942C77.2585 220.363 78.5232 219.401 79.4679 218.159C80.4127 216.917 81.0018 215.441 81.1723 213.89H140.668C122.6 242.487 112.998 275.615 112.974 309.442C112.974 414.653 204.838 499.925 318.209 499.925C431.58 499.925 523.471 414.653 523.471 309.442C523.451 275.617 513.854 242.488 495.79 213.89H535.4C541.13 213.882 546.629 216.151 550.687 220.197C554.746 224.242 557.018 229.734 557.029 235.464Z" fill="#F3F2FD"/>
<path d="M556.625 517.149C555.616 522.026 552.955 526.405 549.09 529.546C545.225 532.687 540.395 534.397 535.415 534.387H74.635C71.8001 534.391 68.9924 533.836 66.3725 532.753C63.7526 531.67 61.3719 530.081 59.3667 528.077C57.3616 526.073 55.7713 523.694 54.6868 521.074C53.6024 518.455 53.0451 515.648 53.0469 512.813V235.464C53.0469 223.535 62.7061 213.89 74.635 213.89H83.281C83.0108 215.322 82.8487 216.754 82.8487 218.24V495.561C82.8594 501.292 85.1452 506.783 89.2035 510.829C93.2618 514.875 98.7605 517.143 104.491 517.136L556.625 517.149Z" fill="#71645E"/>
<path d="M362.966 48.4664C362.966 53.5474 361.965 58.5786 360.021 63.2728C358.076 67.967 355.226 72.2323 351.634 75.8251C348.041 79.4179 343.776 82.2679 339.081 84.2123C334.387 86.1567 329.356 87.1574 324.275 87.1574C319.194 87.1574 314.163 86.1567 309.469 84.2123C304.774 82.2679 300.509 79.4179 296.916 75.8251C293.324 72.2323 290.474 67.967 288.529 63.2728C286.585 58.5786 285.584 53.5474 285.584 48.4664C285.584 38.2049 289.66 28.3637 296.916 21.1077C304.172 13.8518 314.014 9.77539 324.275 9.77539C334.537 9.77539 344.378 13.8518 351.634 21.1077C358.89 28.3637 362.966 38.2049 362.966 48.4664Z" fill="#B33B20"/>
<path d="M356.59 69.7029C352.032 76.6765 345.342 81.99 337.518 84.8513C329.694 87.7125 321.155 87.9682 313.173 85.5802C305.192 83.1922 298.196 78.2884 293.229 71.6C288.262 64.9116 285.59 56.797 285.611 48.4661C285.611 27.7966 301.728 10.9099 322.087 9.8291C309.82 15.2059 301.282 27.1212 301.282 40.9413C301.282 59.8816 317.291 75.2283 337.082 75.2283C344.31 75.2283 351.011 73.1883 356.59 69.7029Z" fill="#A5311E"/>
<g opacity="0.2">
<path d="M428.798 571.849H407.372C405.174 571.849 403.066 570.975 401.511 569.421C399.957 567.867 399.084 565.759 399.084 563.56C399.084 561.362 399.957 559.254 401.511 557.7C403.066 556.146 405.174 555.272 407.372 555.272H428.798C430.996 555.272 433.104 556.146 434.658 557.7C436.213 559.254 437.086 561.362 437.086 563.56C437.086 565.759 436.213 567.867 434.658 569.421C433.104 570.975 430.996 571.849 428.798 571.849ZM521.554 571.849H457.816C455.618 571.849 453.51 570.975 451.956 569.421C450.401 567.867 449.528 565.759 449.528 563.56C449.528 561.362 450.401 559.254 451.956 557.7C453.51 556.146 455.618 555.272 457.816 555.272H521.554C523.752 555.272 525.86 556.146 527.414 557.7C528.969 559.254 529.842 561.362 529.842 563.56C529.842 565.759 528.969 567.867 527.414 569.421C525.86 570.975 523.752 571.849 521.554 571.849Z" fill="white"/>
</g>
<g opacity="0.2">
<path d="M141.344 196.895H119.553C117.317 196.895 115.173 196.007 113.592 194.426C112.011 192.845 111.123 190.701 111.123 188.465C111.123 186.229 112.011 184.085 113.592 182.504C115.173 180.923 117.317 180.035 119.553 180.035H141.357C143.593 180.035 145.737 180.923 147.318 182.504C148.899 184.085 149.787 186.229 149.787 188.465C149.787 190.701 148.899 192.845 147.318 194.426C145.737 196.007 143.593 196.895 141.357 196.895H141.344ZM235.68 196.895H170.862C168.626 196.895 166.482 196.007 164.901 194.426C163.32 192.845 162.432 190.701 162.432 188.465C162.432 186.229 163.32 184.085 164.901 182.504C166.482 180.923 168.626 180.035 170.862 180.035H235.68C237.916 180.035 240.06 180.923 241.641 182.504C243.222 184.085 244.11 186.229 244.11 188.465C244.11 190.701 243.222 192.845 241.641 194.426C240.06 196.007 237.916 196.895 235.68 196.895Z" fill="white"/>
</g>
<path d="M122.39 357.413C121.934 356.97 121.573 356.438 121.329 355.85C121.085 355.263 120.963 354.632 120.971 353.995V308.198C120.971 307.239 121.295 306.402 121.971 305.699C122.285 305.363 122.666 305.097 123.09 304.918C123.513 304.739 123.97 304.65 124.429 304.659C125.402 304.659 126.253 305.01 126.942 305.699C127.279 306.024 127.545 306.415 127.724 306.847C127.903 307.279 127.991 307.744 127.982 308.212V351.834H153.178C154.164 351.834 154.988 352.185 155.69 352.874C156.024 353.198 156.288 353.587 156.467 354.017C156.646 354.446 156.736 354.908 156.731 355.373C156.729 355.836 156.635 356.293 156.455 356.719C156.275 357.145 156.012 357.53 155.681 357.853C155.35 358.176 154.959 358.431 154.529 358.601C154.099 358.771 153.64 358.854 153.178 358.845H125.821C125.181 358.854 124.547 358.731 123.957 358.485C123.367 358.239 122.833 357.874 122.39 357.413ZM167.714 358.224C165.793 357.32 164.176 355.878 163.061 354.071C161.945 352.265 161.379 350.173 161.432 348.051C161.382 346.282 161.767 344.528 162.554 342.943C163.341 341.357 164.505 339.99 165.944 338.959C168.943 336.703 173.347 335.582 179.156 335.582H188.478V334.947C188.478 331.57 187.654 329.124 185.978 327.638C184.303 326.152 181.696 325.396 178.157 325.396C176.198 325.396 174.468 325.544 172.955 325.855C171.245 326.219 169.558 326.683 167.903 327.247C167.577 327.336 167.241 327.386 166.903 327.395C166.53 327.399 166.161 327.326 165.817 327.182C165.473 327.038 165.163 326.826 164.904 326.558C164.628 326.287 164.41 325.963 164.263 325.605C164.117 325.248 164.045 324.864 164.053 324.477C164.053 323.086 164.728 322.113 166.052 321.546C170.429 319.695 174.86 318.763 179.386 318.763C182.939 318.763 185.924 319.492 188.37 320.924C190.801 322.37 192.612 324.234 193.773 326.517C194.922 328.814 195.503 331.286 195.503 333.947V355.765C195.499 356.227 195.404 356.683 195.223 357.108C195.043 357.533 194.779 357.918 194.449 358.241C194.119 358.564 193.728 358.818 193.299 358.989C192.87 359.16 192.411 359.244 191.95 359.237C191.492 359.245 191.038 359.159 190.615 358.985C190.193 358.811 189.81 358.552 189.491 358.224C189.164 357.904 188.905 357.522 188.731 357.099C188.557 356.676 188.471 356.222 188.478 355.765V353.766C184.682 357.67 179.845 359.615 173.996 359.615C171.823 359.634 169.675 359.158 167.714 358.224ZM183.168 351.793C185.276 350.686 187.046 349.321 188.478 347.673V341.188H180.088C172.32 341.188 168.443 343.228 168.443 347.281C168.443 349.132 169.078 350.632 170.335 351.753C171.591 352.888 173.685 353.455 176.616 353.455C178.872 353.455 181.061 352.901 183.168 351.793ZM213.024 357.616C210.949 356.28 209.296 354.383 208.256 352.145C207.13 349.759 206.562 347.149 206.594 344.512V322.626C206.597 322.165 206.692 321.708 206.873 321.283C207.054 320.858 207.317 320.473 207.647 320.151C207.978 319.828 208.368 319.574 208.797 319.403C209.226 319.232 209.685 319.147 210.147 319.155C211.12 319.155 211.93 319.492 212.606 320.154C213.281 320.83 213.605 321.64 213.605 322.626V343.742C213.605 350.01 216.442 353.144 222.089 353.144C224.656 353.144 226.953 352.469 228.979 351.131C231.167 349.651 233.105 347.832 234.72 345.741V322.64C234.724 322.178 234.819 321.722 235 321.297C235.181 320.872 235.444 320.487 235.774 320.164C236.104 319.841 236.495 319.587 236.924 319.416C237.353 319.245 237.812 319.161 238.273 319.168C239.246 319.168 240.07 319.506 240.732 320.168C241.408 320.843 241.745 321.654 241.745 322.64V355.698C241.756 356.395 241.557 357.08 241.175 357.664C240.793 358.248 240.245 358.704 239.601 358.974C238.958 359.244 238.249 359.316 237.564 359.18C236.88 359.044 236.252 358.706 235.761 358.21C235.425 357.884 235.16 357.493 234.981 357.061C234.802 356.629 234.713 356.165 234.72 355.698V352.536C232.775 354.698 230.668 356.414 228.412 357.697C225.952 359.033 223.185 359.699 220.387 359.629C217.55 359.629 215.118 358.94 213.024 357.616ZM254.917 358.224C254.592 357.904 254.335 357.52 254.163 357.098C253.991 356.675 253.908 356.221 253.917 355.765V322.694C253.913 322 254.115 321.321 254.497 320.742C254.879 320.163 255.425 319.711 256.065 319.443C256.705 319.175 257.411 319.104 258.091 319.237C258.772 319.371 259.398 319.705 259.889 320.195C260.224 320.518 260.489 320.907 260.668 321.337C260.847 321.766 260.936 322.228 260.929 322.694V325.855C262.888 323.694 264.982 321.978 267.251 320.695C269.521 319.411 272.182 318.763 275.276 318.763C278.099 318.763 280.544 319.438 282.625 320.776C284.719 322.113 286.313 323.937 287.407 326.247C288.515 328.557 289.069 331.11 289.069 333.866V355.752C289.08 356.214 288.993 356.673 288.814 357.099C288.635 357.525 288.367 357.909 288.029 358.224C287.701 358.551 287.311 358.809 286.881 358.983C286.452 359.157 285.993 359.243 285.529 359.237C285.07 359.248 284.613 359.163 284.188 358.989C283.762 358.814 283.377 358.554 283.057 358.224C282.731 357.904 282.474 357.521 282.302 357.098C282.13 356.675 282.047 356.222 282.058 355.765V334.65C282.058 328.381 279.221 325.247 273.574 325.247C271.007 325.247 268.71 325.923 266.684 327.247C264.657 328.584 262.739 330.381 260.929 332.65V355.752C260.94 356.214 260.853 356.673 260.674 357.099C260.495 357.525 260.227 357.909 259.889 358.224C259.56 358.55 259.17 358.808 258.741 358.982C258.312 359.156 257.852 359.243 257.389 359.237C256.93 359.245 256.474 359.159 256.049 358.985C255.624 358.811 255.239 358.552 254.917 358.224ZM308.793 357.157C305.682 355.531 303.082 353.076 301.281 350.064C299.35 346.772 298.377 343.005 298.471 339.189C298.471 335.028 299.404 331.408 301.281 328.327C303.159 325.247 305.659 322.883 308.793 321.235C311.96 319.58 315.486 318.731 319.06 318.763C321.762 318.763 324.126 319.114 326.098 319.803C328.071 320.505 329.908 321.384 331.61 322.464C332.016 322.7 332.363 323.026 332.624 323.416C332.884 323.807 333.053 324.252 333.115 324.717C333.178 325.182 333.133 325.656 332.985 326.101C332.836 326.547 332.588 326.952 332.259 327.287C332.009 327.583 331.699 327.821 331.35 327.987C331 328.152 330.619 328.241 330.232 328.246C329.635 328.24 329.049 328.082 328.53 327.787C327.134 327.04 325.679 326.407 324.18 325.896C322.964 325.517 321.465 325.315 319.668 325.315C315.237 325.315 311.778 326.585 309.266 329.138C306.739 331.678 305.483 335.028 305.483 339.189C305.483 343.35 306.739 346.7 309.266 349.254C311.778 351.793 315.237 353.063 319.668 353.063C321.465 353.063 322.964 352.874 324.18 352.482C325.382 352.104 326.828 351.469 328.53 350.591C329.045 350.298 329.626 350.14 330.219 350.132C330.609 350.137 330.993 350.227 331.345 350.394C331.697 350.562 332.009 350.805 332.259 351.104C332.588 351.438 332.836 351.842 332.985 352.287C333.133 352.731 333.178 353.204 333.115 353.668C333.052 354.133 332.884 354.576 332.623 354.966C332.362 355.355 332.016 355.679 331.61 355.914C329.908 356.994 328.071 357.886 326.098 358.575C324.126 359.264 321.775 359.615 319.046 359.615C315.345 359.615 311.927 358.805 308.793 357.157ZM342.931 358.224C342.606 357.904 342.349 357.52 342.177 357.098C342.005 356.675 341.922 356.221 341.931 355.765V305.74C341.926 305.279 342.012 304.822 342.183 304.394C342.355 303.967 342.61 303.578 342.932 303.249C343.255 302.92 343.639 302.658 344.063 302.478C344.487 302.298 344.943 302.204 345.403 302.2C346.376 302.2 347.214 302.538 347.903 303.24C348.239 303.563 348.507 303.951 348.688 304.381C348.869 304.811 348.96 305.273 348.956 305.74V325.869C350.902 323.707 353.009 321.978 355.279 320.695C357.535 319.411 360.196 318.763 363.29 318.763C366.113 318.763 368.558 319.438 370.652 320.776C372.733 322.113 374.327 323.937 375.421 326.247C376.529 328.557 377.083 331.11 377.083 333.866V355.752C377.094 356.214 377.007 356.673 376.828 357.099C376.649 357.525 376.381 357.909 376.043 358.224C375.715 358.551 375.325 358.809 374.895 358.983C374.466 359.157 374.007 359.243 373.543 359.237C373.084 359.248 372.627 359.163 372.201 358.989C371.776 358.814 371.391 358.554 371.071 358.224C370.745 357.904 370.488 357.521 370.316 357.098C370.144 356.675 370.061 356.222 370.072 355.765V334.65C370.072 328.381 367.235 325.247 361.588 325.247C359.021 325.247 356.724 325.923 354.698 327.247C352.671 328.584 350.753 330.381 348.956 332.65V355.752C348.966 356.215 348.877 356.675 348.695 357.101C348.514 357.527 348.243 357.91 347.903 358.224C347.574 358.55 347.184 358.808 346.755 358.982C346.326 359.156 345.866 359.243 345.403 359.237C344.944 359.245 344.488 359.159 344.063 358.985C343.638 358.811 343.253 358.552 342.931 358.224ZM389.417 310.373C389.043 310.014 388.747 309.581 388.547 309.103C388.347 308.624 388.248 308.109 388.255 307.59V307.28C388.25 306.763 388.35 306.251 388.549 305.775C388.749 305.298 389.045 304.868 389.417 304.51C389.775 304.138 390.205 303.843 390.681 303.643C391.158 303.443 391.67 303.343 392.186 303.348H392.659C393.176 303.343 393.688 303.443 394.164 303.643C394.641 303.843 395.071 304.138 395.429 304.51C395.801 304.868 396.096 305.298 396.296 305.775C396.496 306.251 396.596 306.763 396.591 307.28V307.59C396.598 308.109 396.499 308.624 396.299 309.103C396.099 309.581 395.803 310.014 395.429 310.373C395.07 310.743 394.639 311.036 394.163 311.234C393.686 311.431 393.175 311.529 392.659 311.522H392.186C391.671 311.529 391.159 311.431 390.683 311.234C390.207 311.036 389.776 310.743 389.417 310.373ZM389.876 358.224C389.551 357.904 389.295 357.52 389.123 357.098C388.951 356.675 388.867 356.221 388.877 355.765V322.694C388.871 322.233 388.957 321.776 389.129 321.349C389.3 320.921 389.555 320.532 389.878 320.203C390.2 319.874 390.584 319.612 391.008 319.432C391.433 319.253 391.888 319.158 392.349 319.155C392.817 319.141 393.283 319.224 393.718 319.397C394.154 319.571 394.549 319.831 394.88 320.162C395.212 320.493 395.472 320.889 395.645 321.324C395.818 321.76 395.901 322.226 395.888 322.694V355.765C395.897 356.225 395.81 356.682 395.63 357.105C395.451 357.529 395.184 357.91 394.848 358.224C394.519 358.55 394.129 358.808 393.7 358.982C393.271 359.156 392.812 359.243 392.349 359.237C391.889 359.245 391.433 359.159 391.008 358.985C390.583 358.811 390.198 358.552 389.876 358.224ZM409.06 358.224C408.737 357.903 408.483 357.519 408.313 357.096C408.144 356.673 408.062 356.22 408.074 355.765V322.694C408.069 322 408.271 321.321 408.653 320.742C409.036 320.163 409.581 319.711 410.221 319.443C410.861 319.175 411.567 319.104 412.247 319.237C412.928 319.371 413.554 319.705 414.045 320.195C414.38 320.518 414.645 320.907 414.824 321.337C415.003 321.766 415.092 322.228 415.085 322.694V325.855C417.03 323.694 419.138 321.978 421.407 320.695C423.663 319.411 426.338 318.763 429.418 318.763C432.242 318.763 434.687 319.438 436.781 320.776C438.862 322.113 440.456 323.937 441.55 326.247C442.658 328.557 443.212 331.11 443.212 333.866V355.752C443.223 356.214 443.136 356.673 442.957 357.099C442.777 357.525 442.51 357.909 442.171 358.224C441.843 358.551 441.453 358.809 441.024 358.983C440.595 359.157 440.135 359.243 439.672 359.237C439.212 359.248 438.756 359.163 438.33 358.989C437.905 358.814 437.52 358.554 437.2 358.224C436.874 357.904 436.617 357.521 436.445 357.098C436.273 356.675 436.19 356.222 436.2 355.765V334.65C436.2 328.381 433.363 325.247 427.716 325.247C425.149 325.247 422.853 325.923 420.826 327.247C418.8 328.584 416.882 330.381 415.085 332.65V355.752C415.096 356.214 415.009 356.673 414.83 357.099C414.651 357.525 414.383 357.909 414.045 358.224C413.715 358.552 413.322 358.811 412.891 358.985C412.459 359.159 411.997 359.244 411.532 359.237C411.073 359.245 410.616 359.159 410.191 358.985C409.766 358.811 409.381 358.552 409.06 358.224ZM464.34 376.191C461.728 375.585 459.21 374.626 456.856 373.341C455.937 372.773 455.465 371.868 455.465 370.639C455.465 369.828 455.775 369.085 456.356 368.437C456.633 368.13 456.973 367.886 457.354 367.723C457.734 367.559 458.145 367.481 458.558 367.491C458.964 367.491 459.423 367.586 459.936 367.788C463.854 369.734 468.082 370.72 472.662 370.72C480.525 370.72 484.456 366.532 484.456 358.156V352.982C480.808 356.9 476.418 358.845 471.271 358.845C468.069 358.834 464.924 357.994 462.143 356.408C459.361 354.822 457.038 352.544 455.397 349.794C453.546 346.781 452.614 343.12 452.614 338.811C452.614 334.501 453.546 330.84 455.397 327.828C457.039 325.076 459.365 322.796 462.149 321.21C464.933 319.624 468.08 318.785 471.284 318.776C476.418 318.776 480.808 320.722 484.456 324.626V322.694C484.456 321.721 484.78 320.884 485.456 320.195C485.771 319.857 486.155 319.59 486.581 319.411C487.007 319.231 487.466 319.144 487.928 319.155C488.887 319.155 489.725 319.506 490.427 320.195C490.762 320.518 491.027 320.907 491.206 321.337C491.385 321.766 491.474 322.228 491.467 322.694V357.143C491.467 363.628 489.9 368.613 486.766 372.098C483.632 375.597 479.16 377.34 473.351 377.34C470.379 377.34 467.366 376.961 464.34 376.191ZM479.133 350.915C480.984 349.875 482.754 348.484 484.456 346.741V330.881C482.894 329.241 481.101 327.839 479.133 326.72C477.167 325.663 474.961 325.132 472.73 325.18C468.88 325.18 465.732 326.342 463.3 328.692C460.868 331.029 459.639 334.407 459.639 338.824C459.639 343.242 460.855 346.619 463.287 348.956C465.732 351.293 468.88 352.469 472.743 352.469C474.97 352.514 477.171 351.983 479.133 350.929V350.915ZM217.536 448.413C216.91 448.149 216.374 447.708 215.996 447.143C215.601 446.592 215.388 445.93 215.388 445.252C215.375 444.41 215.69 443.596 216.267 442.982C216.552 442.665 216.903 442.414 217.295 442.246C217.686 442.078 218.11 441.998 218.536 442.009C219.05 442.009 219.549 442.117 220.009 442.32C224.737 444.428 229.803 445.481 235.193 445.481C244.177 445.481 248.676 442.523 248.676 436.619C248.691 435.887 248.545 435.161 248.246 434.493C247.946 433.825 247.503 433.231 246.947 432.755C245.691 431.673 244.237 430.847 242.664 430.324C240.277 429.534 237.861 428.831 235.423 428.216C232.003 427.369 228.633 426.327 225.331 425.095C222.803 424.122 220.533 422.578 218.698 420.583C216.848 418.584 215.929 415.909 215.929 412.572C215.929 409.641 216.699 406.979 218.225 404.602C219.915 402.086 222.286 400.104 225.061 398.887C228.06 397.469 231.681 396.766 235.882 396.766C241.529 396.766 246.649 397.617 251.229 399.306C252.661 399.819 253.391 400.86 253.391 402.386C253.391 403.213 253.088 404.01 252.539 404.629C252.266 404.955 251.922 405.215 251.534 405.388C251.145 405.561 250.722 405.643 250.297 405.628C249.871 405.601 249.455 405.496 249.068 405.318C245.075 403.934 240.878 403.23 236.652 403.237C232.6 403.237 229.303 404.007 226.75 405.547C225.58 406.173 224.605 407.11 223.933 408.254C223.261 409.398 222.918 410.705 222.94 412.032C222.909 412.867 223.054 413.699 223.366 414.474C223.678 415.249 224.15 415.95 224.751 416.531C225.966 417.692 227.466 418.597 229.303 419.232C231.113 419.881 233.599 420.556 236.733 421.272C240.786 422.259 244.069 423.231 246.555 424.204C249.054 425.19 251.175 426.703 252.958 428.757C254.728 430.81 255.62 433.579 255.62 437.078C255.62 439.956 254.796 442.536 253.147 444.819C251.513 447.116 249.189 448.899 246.217 450.183C243.245 451.466 239.787 452.114 235.882 452.114C229.577 452.16 223.331 450.9 217.536 448.413ZM271.952 449.561C268.98 447.872 266.684 445.468 265.063 442.361C263.442 439.253 262.631 435.687 262.631 431.688C262.631 427.689 263.442 424.123 265.063 421.016C266.684 417.908 268.98 415.49 271.952 413.802C274.925 412.099 278.41 411.262 282.355 411.262C286.272 411.262 289.704 412.099 292.689 413.802C295.662 415.49 297.985 417.895 299.62 421.002C301.268 424.109 302.092 427.676 302.092 431.675C302.092 435.673 301.268 439.24 299.62 442.347C297.972 445.454 295.662 447.872 292.689 449.561C289.533 451.304 285.973 452.184 282.368 452.114C278.41 452.114 274.925 451.263 271.952 449.561ZM288.407 444.252C290.414 443.199 292.074 441.59 293.189 439.618C294.535 437.169 295.189 434.4 295.081 431.607C295.081 428.419 294.446 425.771 293.189 423.664C292.079 421.697 290.416 420.1 288.407 419.07C286.517 418.128 284.433 417.638 282.321 417.638C280.209 417.638 278.125 418.128 276.235 419.07C274.232 420.094 272.58 421.694 271.493 423.664C270.178 426.099 269.539 428.841 269.642 431.607C269.642 434.849 270.25 437.511 271.493 439.618C272.723 441.726 274.303 443.266 276.221 444.252C278.107 445.217 280.196 445.72 282.314 445.72C284.433 445.72 286.521 445.217 288.407 444.252ZM318.817 449.561C315.831 447.872 313.548 445.468 311.927 442.361C310.306 439.253 309.495 435.687 309.495 431.688C309.495 427.689 310.306 424.123 311.927 421.016C313.548 417.908 315.831 415.49 318.817 413.802C321.789 412.099 325.261 411.262 329.219 411.262C333.137 411.262 336.568 412.099 339.554 413.802C342.526 415.49 344.836 417.895 346.484 421.002C348.132 424.109 348.956 427.676 348.956 431.675C348.956 435.673 348.132 439.24 346.484 442.347C344.836 445.454 342.526 447.872 339.554 449.561C336.393 451.306 332.828 452.187 329.219 452.114C325.261 452.114 321.789 451.263 318.817 449.561ZM335.271 444.252C337.278 443.199 338.938 441.59 340.054 439.618C341.399 437.169 342.053 434.4 341.945 431.607C341.945 428.419 341.31 425.771 340.054 423.664C338.943 421.697 337.28 420.1 335.271 419.07C333.381 418.128 331.297 417.638 329.185 417.638C327.073 417.638 324.99 418.128 323.099 419.07C321.096 420.094 319.445 421.694 318.357 423.664C317.042 426.099 316.403 428.841 316.507 431.607C316.507 434.849 317.115 437.511 318.357 439.618C319.587 441.726 321.167 443.266 323.086 444.252C324.972 445.217 327.06 445.72 329.178 445.72C331.297 445.72 333.385 445.217 335.271 444.252ZM359.737 450.709C359.411 450.389 359.155 450.006 358.983 449.583C358.811 449.16 358.727 448.707 358.737 448.251V415.193C358.73 414.498 358.93 413.817 359.311 413.236C359.692 412.655 360.238 412.201 360.879 411.931C361.519 411.662 362.226 411.589 362.908 411.722C363.59 411.856 364.216 412.189 364.708 412.68C365.045 413.005 365.311 413.396 365.49 413.828C365.669 414.261 365.757 414.725 365.748 415.193V418.341C367.707 416.179 369.801 414.464 372.071 413.18C374.34 411.897 377.002 411.262 380.095 411.262C382.919 411.262 385.364 411.937 387.445 413.261C389.539 414.599 391.119 416.422 392.227 418.733C393.335 421.043 393.889 423.596 393.889 426.365V448.251C393.9 448.713 393.813 449.172 393.634 449.598C393.454 450.025 393.187 450.408 392.848 450.723C392.518 451.049 392.125 451.306 391.693 451.477C391.262 451.649 390.8 451.733 390.336 451.723C389.879 451.733 389.426 451.65 389.003 451.478C388.58 451.306 388.197 451.049 387.877 450.723C387.549 450.402 387.291 450.016 387.119 449.591C386.947 449.166 386.865 448.709 386.877 448.251V427.135C386.877 420.867 384.04 417.733 378.393 417.733C375.827 417.733 373.53 418.408 371.503 419.732C369.477 421.083 367.559 422.866 365.748 425.136V448.251C365.76 448.713 365.673 449.172 365.494 449.598C365.314 450.025 365.047 450.408 364.708 450.723C364.379 451.047 363.988 451.302 363.559 451.474C363.13 451.645 362.671 451.73 362.209 451.723C361.751 451.732 361.295 451.649 360.87 451.477C360.445 451.305 360.059 451.049 359.737 450.723V450.709Z" fill="#F3F2FD"/>
<path d="M122.39 353.401C121.932 352.956 121.57 352.422 121.326 351.832C121.082 351.242 120.962 350.608 120.971 349.97V304.186C120.971 303.214 121.295 302.376 121.971 301.687C122.285 301.351 122.666 301.085 123.09 300.906C123.513 300.727 123.97 300.639 124.43 300.647C125.402 300.647 126.253 300.985 126.942 301.687C127.278 302.011 127.543 302.399 127.722 302.829C127.901 303.259 127.989 303.721 127.983 304.186V347.822H153.178C154.164 347.822 154.988 348.16 155.69 348.849C156.026 349.175 156.291 349.566 156.47 349.998C156.649 350.43 156.738 350.894 156.731 351.361C156.729 351.824 156.635 352.281 156.455 352.707C156.275 353.133 156.012 353.518 155.681 353.841C155.351 354.165 154.959 354.419 154.529 354.589C154.099 354.759 153.64 354.842 153.178 354.833H125.821C125.182 354.842 124.547 354.72 123.957 354.473C123.367 354.227 122.833 353.862 122.39 353.401ZM167.714 354.212C165.793 353.308 164.176 351.866 163.061 350.059C161.945 348.253 161.38 346.162 161.432 344.039C161.38 342.268 161.764 340.511 162.551 338.923C163.338 337.335 164.503 335.965 165.944 334.934C168.943 332.678 173.347 331.557 179.156 331.557H188.478V330.935C188.478 327.544 187.654 325.099 185.979 323.613C184.317 322.127 181.696 321.37 178.157 321.37C176.198 321.37 174.469 321.533 172.956 321.83C171.245 322.193 169.558 322.658 167.903 323.221C167.577 323.315 167.242 323.37 166.903 323.383C166.53 323.385 166.16 323.311 165.816 323.164C165.472 323.018 165.162 322.803 164.904 322.532C164.628 322.262 164.41 321.938 164.264 321.58C164.117 321.222 164.045 320.838 164.053 320.452C164.053 319.06 164.728 318.088 166.052 317.52C170.429 315.67 174.86 314.751 179.386 314.751C182.939 314.751 185.925 315.467 188.37 316.912C190.802 318.344 192.612 320.209 193.774 322.492C194.922 324.788 195.503 327.261 195.503 329.922V351.74C195.499 352.202 195.404 352.658 195.224 353.083C195.043 353.508 194.78 353.893 194.449 354.216C194.119 354.538 193.728 354.793 193.299 354.964C192.87 355.134 192.412 355.219 191.95 355.212C191.493 355.221 191.04 355.138 190.617 354.966C190.194 354.794 189.811 354.537 189.491 354.212C189.162 353.891 188.903 353.506 188.729 353.081C188.554 352.656 188.469 352.199 188.478 351.74V349.74C184.682 353.645 179.845 355.59 173.996 355.59C171.824 355.613 169.676 355.142 167.714 354.212ZM183.169 347.768C185.276 346.674 187.046 345.296 188.478 343.648V337.163H180.089C172.321 337.163 168.443 339.203 168.443 343.269C168.443 345.107 169.078 346.606 170.335 347.727C171.591 348.862 173.685 349.43 176.617 349.43C178.873 349.43 181.061 348.889 183.169 347.768ZM213.025 353.59C210.95 352.254 209.296 350.357 208.256 348.119C207.13 345.734 206.562 343.124 206.594 340.486V318.601C206.598 318.139 206.692 317.683 206.873 317.258C207.054 316.833 207.317 316.448 207.647 316.125C207.978 315.802 208.369 315.548 208.798 315.377C209.227 315.206 209.685 315.122 210.147 315.129C211.12 315.129 211.93 315.467 212.606 316.129C213.281 316.804 213.605 317.615 213.605 318.601V339.716C213.605 345.985 216.442 349.119 222.089 349.119C224.656 349.119 226.953 348.443 228.979 347.119C231.168 345.635 233.107 343.811 234.721 341.716V318.601C234.724 318.139 234.819 317.683 235 317.258C235.181 316.833 235.444 316.448 235.774 316.125C236.104 315.802 236.495 315.548 236.924 315.377C237.353 315.206 237.812 315.122 238.274 315.129C239.246 315.129 240.07 315.467 240.732 316.129C241.408 316.804 241.746 317.615 241.746 318.601V351.659C241.756 352.356 241.557 353.041 241.175 353.625C240.793 354.209 240.245 354.665 239.602 354.935C238.958 355.206 238.249 355.277 237.564 355.141C236.88 355.005 236.252 354.667 235.761 354.171C235.425 353.846 235.16 353.455 234.981 353.022C234.802 352.59 234.714 352.126 234.721 351.659V348.511C232.775 350.672 230.668 352.388 228.412 353.672C225.951 355.003 223.184 355.664 220.387 355.59C217.55 355.59 215.119 354.928 213.025 353.59ZM254.917 354.212C254.59 353.89 254.333 353.505 254.161 353.08C253.989 352.654 253.906 352.198 253.918 351.74V318.682C253.91 317.987 254.11 317.306 254.491 316.725C254.873 316.144 255.419 315.69 256.059 315.42C256.7 315.151 257.406 315.078 258.088 315.211C258.77 315.345 259.397 315.678 259.889 316.169C260.226 316.494 260.492 316.885 260.671 317.317C260.85 317.75 260.938 318.214 260.929 318.682V321.83C262.888 319.668 264.982 317.953 267.251 316.669C269.521 315.386 272.182 314.751 275.276 314.751C278.099 314.751 280.545 315.426 282.625 316.75C284.719 318.088 286.313 319.911 287.407 322.222C288.515 324.532 289.069 327.085 289.069 329.854V351.74C289.08 352.202 288.994 352.661 288.814 353.087C288.635 353.514 288.367 353.897 288.029 354.212C287.7 354.537 287.309 354.792 286.88 354.964C286.451 355.136 285.992 355.22 285.53 355.212C285.071 355.224 284.615 355.141 284.189 354.969C283.764 354.797 283.379 354.54 283.057 354.212C282.73 353.891 282.472 353.505 282.3 353.08C282.128 352.655 282.045 352.198 282.058 351.74V330.624C282.058 324.356 279.221 321.222 273.574 321.222C271.007 321.222 268.71 321.897 266.684 323.221C264.658 324.572 262.739 326.355 260.929 328.625V351.74C260.94 352.202 260.853 352.661 260.674 353.087C260.495 353.514 260.227 353.897 259.889 354.212C259.559 354.536 259.169 354.791 258.74 354.963C258.311 355.134 257.852 355.219 257.39 355.212C256.931 355.222 256.476 355.138 256.051 354.966C255.626 354.794 255.24 354.538 254.917 354.212ZM308.793 353.131C305.682 351.506 303.083 349.051 301.282 346.039C299.353 342.75 298.38 338.989 298.472 335.177C298.472 331.003 299.404 327.382 301.282 324.302C303.159 321.222 305.659 318.858 308.793 317.21C311.961 315.559 315.488 314.715 319.06 314.751C321.762 314.751 324.126 315.089 326.098 315.791C328.071 316.467 329.908 317.372 331.61 318.439C332.016 318.675 332.363 319 332.624 319.391C332.885 319.781 333.053 320.226 333.115 320.692C333.178 321.157 333.133 321.631 332.985 322.076C332.836 322.521 332.588 322.927 332.259 323.262C332.009 323.557 331.699 323.796 331.35 323.962C331 324.127 330.619 324.215 330.232 324.221C329.635 324.215 329.049 324.057 328.53 323.762C327.134 323.015 325.679 322.382 324.18 321.87C322.964 321.492 321.465 321.289 319.668 321.289C315.237 321.289 311.779 322.573 309.266 325.113C306.739 327.652 305.483 331.003 305.483 335.177C305.483 339.338 306.739 342.688 309.266 345.228C311.779 347.768 315.237 349.051 319.668 349.051C321.465 349.051 322.964 348.849 324.18 348.47C325.382 348.079 326.828 347.457 328.53 346.579C329.045 346.286 329.626 346.128 330.219 346.12C330.989 346.12 331.678 346.431 332.259 347.079C332.84 347.727 333.15 348.43 333.15 349.2C333.15 350.335 332.637 351.226 331.61 351.902C329.908 352.983 328.071 353.861 326.098 354.55C323.823 355.289 321.439 355.641 319.047 355.59C315.345 355.59 311.927 354.779 308.793 353.131ZM342.931 354.212C342.604 353.89 342.347 353.505 342.175 353.08C342.003 352.654 341.92 352.198 341.932 351.74V301.714C341.926 301.254 342.012 300.796 342.184 300.369C342.355 299.942 342.61 299.552 342.932 299.223C343.255 298.895 343.639 298.633 344.063 298.453C344.487 298.273 344.943 298.178 345.403 298.175C346.376 298.175 347.214 298.526 347.903 299.215C348.24 299.538 348.507 299.926 348.688 300.356C348.869 300.785 348.961 301.248 348.956 301.714V321.843C350.902 319.682 353.009 317.953 355.279 316.669C357.535 315.386 360.196 314.751 363.29 314.751C366.113 314.751 368.559 315.426 370.653 316.75C372.733 318.088 374.327 319.911 375.421 322.222C376.529 324.532 377.083 327.085 377.083 329.854V351.74C377.094 352.202 377.008 352.661 376.828 353.087C376.649 353.514 376.381 353.897 376.043 354.212C375.714 354.537 375.323 354.792 374.894 354.964C374.465 355.136 374.006 355.22 373.544 355.212C373.085 355.224 372.629 355.141 372.203 354.969C371.778 354.797 371.393 354.54 371.071 354.212C370.744 353.891 370.486 353.505 370.314 353.08C370.142 352.655 370.059 352.198 370.072 351.74V330.624C370.072 324.356 367.235 321.222 361.588 321.222C359.021 321.222 356.724 321.897 354.698 323.221C352.672 324.572 350.753 326.355 348.956 328.625V351.74C348.966 352.203 348.877 352.663 348.695 353.089C348.514 353.515 348.244 353.898 347.903 354.212C347.573 354.536 347.183 354.791 346.754 354.963C346.324 355.134 345.866 355.219 345.403 355.212C344.945 355.222 344.49 355.138 344.065 354.966C343.639 354.794 343.254 354.538 342.931 354.212ZM389.417 306.348C389.043 305.989 388.747 305.556 388.547 305.077C388.347 304.599 388.248 304.084 388.255 303.565V303.268C388.248 302.749 388.347 302.234 388.547 301.756C388.747 301.277 389.043 300.844 389.417 300.485C389.776 300.115 390.207 299.822 390.683 299.625C391.16 299.427 391.671 299.329 392.187 299.337H392.659C393.175 299.329 393.687 299.427 394.163 299.625C394.639 299.822 395.07 300.115 395.429 300.485C395.803 300.844 396.099 301.277 396.299 301.756C396.499 302.234 396.598 302.749 396.591 303.268V303.565C396.598 304.084 396.499 304.599 396.299 305.077C396.099 305.556 395.803 305.989 395.429 306.348C395.07 306.718 394.639 307.011 394.163 307.208C393.687 307.406 393.175 307.504 392.659 307.496H392.187C391.671 307.504 391.16 307.406 390.683 307.208C390.207 307.011 389.776 306.718 389.417 306.348ZM389.877 354.212C389.55 353.89 389.292 353.505 389.12 353.08C388.948 352.654 388.865 352.198 388.877 351.74V318.682C388.87 318.22 388.954 317.762 389.125 317.333C389.296 316.904 389.55 316.513 389.873 316.183C390.196 315.852 390.581 315.589 391.006 315.408C391.43 315.228 391.887 315.133 392.349 315.129C392.818 315.116 393.286 315.199 393.722 315.373C394.158 315.547 394.554 315.809 394.886 316.141C395.217 316.474 395.477 316.871 395.649 317.308C395.822 317.745 395.903 318.213 395.888 318.682V351.74C395.9 352.202 395.813 352.661 395.633 353.087C395.454 353.514 395.186 353.897 394.848 354.212C394.519 354.536 394.128 354.791 393.699 354.963C393.27 355.134 392.811 355.219 392.349 355.212C391.89 355.222 391.435 355.138 391.01 354.966C390.585 354.794 390.199 354.538 389.877 354.212ZM409.06 354.212C408.735 353.889 408.48 353.503 408.311 353.078C408.141 352.653 408.06 352.197 408.074 351.74V318.682C408.066 317.987 408.266 317.306 408.648 316.725C409.029 316.144 409.575 315.69 410.215 315.42C410.856 315.151 411.562 315.078 412.244 315.211C412.926 315.345 413.553 315.678 414.045 316.169C414.382 316.494 414.648 316.885 414.827 317.317C415.006 317.75 415.094 318.214 415.085 318.682V321.83C417.031 319.668 419.138 317.953 421.408 316.669C423.664 315.386 426.339 314.751 429.419 314.751C432.242 314.751 434.687 315.426 436.781 316.75C438.862 318.088 440.456 319.911 441.55 322.222C442.658 324.532 443.212 327.085 443.212 329.854V351.74C443.223 352.202 443.136 352.661 442.957 353.087C442.778 353.514 442.51 353.897 442.172 354.212C441.842 354.537 441.452 354.792 441.023 354.964C440.594 355.136 440.134 355.22 439.672 355.212C439.214 355.224 438.757 355.141 438.332 354.969C437.907 354.797 437.521 354.54 437.2 354.212C436.872 353.891 436.615 353.505 436.443 353.08C436.271 352.655 436.188 352.198 436.2 351.74V330.624C436.2 324.356 433.363 321.222 427.716 321.222C425.15 321.222 422.853 321.897 420.827 323.221C418.8 324.572 416.882 326.355 415.085 328.625V351.74C415.096 352.202 415.01 352.661 414.83 353.087C414.651 353.514 414.383 353.897 414.045 354.212C413.714 354.538 413.321 354.794 412.889 354.965C412.458 355.137 411.996 355.221 411.532 355.212C411.074 355.222 410.618 355.138 410.193 354.966C409.768 354.794 409.383 354.538 409.06 354.212ZM464.341 372.166C461.728 371.56 459.21 370.601 456.856 369.315C455.938 368.748 455.465 367.856 455.465 366.614C455.465 365.803 455.776 365.06 456.356 364.425C456.631 364.113 456.97 363.864 457.35 363.696C457.731 363.528 458.143 363.445 458.559 363.452C458.964 363.452 459.423 363.56 459.936 363.763C463.854 365.722 468.083 366.695 472.662 366.695C480.525 366.695 484.456 362.507 484.456 354.131V348.97C480.809 352.875 476.418 354.82 471.271 354.82C468.069 354.808 464.925 353.969 462.143 352.383C459.362 350.797 457.038 348.518 455.397 345.769C453.547 342.769 452.614 339.095 452.614 334.785C452.614 330.462 453.547 326.815 455.397 323.802C457.039 321.051 459.365 318.771 462.149 317.185C464.933 315.599 468.08 314.76 471.284 314.751C476.418 314.751 480.809 316.696 484.456 320.6V318.682C484.456 317.696 484.78 316.858 485.456 316.169C485.771 315.832 486.155 315.565 486.581 315.385C487.007 315.206 487.466 315.119 487.928 315.129C488.887 315.129 489.725 315.48 490.427 316.169C490.764 316.494 491.03 316.885 491.209 317.317C491.388 317.75 491.476 318.214 491.467 318.682V353.131C491.467 359.616 489.9 364.587 486.766 368.086C483.632 371.572 479.16 373.328 473.351 373.328C470.379 373.328 467.367 372.936 464.341 372.166ZM479.133 346.89C480.984 345.863 482.754 344.472 484.456 342.729V326.828C482.895 325.189 481.101 323.787 479.133 322.667C477.167 321.61 474.962 321.08 472.73 321.127C468.88 321.127 465.732 322.303 463.3 324.64C460.869 326.977 459.639 330.354 459.639 334.772C459.639 339.189 460.855 342.567 463.287 344.904C465.732 347.241 468.88 348.416 472.743 348.416C474.97 348.461 477.171 347.931 479.133 346.876V346.89ZM217.537 444.387C216.91 444.124 216.375 443.682 215.997 443.118C215.601 442.566 215.388 441.905 215.389 441.226C215.376 440.384 215.691 439.57 216.267 438.957C216.552 438.64 216.903 438.389 217.295 438.221C217.687 438.053 218.11 437.972 218.536 437.984C219.05 437.984 219.55 438.092 220.009 438.295C224.737 440.402 229.803 441.456 235.194 441.456C244.177 441.456 248.676 438.497 248.676 432.594C248.69 431.864 248.542 431.141 248.243 430.475C247.944 429.809 247.501 429.218 246.947 428.743C245.692 427.661 244.237 426.835 242.664 426.312C240.277 425.517 237.862 424.81 235.423 424.191C232.003 423.348 228.634 422.31 225.332 421.084C222.802 420.106 220.532 418.557 218.699 416.558C216.848 414.559 215.929 411.884 215.929 408.547C215.929 405.615 216.699 402.954 218.226 400.576C219.915 398.06 222.286 396.078 225.061 394.862C228.061 393.457 231.681 392.741 235.882 392.741C241.529 392.741 246.65 393.592 251.229 395.294C252.661 395.808 253.391 396.834 253.391 398.374C253.388 399.196 253.085 399.989 252.54 400.603C252.267 400.93 251.923 401.189 251.534 401.362C251.145 401.536 250.722 401.618 250.297 401.603C249.873 401.58 249.456 401.479 249.068 401.306C245.075 399.922 240.878 399.219 236.653 399.225C232.6 399.225 229.303 399.995 226.75 401.522C225.58 402.148 224.606 403.084 223.933 404.229C223.261 405.373 222.918 406.68 222.94 408.007C222.907 408.844 223.051 409.679 223.363 410.456C223.675 411.234 224.148 411.937 224.751 412.519C225.967 413.667 227.466 414.572 229.303 415.221C231.114 415.855 233.599 416.531 236.734 417.247C240.786 418.233 244.069 419.206 246.555 420.179C249.054 421.165 251.175 422.678 252.958 424.731C254.728 426.785 255.62 429.568 255.62 433.053C255.62 435.93 254.796 438.511 253.148 440.807C251.513 443.091 249.189 444.874 246.217 446.157C243.245 447.441 239.787 448.089 235.882 448.089C229.577 448.135 223.331 446.875 217.537 444.387ZM271.953 445.549C268.981 443.847 266.684 441.442 265.063 438.335C263.442 435.228 262.631 431.675 262.631 427.663C262.631 423.65 263.442 420.097 265.063 416.99C266.684 413.883 268.981 411.478 271.953 409.776C274.925 408.088 278.41 407.236 282.355 407.236C286.273 407.236 289.704 408.088 292.69 409.776C295.662 411.478 297.985 413.883 299.62 416.99C301.268 420.097 302.092 423.65 302.092 427.663C302.092 431.675 301.268 435.228 299.62 438.335C297.972 441.442 295.662 443.847 292.69 445.549C289.532 447.287 285.972 448.163 282.368 448.089C278.41 448.089 274.925 447.238 271.953 445.549ZM288.407 440.227C290.414 439.174 292.074 437.565 293.19 435.593C294.535 433.143 295.189 430.374 295.081 427.582C295.081 424.393 294.446 421.746 293.19 419.638C292.077 417.677 290.415 416.085 288.407 415.058C286.517 414.116 284.433 413.626 282.321 413.626C280.209 413.626 278.126 414.116 276.235 415.058C274.232 416.082 272.581 417.682 271.493 419.652C270.18 422.083 269.541 424.821 269.643 427.582C269.643 430.824 270.251 433.499 271.493 435.593C272.723 437.7 274.303 439.24 276.222 440.227C278.108 441.192 280.196 441.695 282.314 441.695C284.433 441.695 286.521 441.192 288.407 440.227ZM318.817 445.549C315.831 443.847 313.548 441.442 311.927 438.335C310.306 435.228 309.495 431.675 309.495 427.663C309.495 423.65 310.306 420.097 311.927 416.99C313.548 413.883 315.831 411.478 318.817 409.776C321.789 408.088 325.261 407.236 329.219 407.236C333.137 407.236 336.568 408.088 339.554 409.776C342.526 411.478 344.836 413.883 346.484 416.99C348.132 420.097 348.956 423.65 348.956 427.663C348.956 431.675 348.132 435.228 346.484 438.335C344.836 441.442 342.526 443.847 339.554 445.549C336.392 447.289 332.827 448.165 329.219 448.089C325.261 448.089 321.789 447.238 318.817 445.549ZM335.271 440.227C337.278 439.174 338.938 437.565 340.054 435.593C341.399 433.143 342.053 430.374 341.945 427.582C341.945 424.393 341.31 421.746 340.054 419.638C338.941 417.677 337.279 416.085 335.271 415.058C333.381 414.116 331.298 413.626 329.185 413.626C327.073 413.626 324.99 414.116 323.099 415.058C321.096 416.082 319.445 417.682 318.358 419.652C317.045 422.083 316.406 424.821 316.507 427.582C316.507 430.824 317.115 433.499 318.358 435.593C319.587 437.7 321.168 439.24 323.086 440.227C324.972 441.192 327.06 441.695 329.179 441.695C331.297 441.695 333.385 441.192 335.271 440.227ZM359.737 446.698C359.412 446.377 359.155 445.994 358.983 445.571C358.811 445.149 358.728 444.695 358.737 444.239V411.168C358.73 410.473 358.93 409.791 359.311 409.21C359.693 408.63 360.238 408.175 360.879 407.906C361.519 407.636 362.226 407.563 362.908 407.697C363.59 407.83 364.217 408.164 364.708 408.655C365.045 408.98 365.311 409.371 365.49 409.803C365.669 410.235 365.757 410.7 365.749 411.168V414.329C367.708 412.167 369.802 410.452 372.071 409.168C374.341 407.885 377.002 407.236 380.096 407.236C382.919 407.236 385.364 407.912 387.445 409.236C389.539 410.587 391.119 412.397 392.227 414.707C393.335 417.031 393.889 419.571 393.889 422.34V444.225C393.9 444.688 393.813 445.147 393.634 445.573C393.455 445.999 393.187 446.382 392.849 446.698C392.518 447.024 392.125 447.28 391.694 447.452C391.262 447.624 390.8 447.707 390.336 447.697C389.879 447.708 389.426 447.624 389.003 447.452C388.58 447.28 388.197 447.024 387.877 446.698C387.551 446.378 387.294 445.995 387.122 445.572C386.95 445.149 386.867 444.695 386.877 444.239V423.11C386.877 416.842 384.04 413.707 378.394 413.707C375.827 413.707 373.53 414.383 371.504 415.72C369.477 417.044 367.559 418.841 365.749 421.111V444.239C365.758 444.699 365.67 445.156 365.491 445.579C365.312 446.003 365.045 446.384 364.708 446.698C364.379 447.022 363.988 447.277 363.559 447.448C363.13 447.62 362.671 447.705 362.209 447.697C361.751 447.707 361.295 447.624 360.87 447.452C360.445 447.28 360.06 447.023 359.737 446.698Z" fill="#FF3654"/>
</svg>
