<svg width="33" height="33" viewBox="0 0 33 33" fill="none" xmlns="http://www.w3.org/2000/svg">
<path d="M27.8606 5.11984C24.8386 2.09797 20.8206 0.433594 16.5469 0.433594C12.2732 0.433594 8.25513 2.09791 5.23313 5.11984C2.21125 8.14184 0.546875 12.1599 0.546875 16.4336C0.546875 20.7073 2.21119 24.7253 5.23313 27.7473C8.25513 30.7692 12.2732 32.4336 16.5469 32.4336C20.8206 32.4336 24.8386 30.7693 27.8606 27.7473C30.8825 24.7253 32.5469 20.7073 32.5469 16.4336C32.5469 12.1599 30.8826 8.14184 27.8606 5.11984ZM7.49094 27.2647C8.01931 22.7187 11.9277 19.209 16.5469 19.209C18.9819 19.209 21.2717 20.1577 22.9941 21.8799C24.4492 23.3352 25.3669 25.2353 25.603 27.2644C23.1494 29.3193 19.9902 30.5586 16.5469 30.5586C13.1035 30.5586 9.94456 29.3196 7.49094 27.2647ZM16.5469 17.2778C13.8674 17.2778 11.6873 15.0977 11.6873 12.4182C11.6873 9.73853 13.8675 7.55859 16.5469 7.55859C19.2262 7.55859 21.4065 9.73853 21.4065 12.4182C21.4065 15.0977 19.2263 17.2778 16.5469 17.2778V17.2778ZM27.2168 25.6795C26.7351 23.7394 25.7335 21.9675 24.3198 20.5542C23.1675 19.4018 21.8042 18.5373 20.3174 17.9956C22.1047 16.7835 23.2815 14.7356 23.2815 12.4182C23.2815 8.70484 20.2603 5.68359 16.5469 5.68359C12.8335 5.68359 9.81225 8.70484 9.81225 12.4182C9.81225 14.7368 10.99 16.7854 12.7788 17.9973C11.4109 18.4958 10.1451 19.2666 9.05594 20.2812C7.47875 21.75 6.38356 23.6228 5.87575 25.678C3.72513 23.1987 2.42188 19.9656 2.42188 16.4336C2.42188 8.64503 8.75831 2.30859 16.5469 2.30859C24.3354 2.30859 30.6719 8.64503 30.6719 16.4336C30.6719 19.9663 29.3681 23.2002 27.2168 25.6795Z" fill="#050B20"/>
</svg>
