<svg width="117" height="18" viewBox="0 0 117 18" fill="none" xmlns="http://www.w3.org/2000/svg">
<g clip-path="url(#clip0_1_3767)">
<path d="M17.6562 7.41299L11.4792 7.00688L9.15286 1.1626L6.82655 7.00688L0.65625 7.41299L5.38882 11.4314L3.83585 17.5272L9.15286 14.1663L14.4699 17.5272L12.9169 11.4314L17.6562 7.41299Z" fill="#FFD600"/>
</g>
<g clip-path="url(#clip1_1_3767)">
<path d="M41.6562 7.41299L35.8425 7.00688L33.6531 1.1626L31.4636 7.00688L25.6562 7.41299L30.1104 11.4314L28.6488 17.5272L33.6531 14.1663L38.6573 17.5272L37.1957 11.4314L41.6562 7.41299Z" fill="#FFD600"/>
</g>
<g clip-path="url(#clip2_1_3767)">
<path d="M66.6562 7.41299L60.4792 7.00688L58.1529 1.1626L55.8266 7.00688L49.6562 7.41299L54.3888 11.4314L52.8358 17.5272L58.1529 14.1663L63.4699 17.5272L61.9169 11.4314L66.6562 7.41299Z" fill="#FFD600"/>
</g>
<g clip-path="url(#clip3_1_3767)">
<path d="M91.6562 7.41299L85.4792 7.00688L83.1529 1.1626L80.8266 7.00688L74.6562 7.41299L79.3888 11.4314L77.8358 17.5272L83.1529 14.1663L88.4699 17.5272L86.9169 11.4314L91.6562 7.41299Z" fill="#FFD600"/>
</g>
<g clip-path="url(#clip4_1_3767)">
<path d="M116.656 7.41299L110.479 7.00688L108.153 1.1626L105.827 7.00688L99.6562 7.41299L104.389 11.4314L102.836 17.5272L108.153 14.1663L113.47 17.5272L111.917 11.4314L116.656 7.41299Z" fill="#FFD600"/>
</g>
<defs>
<clipPath id="clip0_1_3767">
<rect width="17" height="17" fill="white" transform="translate(0.65625 0.844727)"/>
</clipPath>
<clipPath id="clip1_1_3767">
<rect width="16" height="17" fill="white" transform="translate(25.6562 0.844727)"/>
</clipPath>
<clipPath id="clip2_1_3767">
<rect width="17" height="17" fill="white" transform="translate(49.6562 0.844727)"/>
</clipPath>
<clipPath id="clip3_1_3767">
<rect width="17" height="17" fill="white" transform="translate(74.6562 0.844727)"/>
</clipPath>
<clipPath id="clip4_1_3767">
<rect width="17" height="17" fill="white" transform="translate(99.6562 0.844727)"/>
</clipPath>
</defs>
</svg>
