<svg width="169" height="25" viewBox="0 0 169 25" fill="none" xmlns="http://www.w3.org/2000/svg">
<g clip-path="url(#clip0_1_3663)">
<path d="M24.6343 9.87266L15.9137 9.29933L12.6295 1.04858L9.34529 9.29933L0.634277 9.87266L7.31556 15.5458L5.12312 24.1515L12.6295 19.4068L20.1359 24.1515L17.9435 15.5458L24.6343 9.87266Z" fill="#FFD600"/>
</g>
<g clip-path="url(#clip1_1_3663)">
<path d="M60.6343 9.87266L51.9137 9.29933L48.6295 1.04858L45.3453 9.29933L36.6343 9.87266L43.3156 15.5458L41.1231 24.1515L48.6295 19.4068L56.1359 24.1515L53.9435 15.5458L60.6343 9.87266Z" fill="#FFD600"/>
</g>
<g clip-path="url(#clip2_1_3663)">
<path d="M96.6343 9.87266L87.9137 9.29933L84.6295 1.04858L81.3453 9.29933L72.6343 9.87266L79.3156 15.5458L77.1231 24.1515L84.6295 19.4068L92.1359 24.1515L89.9435 15.5458L96.6343 9.87266Z" fill="#FFD600"/>
</g>
<g clip-path="url(#clip3_1_3663)">
<path d="M132.634 9.87266L123.914 9.29933L120.629 1.04858L117.345 9.29933L108.634 9.87266L115.316 15.5458L113.123 24.1515L120.629 19.4068L128.136 24.1515L125.943 15.5458L132.634 9.87266Z" fill="#FFD600"/>
</g>
<g clip-path="url(#clip4_1_3663)">
<path d="M168.634 9.87266L159.914 9.29933L156.629 1.04858L153.345 9.29933L144.634 9.87266L151.316 15.5458L149.123 24.1515L156.629 19.4068L164.136 24.1515L161.943 15.5458L168.634 9.87266Z" fill="#E1E1E1"/>
</g>
<defs>
<clipPath id="clip0_1_3663">
<rect width="24" height="24" fill="white" transform="translate(0.634277 0.600098)"/>
</clipPath>
<clipPath id="clip1_1_3663">
<rect width="24" height="24" fill="white" transform="translate(36.6343 0.600098)"/>
</clipPath>
<clipPath id="clip2_1_3663">
<rect width="24" height="24" fill="white" transform="translate(72.6343 0.600098)"/>
</clipPath>
<clipPath id="clip3_1_3663">
<rect width="24" height="24" fill="white" transform="translate(108.634 0.600098)"/>
</clipPath>
<clipPath id="clip4_1_3663">
<rect width="24" height="24" fill="white" transform="translate(144.634 0.600098)"/>
</clipPath>
</defs>
</svg>
