<svg width="374" height="411" viewBox="0 0 374 411" fill="none" xmlns="http://www.w3.org/2000/svg">
<path d="M368.796 203.898L339.283 163.411C339.187 163.244 339.123 163.058 339.02 162.898C338.943 162.77 338.815 162.699 338.732 162.578C335.88 158.206 331.88 154.704 327.169 152.456L278.225 128.669C281.62 118.823 283.548 108.298 283.548 97.3173C283.548 44.0621 240.236 0.755859 187 0.755859C133.764 0.755859 90.4385 44.0685 90.4385 97.3173C90.4385 108.323 92.3796 118.861 95.7877 128.727L47.0874 152.392C42.2955 154.57 38.3108 158.042 35.4408 162.411C35.3512 162.539 35.2487 162.642 35.1718 162.77V162.783L5.19694 203.898C3.05896 206.826 1.59001 210.188 0.893868 213.745C0.197727 217.303 0.29138 220.971 1.16821 224.488C2.04505 228.006 3.68367 231.288 5.9683 234.103C8.25294 236.918 11.1278 239.197 14.3899 240.779L30.4248 248.575V319.723C30.4248 330.934 36.8951 341.248 46.8888 345.925L174.053 407.745C177.897 409.731 182.253 410.756 187.058 410.756C191.67 410.756 196.026 409.731 199.87 407.809L327.098 345.989C332.03 343.596 336.19 339.865 339.102 335.22C342.013 330.575 343.559 325.205 343.562 319.723V248.582L359.591 240.785C362.853 239.205 365.728 236.926 368.012 234.111C370.296 231.296 371.933 228.013 372.807 224.494C373.687 220.977 373.783 217.31 373.089 213.753C372.395 210.195 370.927 206.833 368.79 203.904L368.796 203.898ZM186.987 13.9912C232.946 13.9912 270.326 51.3716 270.326 97.3237C270.326 143.276 232.946 180.643 186.994 180.643C141.041 180.643 103.667 143.256 103.667 97.3109C103.667 51.3652 141.041 13.9848 186.994 13.9848L186.987 13.9912ZM20.1812 228.902C18.6583 228.164 17.3161 227.1 16.2497 225.786C15.1833 224.472 14.4186 222.94 14.0097 221.298C13.6009 219.656 13.5579 217.944 13.8837 216.283C14.2095 214.623 14.8963 213.054 15.8954 211.688L42.8273 174.724L177.006 239.94L147.601 280.299C146.005 282.492 143.688 284.053 141.056 284.709C138.424 285.365 135.645 285.074 133.207 283.886L20.1812 228.902ZM180.466 396.15C180.321 396.074 180.171 396.01 180.017 395.957L52.5968 334.009C47.1515 331.446 43.6921 325.873 43.6921 319.723V255.033L127.422 295.764C132.651 298.311 138.61 298.936 144.255 297.531C149.899 296.125 154.869 292.778 158.294 288.076L180.466 257.646V396.15ZM187.019 230.074L171.478 222.527L74.6023 175.403L52.2765 164.538L52.7249 164.371L100.964 140.937C116.935 172.296 149.459 193.872 186.994 193.872C224.547 193.872 257.091 172.27 273.049 140.88L321.403 164.371C321.557 164.423 321.659 164.474 321.755 164.525L187.019 230.074ZM330.308 319.723C330.308 325.873 326.848 331.446 321.339 334.073L194.047 395.957L193.662 396.15V257.832L215.694 288.083C219.121 292.783 224.092 296.128 229.737 297.534C235.381 298.939 241.341 298.315 246.572 295.77L330.308 255.033V319.723ZM359.969 221.291C359.149 224.622 356.894 227.39 353.819 228.902L240.787 283.886C238.346 285.07 235.568 285.36 232.936 284.704C230.304 284.049 227.985 282.489 226.386 280.299L197.026 239.984L331.205 174.769L358.098 211.688C360.129 214.462 360.801 217.966 359.975 221.297L359.969 221.291ZM216.917 151.002C213.795 151.011 210.702 150.4 207.817 149.205C204.933 148.009 202.314 146.253 200.114 144.038L187 130.924L173.88 144.038C169.421 148.489 163.379 150.988 157.08 150.988C150.78 150.988 144.738 148.489 140.279 144.038C135.828 139.579 133.328 133.535 133.328 127.234C133.328 120.934 135.828 114.89 140.279 110.431L153.399 97.3173L140.279 84.1973C131.016 74.9338 131.016 59.8535 140.279 50.5901C149.543 41.3266 164.623 41.3395 173.88 50.5901L187 63.7101L200.12 50.5901C209.069 41.6149 224.72 41.6021 233.727 50.5901C238.175 55.0512 240.673 61.094 240.673 67.3937C240.673 73.6934 238.175 79.7361 233.727 84.1973L220.607 97.3173L233.727 110.431C238.175 114.892 240.673 120.935 240.673 127.234C240.673 133.534 238.175 139.577 233.727 144.038C231.525 146.251 228.906 148.006 226.022 149.201C223.138 150.396 220.046 151.008 216.924 151.002H216.917ZM187 114.96C188.691 114.96 190.382 115.601 191.676 116.895L209.473 134.685C213.445 138.663 220.396 138.663 224.374 134.685C226.345 132.706 227.451 130.027 227.451 127.234C227.451 124.442 226.345 121.763 224.374 119.784L206.577 101.987C205.963 101.373 205.476 100.644 205.143 99.842C204.81 99.0396 204.639 98.1795 204.639 97.3109C204.639 96.4423 204.81 95.5822 205.143 94.7797C205.476 93.9773 205.963 93.2483 206.577 92.6343L224.374 74.8505C226.347 72.8716 227.455 70.1912 227.455 67.3969C227.455 64.6025 226.347 61.9222 224.374 59.9432C220.402 55.9649 213.451 55.9649 209.473 59.9432L191.676 77.7334C191.062 78.3478 190.333 78.8352 189.531 79.1677C188.729 79.5003 187.869 79.6715 187 79.6715C186.131 79.6715 185.271 79.5003 184.469 79.1677C183.666 78.8352 182.937 78.3478 182.323 77.7334L164.527 59.9496C162.548 57.9787 159.869 56.8722 157.076 56.8722C154.284 56.8722 151.605 57.9787 149.626 59.9496C147.653 61.9286 146.545 64.6089 146.545 67.4033C146.545 70.1976 147.653 72.878 149.626 74.857L167.416 92.6471C168.03 93.2611 168.518 93.9901 168.85 94.7925C169.183 95.595 169.354 96.4551 169.354 97.3237C169.354 98.1923 169.183 99.0524 168.85 99.8548C168.518 100.657 168.03 101.386 167.416 102L149.626 119.79C147.649 121.766 146.538 124.447 146.538 127.242C146.537 130.037 147.647 132.718 149.623 134.695C151.599 136.671 154.279 137.782 157.074 137.783C159.869 137.783 162.55 136.674 164.527 134.698L182.317 116.901C183.611 115.607 185.302 114.966 186.994 114.966L187 114.96Z" fill="#AAAAAA"/>
</svg>
