<svg width="56" height="57" viewBox="0 0 56 57" fill="none" xmlns="http://www.w3.org/2000/svg">
<mask id="mask0_1_20044" style="mask-type:alpha" maskUnits="userSpaceOnUse" x="0" y="0" width="56" height="57">
<g clip-path="url(#clip0_1_20044)">
<path d="M34.3722 31.2754L40.7862 37.6894C41.7844 38.6876 41.7844 40.306 40.7862 41.3043C39.7879 42.3026 38.1695 42.3026 37.1712 41.3043L32.0542 36.1873" stroke="black" stroke-width="2.1875" stroke-miterlimit="10" stroke-linecap="round" stroke-linejoin="round"/>
<path d="M32.0544 36.1875L36.6178 40.7508C37.616 41.7491 37.616 43.3675 36.6178 44.3658C35.6195 45.3641 34.0011 45.3641 33.0028 44.3658L29.7153 41.0783" stroke="black" stroke-width="2.1875" stroke-miterlimit="10" stroke-linecap="round" stroke-linejoin="round"/>
<path d="M29.7153 41.0778L31.7199 43.0823C32.7181 44.0806 32.7181 45.699 31.7199 46.6973C30.7216 47.6955 29.1032 47.6955 28.1049 46.6973L27.168 45.7603M43.6278 17.1098L43.0855 17.3805C42.1193 17.8626 41.0647 18.1421 39.9865 18.2017C38.9083 18.2614 37.8294 18.0999 36.8159 17.7273C35.384 17.2009 33.8556 16.9887 32.3345 17.1053C30.8133 17.2219 29.3351 17.6644 28.0001 18.4028L23.2393 21.0365C21.6833 21.8971 21.2098 23.9126 22.2197 25.3761C22.9982 26.5043 24.4411 26.9635 25.7283 26.4925L31.7241 24.2989C32.3588 24.0667 33.0466 24.0208 33.7065 24.1665C34.3664 24.3122 34.9709 24.6435 35.4488 25.1214L44.4015 34.0741C45.3997 35.0723 45.3997 36.6908 44.4015 37.689C43.4032 38.6873 41.7848 38.6873 40.7865 37.689L33.7165 30.619" stroke="black" stroke-width="2.1875" stroke-miterlimit="10" stroke-linecap="round" stroke-linejoin="round"/>
<path d="M27.9999 18.4029C26.665 17.6644 25.1868 17.2219 23.6656 17.1053C22.1445 16.9887 20.6161 17.2009 19.1842 17.7274C18.1707 18.1 17.0917 18.2615 16.0136 18.2018C14.9354 18.1422 13.8808 17.8627 12.9146 17.3806L12.393 17.1203M44.5312 33.9726L49.1745 31.5015M10.9508 33.5626L7.0835 30.4998M21.7218 36.6541L19.041 39.3349M21.7218 36.6541C22.7201 35.6558 22.7201 34.0374 21.7218 33.0391C20.7235 32.0409 19.1051 32.0409 18.1069 33.0391L15.4261 35.7199C14.4278 36.7182 14.4278 38.3366 15.4261 39.3349C16.4243 40.3331 18.0428 40.3331 19.041 39.3349M21.7218 36.6541C22.7201 35.6558 24.3385 35.6558 25.3368 36.6541C26.335 37.6523 26.335 39.2708 25.3368 40.269L22.656 42.9498C21.6577 43.9481 20.0393 43.9481 19.041 42.9498C18.0428 41.9516 18.0428 40.3331 19.041 39.3349" stroke="black" stroke-width="2.1875" stroke-miterlimit="10" stroke-linecap="round" stroke-linejoin="round"/>
<path d="M27.8169 45.0186L26.8722 45.9632C25.874 46.9615 24.2555 46.9615 23.2573 45.9632C22.259 44.965 22.259 43.3465 23.2573 42.3483L24.202 41.4036C25.2002 40.4053 26.8186 40.4053 27.8169 41.4036C28.8152 42.4019 28.8152 44.0203 27.8169 45.0186ZM13.0044 30.9115L11.8112 32.1047C10.8129 33.1029 10.8129 34.7213 11.8112 35.7196C12.8095 36.7179 14.4279 36.7179 15.4261 35.7196L16.6193 34.5264C17.6176 33.5282 17.6176 31.9097 16.6193 30.9115C15.621 29.9133 14.0026 29.9133 13.0044 30.9115ZM54.9062 31.4305L50.1268 33.1497L42.7255 14.74L51.4058 10.0996L54.9062 31.4305ZM1.09375 31.4305L5.87322 33.1497L13.2745 14.74L4.59419 10.0996L1.09375 31.4305Z" stroke="black" stroke-width="2.1875" stroke-miterlimit="10" stroke-linecap="round" stroke-linejoin="round"/>
</g>
</mask>
<g mask="url(#mask0_1_20044)">
<rect y="0.773438" width="56" height="56" fill="#405FF2"/>
</g>
<defs>
<clipPath id="clip0_1_20044">
<rect width="56" height="56" fill="white" transform="translate(0 0.773438)"/>
</clipPath>
</defs>
</svg>
