<svg width="56" height="57" viewBox="0 0 56 57" fill="none" xmlns="http://www.w3.org/2000/svg">
<mask id="mask0_1_19947" style="mask-type:alpha" maskUnits="userSpaceOnUse" x="0" y="0" width="56" height="57">
<g clip-path="url(#clip0_1_19947)">
<g clip-path="url(#clip1_1_19947)">
<mask id="mask1_1_19947" style="mask-type:luminance" maskUnits="userSpaceOnUse" x="0" y="0" width="56" height="57">
<path d="M0 0.773468H56V56.7734H0V0.773468Z" fill="white"/>
</mask>
<g mask="url(#mask1_1_19947)">
<path d="M13.5341 11.3456C12.9118 10.5009 12.5767 9.47889 12.5781 8.42969C12.5781 5.71172 14.782 3.50782 17.5 3.50782C20.218 3.50782 22.4219 5.71172 22.4219 8.42969C22.4219 9.52016 22.0664 10.5297 21.4659 11.3456C21.3883 11.4495 21.3084 11.5513 21.2231 11.6486C20.3208 12.692 18.9875 13.3516 17.5 13.3516C16.0125 13.3516 14.6792 12.692 13.7769 11.6486C13.6916 11.5513 13.6117 11.4495 13.5341 11.3456Z" stroke="black" stroke-width="2.1875" stroke-miterlimit="10" stroke-linecap="round" stroke-linejoin="round"/>
<path d="M24.0625 18.6035L33.1866 7.19899C34.3197 5.78368 34.09 3.71868 32.6747 2.58774C31.2627 1.4579 29.1955 1.68212 28.0635 3.09962L21.2231 11.6495" stroke="black" stroke-width="2.1875" stroke-miterlimit="10" stroke-linecap="round" stroke-linejoin="round"/>
<path d="M24.0625 45.8359V18.5983" stroke="black" stroke-width="2.1875" stroke-miterlimit="10" stroke-linecap="round" stroke-linejoin="round"/>
<path d="M13.7768 11.6486L6.93652 3.09877C5.80558 1.68346 3.7373 1.45596 2.32527 2.58689C0.909957 3.71783 0.68027 5.78283 1.81339 7.19814L10.9375 18.6027V45.8359" stroke="black" stroke-width="2.1875" stroke-miterlimit="10" stroke-linecap="round" stroke-linejoin="round"/>
<path d="M17.5 31.3984V45.8359" stroke="black" stroke-width="2.1875" stroke-miterlimit="10" stroke-linecap="round" stroke-linejoin="round"/>
<path d="M48.3436 55.6797H31.9374V28.4464L24.0624 18.6038L24.0613 18.6027" stroke="black" stroke-width="2.1875" stroke-miterlimit="10" stroke-linecap="round" stroke-linejoin="round"/>
<path d="M34.5341 21.1894C33.9118 20.3446 33.5767 19.3226 33.5781 18.2734C33.5781 15.5555 35.782 13.3516 38.5 13.3516C41.218 13.3516 43.4219 15.5555 43.4219 18.2734C43.4219 19.3639 43.0664 20.3734 42.4659 21.1894C42.3883 21.2933 42.3084 21.395 42.2231 21.4923C41.3208 22.5358 39.9875 23.1953 38.5 23.1953C37.0125 23.1953 35.6792 22.5358 34.7769 21.4923C34.6916 21.395 34.6117 21.2933 34.5341 21.1894Z" stroke="black" stroke-width="2.1875" stroke-miterlimit="10" stroke-linecap="round" stroke-linejoin="round"/>
<path d="M45.0625 28.4473L54.1866 17.0427C55.3197 15.6274 55.09 13.5624 53.6747 12.4315C52.2627 11.3017 50.1955 11.5259 49.0635 12.9434L42.2231 21.4932" stroke="black" stroke-width="2.1875" stroke-miterlimit="10" stroke-linecap="round" stroke-linejoin="round"/>
<path d="M45.0625 55.6797V28.442" stroke="black" stroke-width="2.1875" stroke-miterlimit="10" stroke-linecap="round" stroke-linejoin="round"/>
<path d="M34.7767 21.4922L28.2634 13.3514" stroke="black" stroke-width="2.1875" stroke-miterlimit="10" stroke-linecap="round" stroke-linejoin="round"/>
<path d="M38.5 41.2422V55.6797" stroke="black" stroke-width="2.1875" stroke-miterlimit="10" stroke-linecap="round" stroke-linejoin="round"/>
<path d="M18.1562 56.7734C17.5527 56.7734 17.0625 56.2832 17.0625 55.6797C17.0625 55.0762 17.5527 54.5859 18.1562 54.5859C18.7598 54.5859 19.25 55.0762 19.25 55.6797C19.25 56.2832 18.7598 56.7734 18.1562 56.7734Z" fill="black"/>
<path d="M31.9375 55.6797H23.0781" stroke="black" stroke-width="2.1875" stroke-miterlimit="10" stroke-linecap="round" stroke-linejoin="round"/>
<path d="M13.2344 55.6797H3.0625V45.8359H31.9375" stroke="black" stroke-width="2.1875" stroke-miterlimit="10" stroke-linecap="round" stroke-linejoin="round"/>
</g>
</g>
</g>
</mask>
<g mask="url(#mask0_1_19947)">
<rect y="0.773438" width="56" height="56" fill="#405FF2"/>
</g>
<defs>
<clipPath id="clip0_1_19947">
<rect width="56" height="56" fill="white" transform="translate(0 0.773438)"/>
</clipPath>
<clipPath id="clip1_1_19947">
<rect width="56" height="56" fill="white" transform="translate(0 0.773438)"/>
</clipPath>
</defs>
</svg>
