<svg width="56" height="57" viewBox="0 0 56 57" fill="none" xmlns="http://www.w3.org/2000/svg">
<mask id="mask0_1_19994" style="mask-type:alpha" maskUnits="userSpaceOnUse" x="0" y="0" width="56" height="57">
<g clip-path="url(#clip0_1_19994)">
<g clip-path="url(#clip1_1_19994)">
<mask id="mask1_1_19994" style="mask-type:luminance" maskUnits="userSpaceOnUse" x="0" y="0" width="56" height="57">
<path d="M56 0.773438H0V56.7734H56V0.773438Z" fill="white"/>
<path d="M28 44.0859C28.6037 44.0859 29.0937 44.5759 29.0937 45.1797C29.0937 45.7834 28.6037 46.2734 28 46.2734C27.3962 46.2734 26.9062 45.7834 26.9062 45.1797C26.9062 44.5759 27.3962 44.0859 28 44.0859Z" fill="white"/>
</mask>
<g mask="url(#mask1_1_19994)">
<mask id="mask2_1_19994" style="mask-type:luminance" maskUnits="userSpaceOnUse" x="0" y="0" width="56" height="57">
<path d="M0 0.773468H56V56.7734H0V0.773468Z" fill="white"/>
</mask>
<g mask="url(#mask2_1_19994)">
<path d="M28 44.0859C28.6037 44.0859 29.0937 44.5759 29.0937 45.1797C29.0937 45.7834 28.6037 46.2734 28 46.2734C27.3962 46.2734 26.9062 45.7834 26.9062 45.1797C26.9062 44.5759 27.3962 44.0859 28 44.0859Z" fill="black"/>
<path d="M51.2969 35.3359C51.2969 38.3558 48.848 40.8047 45.8281 40.8047C42.8083 40.8047 40.3594 38.3558 40.3594 35.3359C40.3594 32.3161 42.8083 29.8672 45.8281 29.8672C48.848 29.8672 51.2969 32.3161 51.2969 35.3359Z" stroke="black" stroke-width="2.1875" stroke-miterlimit="10" stroke-linecap="round" stroke-linejoin="round"/>
<path d="M15.9687 53.9297H1.09375V51.7422C1.09375 46.91 5.33969 42.9922 10.1719 42.9922C13.1261 42.9922 16.0661 44.4556 17.6498 46.6978" stroke="black" stroke-width="2.1875" stroke-miterlimit="10" stroke-linecap="round" stroke-linejoin="round"/>
<path d="M38.3501 46.6978C39.9338 44.4556 42.8738 42.9922 45.8281 42.9922C50.6602 42.9922 54.9062 46.91 54.9062 51.7422V53.9297H40.0312" stroke="black" stroke-width="2.1875" stroke-miterlimit="10" stroke-linecap="round" stroke-linejoin="round"/>
<path d="M15.6406 35.3359C15.6406 38.3558 13.1917 40.8047 10.1719 40.8047C7.15203 40.8047 4.70312 38.3558 4.70312 35.3359C4.70312 32.3161 7.15203 29.8672 10.1719 29.8672C13.1917 29.8672 15.6406 32.3161 15.6406 35.3359Z" stroke="black" stroke-width="2.1875" stroke-miterlimit="10" stroke-linecap="round" stroke-linejoin="round"/>
<path d="M35.6562 30.9609C35.6562 35.1894 32.2284 38.6172 28 38.6172C23.7716 38.6172 20.3438 35.1894 20.3438 30.9609C20.3438 26.7325 23.7716 23.3047 28 23.3047C32.2284 23.3047 35.6562 26.7325 35.6562 30.9609Z" stroke="black" stroke-width="2.1875" stroke-miterlimit="10" stroke-linecap="round" stroke-linejoin="round"/>
<path d="M27.9606 3.61782L25.5948 8.45547L20.3054 9.22329L24.1335 12.9541L23.2301 18.2227L27.9606 15.7355C29.7379 16.6695 30.9652 17.3148 32.6922 18.2227L31.7876 12.9541L35.6157 9.22329L30.3264 8.45547L27.9606 3.61782Z" stroke="black" stroke-width="2.1875" stroke-miterlimit="10" stroke-linecap="round" stroke-linejoin="round"/>
<path d="M46.5151 22.0565L49.8827 23.8262L49.2396 20.0768L51.964 17.4201L48.1984 16.8732L46.5151 13.4607L44.8307 16.8732L41.0649 17.4201L43.7895 20.0768L43.1463 23.8262L46.5151 22.0565Z" stroke="black" stroke-width="2.1875" stroke-miterlimit="10" stroke-linecap="round" stroke-linejoin="round"/>
<path d="M9.3276 22.0565L12.6953 23.8262L12.0521 20.0768L14.7767 17.4201L11.0109 16.8732L9.3276 13.4607L7.64322 16.8732L3.87744 17.4201L6.60197 20.0768L5.95885 23.8262L9.3276 22.0565Z" stroke="black" stroke-width="2.1875" stroke-miterlimit="10" stroke-linecap="round" stroke-linejoin="round"/>
<path d="M40.0312 53.9297H15.9688V52.8359C15.9688 50.5938 16.5823 48.4948 17.6498 46.6978C19.7477 43.1694 23.5977 40.8047 28 40.8047C31.3228 40.8047 34.3306 42.1511 36.5072 44.3288C37.2148 45.0364 37.835 45.8316 38.3501 46.6978C39.4176 48.4948 40.0312 50.5938 40.0312 52.8359V53.9297Z" stroke="black" stroke-width="2.1875" stroke-miterlimit="10" stroke-linecap="round" stroke-linejoin="round"/>
<path d="M32.1924 46.432C33.3627 47.2009 34.311 48.2816 34.9169 49.5547" stroke="black" stroke-width="2.1875" stroke-miterlimit="10" stroke-linecap="round" stroke-linejoin="round"/>
</g>
</g>
</g>
</g>
</mask>
<g mask="url(#mask0_1_19994)">
<rect y="0.773438" width="56" height="56" fill="#405FF2"/>
</g>
<defs>
<clipPath id="clip0_1_19994">
<rect width="56" height="56" fill="white" transform="translate(0 0.773438)"/>
</clipPath>
<clipPath id="clip1_1_19994">
<rect width="56" height="56" fill="white" transform="translate(0 0.773438)"/>
</clipPath>
</defs>
</svg>
