<svg width="68" height="66" viewBox="0 0 68 66" fill="none" xmlns="http://www.w3.org/2000/svg">
<g clip-path="url(#clip0_1_19761)">
<mask id="mask0_1_19761" style="mask-type:luminance" maskUnits="userSpaceOnUse" x="25" y="0" width="17" height="33">
<path fill-rule="evenodd" clip-rule="evenodd" d="M25.5176 0.537109H41.95V32.5371H25.5176V0.537109Z" fill="white"/>
</mask>
<g mask="url(#mask0_1_19761)">
<path fill-rule="evenodd" clip-rule="evenodd" d="M36.184 32.5371V17.9417H41.0298L41.7563 12.2534H36.184V8.61928C36.184 6.97171 36.6354 5.84825 38.9723 5.84825H41.95V0.759383C41.4354 0.692788 39.665 0.537113 37.6084 0.537113C33.3143 0.533653 30.3738 3.18706 30.3738 8.05365V12.2491H25.5176V17.9373H30.3738V32.5371H36.184Z" fill="#3B579D"/>
</g>
</g>
<path d="M5.80908 47.584V57.5371H4.48975V47.584H5.80908ZM9.979 52.0615V53.1416H5.52197V52.0615H9.979ZM10.6558 47.584V48.6641H5.52197V47.584H10.6558ZM16.1655 56.2725V52.4648C16.1655 52.1732 16.1063 51.9202 15.9878 51.7061C15.8739 51.4873 15.7007 51.3187 15.4683 51.2002C15.2358 51.0817 14.9487 51.0225 14.6069 51.0225C14.2879 51.0225 14.0076 51.0771 13.7661 51.1865C13.5291 51.2959 13.3423 51.4395 13.2056 51.6172C13.0734 51.7949 13.0073 51.9863 13.0073 52.1914H11.7427C11.7427 51.9271 11.811 51.665 11.9478 51.4053C12.0845 51.1455 12.2804 50.9108 12.5356 50.7012C12.7954 50.487 13.1053 50.3184 13.4653 50.1953C13.8299 50.0677 14.2355 50.0039 14.6821 50.0039C15.2199 50.0039 15.6938 50.0951 16.104 50.2773C16.5187 50.4596 16.8423 50.7354 17.0747 51.1045C17.3117 51.4691 17.4302 51.9271 17.4302 52.4785V55.9238C17.4302 56.1699 17.4507 56.432 17.4917 56.71C17.5373 56.988 17.6034 57.2272 17.6899 57.4277V57.5371H16.3706C16.3068 57.3913 16.2567 57.1976 16.2202 56.9561C16.1838 56.71 16.1655 56.4821 16.1655 56.2725ZM16.3843 53.0527L16.3979 53.9414H15.1196C14.7596 53.9414 14.4383 53.971 14.1558 54.0303C13.8732 54.085 13.6362 54.1693 13.4448 54.2832C13.2534 54.3971 13.1076 54.5407 13.0073 54.7139C12.9071 54.8825 12.8569 55.0807 12.8569 55.3086C12.8569 55.541 12.9093 55.7529 13.0142 55.9443C13.119 56.1357 13.2762 56.2884 13.4858 56.4023C13.7 56.5117 13.9621 56.5664 14.272 56.5664C14.6593 56.5664 15.0011 56.4844 15.2974 56.3203C15.5936 56.1562 15.8283 55.9557 16.0015 55.7188C16.1792 55.4818 16.2749 55.2516 16.2886 55.0283L16.8286 55.6367C16.7967 55.8281 16.7101 56.04 16.5688 56.2725C16.4276 56.5049 16.2384 56.7282 16.0015 56.9424C15.769 57.152 15.491 57.3275 15.1675 57.4688C14.8485 57.6055 14.4884 57.6738 14.0874 57.6738C13.5861 57.6738 13.1463 57.5758 12.7681 57.3799C12.3944 57.1839 12.1027 56.9219 11.8931 56.5938C11.688 56.2611 11.5854 55.8896 11.5854 55.4795C11.5854 55.083 11.6629 54.7344 11.8179 54.4336C11.9728 54.1283 12.1961 53.8753 12.4878 53.6748C12.7795 53.4697 13.1304 53.3148 13.5405 53.21C13.9507 53.1051 14.4087 53.0527 14.9146 53.0527H16.3843ZM22.3794 56.6348C22.6802 56.6348 22.9582 56.5732 23.2134 56.4502C23.4686 56.3271 23.6782 56.1585 23.8423 55.9443C24.0063 55.7256 24.0998 55.4772 24.1226 55.1992H25.3257C25.3029 55.6367 25.1548 56.0446 24.8813 56.4229C24.6125 56.7965 24.2593 57.0996 23.8218 57.332C23.3843 57.5599 22.9035 57.6738 22.3794 57.6738C21.8234 57.6738 21.3381 57.5758 20.9233 57.3799C20.5132 57.1839 20.1714 56.915 19.8979 56.5732C19.6291 56.2314 19.4263 55.8395 19.2896 55.3975C19.1574 54.9508 19.0913 54.4792 19.0913 53.9824V53.6953C19.0913 53.1986 19.1574 52.7292 19.2896 52.2871C19.4263 51.8405 19.6291 51.4463 19.8979 51.1045C20.1714 50.7627 20.5132 50.4938 20.9233 50.2979C21.3381 50.1019 21.8234 50.0039 22.3794 50.0039C22.9582 50.0039 23.464 50.1224 23.897 50.3594C24.3299 50.5918 24.6694 50.9108 24.9155 51.3164C25.1662 51.7174 25.3029 52.1732 25.3257 52.6836H24.1226C24.0998 52.3783 24.0132 52.1025 23.8628 51.8564C23.717 51.6104 23.5164 51.4144 23.2612 51.2686C23.0106 51.1182 22.7166 51.043 22.3794 51.043C21.992 51.043 21.6662 51.1204 21.4019 51.2754C21.1421 51.4258 20.9347 51.6309 20.7798 51.8906C20.6294 52.1458 20.52 52.4307 20.4517 52.7451C20.3879 53.055 20.356 53.3717 20.356 53.6953V53.9824C20.356 54.306 20.3879 54.625 20.4517 54.9395C20.5155 55.2539 20.6226 55.5387 20.7729 55.7939C20.9279 56.0492 21.1353 56.2542 21.395 56.4092C21.6593 56.5596 21.9875 56.6348 22.3794 56.6348ZM29.8169 57.6738C29.3019 57.6738 28.8348 57.5872 28.4155 57.4141C28.0008 57.2363 27.6431 56.988 27.3423 56.6689C27.0461 56.3499 26.8182 55.9717 26.6587 55.5342C26.4992 55.0967 26.4194 54.6182 26.4194 54.0986V53.8115C26.4194 53.21 26.5083 52.6745 26.686 52.2051C26.8638 51.7311 27.1053 51.3301 27.4106 51.002C27.716 50.6738 28.0623 50.4255 28.4497 50.2568C28.8371 50.0882 29.2381 50.0039 29.6528 50.0039C30.1815 50.0039 30.6372 50.0951 31.02 50.2773C31.4074 50.4596 31.7241 50.7148 31.9702 51.043C32.2163 51.3665 32.3986 51.7493 32.5171 52.1914C32.6356 52.6289 32.6948 53.1074 32.6948 53.627V54.1943H27.1714V53.1621H31.4302V53.0664C31.4119 52.7383 31.3436 52.4193 31.2251 52.1094C31.1112 51.7995 30.9289 51.5443 30.6782 51.3438C30.4276 51.1432 30.0858 51.043 29.6528 51.043C29.3657 51.043 29.1014 51.1045 28.8599 51.2275C28.6183 51.346 28.411 51.5238 28.2378 51.7607C28.0646 51.9977 27.9302 52.2871 27.8345 52.6289C27.7388 52.9707 27.6909 53.3649 27.6909 53.8115V54.0986C27.6909 54.4495 27.7388 54.7799 27.8345 55.0898C27.9347 55.3952 28.0783 55.6641 28.2651 55.8965C28.4565 56.1289 28.6867 56.3112 28.9556 56.4434C29.229 56.5755 29.5389 56.6416 29.8853 56.6416C30.3319 56.6416 30.7101 56.5505 31.02 56.3682C31.3299 56.1859 31.6011 55.9421 31.8335 55.6367L32.5991 56.2451C32.4396 56.4867 32.2368 56.7168 31.9907 56.9355C31.7446 57.1543 31.4416 57.332 31.0815 57.4688C30.7261 57.6055 30.3045 57.6738 29.8169 57.6738ZM34.1646 47.0371H35.436V56.1016L35.3267 57.5371H34.1646V47.0371ZM40.4331 53.7773V53.9209C40.4331 54.4587 40.3693 54.9577 40.2417 55.418C40.1141 55.8737 39.9272 56.2702 39.6812 56.6074C39.4351 56.9447 39.1343 57.2067 38.7788 57.3936C38.4233 57.5804 38.0155 57.6738 37.5552 57.6738C37.0858 57.6738 36.6733 57.5941 36.3179 57.4346C35.967 57.2705 35.6707 57.0358 35.4292 56.7305C35.1877 56.4251 34.994 56.056 34.8481 55.623C34.7069 55.1901 34.6089 54.7025 34.5542 54.1602V53.5312C34.6089 52.9844 34.7069 52.4945 34.8481 52.0615C34.994 51.6286 35.1877 51.2594 35.4292 50.9541C35.6707 50.6442 35.967 50.4095 36.3179 50.25C36.6688 50.0859 37.0767 50.0039 37.5415 50.0039C38.0063 50.0039 38.4188 50.0951 38.7788 50.2773C39.1388 50.4551 39.4396 50.7103 39.6812 51.043C39.9272 51.3757 40.1141 51.7744 40.2417 52.2393C40.3693 52.6995 40.4331 53.2122 40.4331 53.7773ZM39.1616 53.9209V53.7773C39.1616 53.4082 39.1274 53.0618 39.0591 52.7383C38.9907 52.4102 38.8813 52.123 38.731 51.877C38.5806 51.6263 38.3823 51.4303 38.1362 51.2891C37.8901 51.1432 37.5871 51.0703 37.2271 51.0703C36.908 51.0703 36.63 51.125 36.3931 51.2344C36.1606 51.3438 35.9624 51.4919 35.7983 51.6787C35.6343 51.861 35.4998 52.0706 35.395 52.3076C35.2948 52.54 35.2196 52.7816 35.1694 53.0322V54.6797C35.2424 54.9987 35.3608 55.3063 35.5249 55.6025C35.6935 55.8942 35.9168 56.1335 36.1948 56.3203C36.4774 56.5072 36.826 56.6006 37.2407 56.6006C37.5825 56.6006 37.8742 56.5322 38.1157 56.3955C38.3618 56.2542 38.5601 56.0605 38.7104 55.8145C38.8654 55.5684 38.9793 55.2835 39.0522 54.96C39.1252 54.6364 39.1616 54.29 39.1616 53.9209ZM41.6978 53.9209V53.7637C41.6978 53.2305 41.7752 52.736 41.9302 52.2803C42.0851 51.82 42.3084 51.4212 42.6001 51.084C42.8918 50.7422 43.245 50.4779 43.6597 50.291C44.0744 50.0996 44.5392 50.0039 45.0542 50.0039C45.5737 50.0039 46.0409 50.0996 46.4556 50.291C46.8748 50.4779 47.2303 50.7422 47.522 51.084C47.8182 51.4212 48.0438 51.82 48.1987 52.2803C48.3537 52.736 48.4312 53.2305 48.4312 53.7637V53.9209C48.4312 54.4541 48.3537 54.9486 48.1987 55.4043C48.0438 55.86 47.8182 56.2588 47.522 56.6006C47.2303 56.9378 46.8771 57.2021 46.4624 57.3936C46.0522 57.5804 45.5874 57.6738 45.0679 57.6738C44.5483 57.6738 44.0812 57.5804 43.6665 57.3936C43.2518 57.2021 42.8963 56.9378 42.6001 56.6006C42.3084 56.2588 42.0851 55.86 41.9302 55.4043C41.7752 54.9486 41.6978 54.4541 41.6978 53.9209ZM42.9624 53.7637V53.9209C42.9624 54.29 43.0057 54.6387 43.0923 54.9668C43.1789 55.2904 43.3088 55.5775 43.4819 55.8281C43.6597 56.0788 43.8807 56.277 44.145 56.4229C44.4093 56.5641 44.717 56.6348 45.0679 56.6348C45.4142 56.6348 45.7173 56.5641 45.9771 56.4229C46.2414 56.277 46.4601 56.0788 46.6333 55.8281C46.8065 55.5775 46.9364 55.2904 47.0229 54.9668C47.1141 54.6387 47.1597 54.29 47.1597 53.9209V53.7637C47.1597 53.3991 47.1141 53.055 47.0229 52.7314C46.9364 52.4033 46.8042 52.1139 46.6265 51.8633C46.4533 51.6081 46.2345 51.4076 45.9702 51.2617C45.7104 51.1159 45.4051 51.043 45.0542 51.043C44.7078 51.043 44.4025 51.1159 44.1382 51.2617C43.8784 51.4076 43.6597 51.6081 43.4819 51.8633C43.3088 52.1139 43.1789 52.4033 43.0923 52.7314C43.0057 53.055 42.9624 53.3991 42.9624 53.7637ZM49.6821 53.9209V53.7637C49.6821 53.2305 49.7596 52.736 49.9146 52.2803C50.0695 51.82 50.2928 51.4212 50.5845 51.084C50.8761 50.7422 51.2293 50.4779 51.644 50.291C52.0588 50.0996 52.5236 50.0039 53.0386 50.0039C53.5581 50.0039 54.0252 50.0996 54.4399 50.291C54.8592 50.4779 55.2147 50.7422 55.5063 51.084C55.8026 51.4212 56.0282 51.82 56.1831 52.2803C56.3381 52.736 56.4155 53.2305 56.4155 53.7637V53.9209C56.4155 54.4541 56.3381 54.9486 56.1831 55.4043C56.0282 55.86 55.8026 56.2588 55.5063 56.6006C55.2147 56.9378 54.8615 57.2021 54.4468 57.3936C54.0366 57.5804 53.5718 57.6738 53.0522 57.6738C52.5327 57.6738 52.0656 57.5804 51.6509 57.3936C51.2362 57.2021 50.8807 56.9378 50.5845 56.6006C50.2928 56.2588 50.0695 55.86 49.9146 55.4043C49.7596 54.9486 49.6821 54.4541 49.6821 53.9209ZM50.9468 53.7637V53.9209C50.9468 54.29 50.9901 54.6387 51.0767 54.9668C51.1632 55.2904 51.2931 55.5775 51.4663 55.8281C51.644 56.0788 51.8651 56.277 52.1294 56.4229C52.3937 56.5641 52.7013 56.6348 53.0522 56.6348C53.3986 56.6348 53.7017 56.5641 53.9614 56.4229C54.2257 56.277 54.4445 56.0788 54.6177 55.8281C54.7909 55.5775 54.9207 55.2904 55.0073 54.9668C55.0985 54.6387 55.144 54.29 55.144 53.9209V53.7637C55.144 53.3991 55.0985 53.055 55.0073 52.7314C54.9207 52.4033 54.7886 52.1139 54.6108 51.8633C54.4377 51.6081 54.2189 51.4076 53.9546 51.2617C53.6948 51.1159 53.3895 51.043 53.0386 51.043C52.6922 51.043 52.3869 51.1159 52.1226 51.2617C51.8628 51.4076 51.644 51.6081 51.4663 51.8633C51.2931 52.1139 51.1632 52.4033 51.0767 52.7314C50.9901 53.055 50.9468 53.3991 50.9468 53.7637ZM59.2729 47.0371V57.5371H58.0015V47.0371H59.2729ZM63.7915 50.1406L60.5649 53.5928L58.7603 55.4658L58.6577 54.1191L59.9497 52.5742L62.2466 50.1406H63.7915ZM62.6362 57.5371L59.9976 54.0098L60.6538 52.8818L64.1265 57.5371H62.6362Z" fill="#111111"/>
<defs>
<clipPath id="clip0_1_19761">
<rect width="16.4324" height="32" fill="white" transform="translate(25.5176 0.537109)"/>
</clipPath>
</defs>
</svg>
