<svg width="56" height="57" viewBox="0 0 56 57" fill="none" xmlns="http://www.w3.org/2000/svg">
<mask id="mask0_1_20063" style="mask-type:alpha" maskUnits="userSpaceOnUse" x="0" y="0" width="56" height="57">
<g clip-path="url(#clip0_1_20063)">
<g clip-path="url(#clip1_1_20063)">
<path d="M27.9665 9.76647C18.1753 9.76647 10.2096 17.7321 10.2096 27.5232C10.2096 30.6556 11.0366 33.7352 12.601 36.4291C14.1185 39.0422 16.2929 41.241 18.889 42.7879C19.6499 43.2413 20.0689 43.9786 20.0689 44.864V48.9537C20.0689 50.425 21.0398 51.6737 22.3745 52.0931V52.1689C22.3745 54.5872 24.3419 56.5548 26.7603 56.5548H29.1725C31.5909 56.5548 33.5585 54.5874 33.5585 52.1689V52.0931C34.8931 51.6736 35.8639 50.4249 35.8639 48.9537V44.864C35.8639 43.9785 36.283 43.2412 37.044 42.7879C39.6402 41.241 41.8145 39.0422 43.332 36.4291C44.8965 33.7352 45.7234 30.6556 45.7234 27.5232C45.7235 17.732 37.7577 9.76647 27.9665 9.76647ZM29.1726 54.5859H26.7604C25.4528 54.5859 24.3851 53.5418 24.3454 52.2436H31.5879C31.548 53.5418 30.4803 54.5859 29.1726 54.5859ZM32.5741 50.2748H23.359C22.6305 50.2748 22.0378 49.6821 22.0378 48.9536V48.2533H33.8951V48.9536C33.8951 49.6821 33.3025 50.2748 32.5741 50.2748ZM36.0365 41.0965C34.6757 41.9072 33.8952 43.2804 33.8952 44.8639V46.2845H22.0378V44.8639C22.0378 43.2804 21.2574 41.9072 19.8968 41.0965C15.136 38.2598 12.1785 33.0589 12.1785 27.5231C12.1785 18.8176 19.261 11.7351 27.9666 11.7351C36.6723 11.7351 43.7548 18.8176 43.7548 27.5231C43.7547 33.0589 40.7972 38.2598 36.0365 41.0965ZM5.10511 14.1913C5.16973 14.0794 5.25577 13.9812 5.35832 13.9025C5.46087 13.8238 5.57793 13.7661 5.7028 13.7326C5.82767 13.6992 5.95791 13.6907 6.08607 13.7075C6.21424 13.7244 6.33782 13.7664 6.44977 13.8311L10.2168 16.0059C10.4045 16.1142 10.5513 16.2816 10.6342 16.4819C10.7171 16.6822 10.7316 16.9043 10.6754 17.1137C10.6192 17.3231 10.4954 17.5081 10.3233 17.6399C10.1512 17.7717 9.94038 17.8431 9.72358 17.8428C9.55108 17.8428 9.38164 17.7973 9.23238 17.7108L5.46539 15.536C5.35343 15.4714 5.25531 15.3853 5.17661 15.2828C5.09791 15.1802 5.04018 15.0632 5.00673 14.9383C4.97327 14.8134 4.96474 14.6832 4.98162 14.555C4.9985 14.4269 5.04046 14.3033 5.10511 14.1913ZM6.90258 28.3747H2.55273C2.00903 28.3747 1.56836 27.934 1.56836 27.3903C1.56836 26.8466 2.00903 26.4059 2.55273 26.4059H6.90258C7.44628 26.4059 7.88695 26.8466 7.88695 27.3903C7.88695 27.934 7.44628 28.3747 6.90258 28.3747ZM10.577 37.4301C10.7076 37.6562 10.7429 37.9249 10.6754 38.1771C10.6078 38.4293 10.4428 38.6443 10.2168 38.7748L6.44977 40.9497C6.33784 41.0144 6.21425 41.0565 6.08607 41.0734C5.95789 41.0903 5.82764 41.0818 5.70275 41.0483C5.57787 41.0149 5.4608 40.9571 5.35825 40.8784C5.25571 40.7996 5.16968 40.7015 5.10511 40.5894C4.97458 40.3633 4.93921 40.0947 5.00677 39.8425C5.07434 39.5903 5.23931 39.3753 5.46539 39.2448L9.23238 37.0699C9.70345 36.7981 10.3053 36.9594 10.577 37.4301ZM38.904 24.7138H37.847C37.631 23.9508 37.3263 23.2158 36.9391 22.5239L37.6869 21.7762C37.7784 21.6848 37.8509 21.5763 37.9004 21.4568C37.9498 21.3374 37.9753 21.2094 37.9753 21.0801C37.9753 20.9509 37.9499 20.8229 37.9004 20.7034C37.8509 20.584 37.7785 20.4755 37.687 20.384L35.106 17.8028C34.9214 17.6182 34.6711 17.5145 34.41 17.5145C34.149 17.5145 33.8986 17.6182 33.714 17.8028L32.966 18.5507C32.274 18.1635 31.539 17.8588 30.7761 17.6428V16.5859C30.7761 16.3248 30.6724 16.0744 30.4878 15.8898C30.3032 15.7052 30.0528 15.6015 29.7917 15.6015H26.1415C25.8805 15.6015 25.6301 15.7052 25.4455 15.8898C25.2609 16.0744 25.1572 16.3248 25.1572 16.5859V17.6428C24.3941 17.8587 23.6591 18.1634 22.967 18.5506L22.2193 17.8029C22.1279 17.7115 22.0194 17.639 21.9 17.5895C21.7805 17.54 21.6525 17.5145 21.5232 17.5145C21.3939 17.5145 21.2659 17.54 21.1465 17.5895C21.027 17.639 20.9185 17.7115 20.8271 17.8029L18.2459 20.3842C18.1544 20.4756 18.0819 20.5841 18.0325 20.7035C17.983 20.8229 17.9575 20.9509 17.9575 21.0802C17.9575 21.2095 17.983 21.3375 18.0325 21.4569C18.0819 21.5764 18.1544 21.6849 18.2459 21.7763L18.9937 22.524C18.6064 23.2159 18.3016 23.951 18.0857 24.714H17.0292C16.7681 24.714 16.5177 24.8177 16.3331 25.0023C16.1485 25.1869 16.0448 25.4373 16.0448 25.6984V29.3488C16.0448 29.6098 16.1485 29.8602 16.3331 30.0448C16.5177 30.2294 16.7681 30.3331 17.0292 30.3331H18.0858C18.3018 31.0961 18.6065 31.8311 18.9937 32.5231L18.2459 33.2708C18.0613 33.4555 17.9576 33.7059 17.9576 33.9669C17.9576 34.228 18.0613 34.4784 18.2459 34.6631L20.8271 37.2443C21.0117 37.4289 21.2621 37.5326 21.5232 37.5325C21.7843 37.5325 22.0346 37.4288 22.2192 37.2442L22.9669 36.4965C23.659 36.8837 24.394 37.1884 25.157 37.4043V38.4611C25.157 38.7222 25.2608 38.9726 25.4454 39.1572C25.63 39.3418 25.8804 39.4455 26.1414 39.4455H29.7916C30.0527 39.4455 30.303 39.3418 30.4877 39.1572C30.6723 38.9726 30.776 38.7222 30.776 38.4611V37.4042C31.5389 37.1883 32.274 36.8836 32.966 36.4964L33.7139 37.2442C33.8053 37.3356 33.9138 37.4081 34.0333 37.4576C34.1527 37.507 34.2807 37.5325 34.41 37.5325C34.5392 37.5325 34.6672 37.507 34.7867 37.4575C34.9061 37.408 35.0146 37.3355 35.106 37.2441L37.687 34.663C37.7785 34.5715 37.851 34.463 37.9004 34.3436C37.9499 34.2242 37.9754 34.0962 37.9754 33.9669C37.9754 33.8376 37.9499 33.7096 37.9004 33.5902C37.851 33.4708 37.7785 33.3622 37.687 33.2708L36.9392 32.523C37.3263 31.831 37.631 31.096 37.8471 30.3331H38.904C39.165 30.3331 39.4154 30.2294 39.6 30.0448C39.7846 29.8602 39.8883 29.6098 39.8883 29.3488V25.6984C39.8884 25.5691 39.8629 25.441 39.8135 25.3216C39.764 25.2021 39.6915 25.0936 39.6001 25.0022C39.5087 24.9107 39.4002 24.8382 39.2807 24.7887C39.1613 24.7392 39.0332 24.7138 38.904 24.7138ZM37.9196 28.3642H37.0724C36.8447 28.3642 36.6241 28.4431 36.4481 28.5875C36.2721 28.7318 36.1515 28.9328 36.107 29.156C35.8962 30.2169 35.4781 31.2258 34.8765 32.1247C34.7502 32.314 34.6934 32.5413 34.7158 32.7678C34.7381 32.9943 34.8383 33.206 34.9993 33.367L35.5989 33.9667L34.4098 35.1557L33.8101 34.5561C33.6492 34.3951 33.4374 34.2948 33.2109 34.2725C32.9843 34.2501 32.757 34.307 32.5678 34.4335C31.6689 35.035 30.6601 35.4531 29.5992 35.6638C29.3759 35.7084 29.175 35.8289 29.0306 36.0049C28.8862 36.1809 28.8073 36.4015 28.8073 36.6292V37.4764H27.1259V36.6292C27.1259 36.4015 27.047 36.1808 26.9025 36.0048C26.7581 35.8288 26.5571 35.7083 26.3338 35.6638C25.2729 35.4532 24.2641 35.0351 23.3653 34.4335C23.1759 34.3071 22.9486 34.2502 22.7221 34.2726C22.4955 34.2949 22.2837 34.3952 22.1228 34.5562L21.5233 35.1558L20.3342 33.9667L20.9338 33.367C21.0947 33.206 21.1949 32.9942 21.2172 32.7677C21.2396 32.5412 21.1827 32.3139 21.0564 32.1246C20.4548 31.2257 20.0367 30.2169 19.826 29.156C19.7815 28.9328 19.661 28.7318 19.4849 28.5875C19.3089 28.4431 19.0883 28.3642 18.8607 28.3642H18.0137V26.6825H18.8607C19.0883 26.6825 19.309 26.6036 19.485 26.4592C19.661 26.3147 19.7815 26.1137 19.826 25.8904C20.0367 24.8296 20.4548 23.8209 21.0564 22.9221C21.1827 22.7328 21.2396 22.5055 21.2172 22.2789C21.1949 22.0524 21.0947 21.8406 20.9338 21.6796L20.3342 21.08L21.5233 19.8909L22.1228 20.4905C22.2837 20.6514 22.4955 20.7516 22.7221 20.774C22.9486 20.7964 23.1759 20.7396 23.3653 20.6132C24.2642 20.0116 25.2732 19.5934 26.3341 19.3827C26.5574 19.3382 26.7583 19.2176 26.9026 19.0416C27.047 18.8656 27.1259 18.645 27.1259 18.4174V17.5702H28.8073V18.4174C28.8073 18.645 28.8862 18.8656 29.0306 19.0417C29.175 19.2177 29.3759 19.3382 29.5992 19.3827C30.6601 19.5935 31.6689 20.0116 32.5678 20.6132C32.7571 20.7396 32.9844 20.7964 33.2109 20.7741C33.4374 20.7517 33.6492 20.6515 33.8101 20.4905L34.4098 19.8908L35.5989 21.0799L34.9992 21.6796C34.8381 21.8406 34.7379 22.0524 34.7156 22.279C34.6932 22.5056 34.7501 22.733 34.8765 22.9223C35.4781 23.8211 35.8963 24.8299 36.107 25.8907C36.1516 26.114 36.2721 26.3149 36.4481 26.4592C36.6241 26.6036 36.8447 26.6825 37.0724 26.6825H37.9196V28.3642ZM27.9662 20.8515C24.2874 20.8515 21.2946 23.8446 21.2946 27.5234C21.2946 31.2022 24.2874 34.1952 27.9662 34.1952C31.6452 34.1952 34.6381 31.2022 34.6381 27.5234C34.6381 23.8446 31.6452 20.8515 27.9662 20.8515ZM27.9662 32.2264C25.3731 32.2264 23.2633 30.1167 23.2633 27.5234C23.2633 24.9301 25.3731 22.8203 27.9662 22.8203C30.5595 22.8203 32.6694 24.9301 32.6694 27.5234C32.6694 30.1167 30.5595 32.2264 27.9662 32.2264ZM45.3562 17.3505C45.2257 17.1244 45.1903 16.8558 45.2579 16.6036C45.3254 16.3514 45.4904 16.1364 45.7165 16.0059L49.4832 13.8311C49.7093 13.7005 49.978 13.6652 50.2302 13.7327C50.4824 13.8003 50.6974 13.9653 50.8279 14.1913C50.9584 14.4174 50.9938 14.6861 50.9262 14.9383C50.8587 15.1905 50.6937 15.4055 50.4676 15.536L46.7009 17.7108C46.5889 17.7755 46.4653 17.8174 46.3372 17.8343C46.209 17.8512 46.0788 17.8427 45.9539 17.8092C45.829 17.7758 45.712 17.7181 45.6094 17.6393C45.5069 17.5606 45.4208 17.4625 45.3562 17.3505ZM54.4312 27.4082C54.4312 27.6693 54.3274 27.9197 54.1428 28.1043C53.9582 28.2889 53.7079 28.3926 53.4468 28.3926H49.0969C48.5532 28.3926 48.1126 27.9519 48.1126 27.4082C48.1126 26.8645 48.5532 26.4238 49.0969 26.4238H53.4468C53.7079 26.4238 53.9582 26.5276 54.1428 26.7122C54.3274 26.8968 54.4312 27.1471 54.4312 27.4082ZM50.8279 40.5894C50.7633 40.7015 50.6773 40.7996 50.5748 40.8784C50.4722 40.9571 50.3551 41.0149 50.2303 41.0483C50.1054 41.0818 49.9751 41.0903 49.8469 41.0734C49.7188 41.0565 49.5952 41.0144 49.4832 40.9497L45.7165 38.7748C45.4904 38.6443 45.3254 38.4293 45.2579 38.1771C45.1903 37.9249 45.2257 37.6562 45.3562 37.4301C45.4208 37.3182 45.5069 37.22 45.6094 37.1413C45.712 37.0626 45.829 37.0049 45.9539 36.9714C46.0788 36.938 46.209 36.9295 46.3372 36.9463C46.4653 36.9632 46.5889 37.0052 46.7009 37.0699L50.4676 39.2448C50.6937 39.3753 50.8587 39.5903 50.9262 39.8425C50.9938 40.0947 50.9584 40.3633 50.8279 40.5894ZM26.9821 6.3263V1.97656C26.9821 1.43286 27.4228 0.992188 27.9665 0.992188C28.5102 0.992188 28.9508 1.43286 28.9508 1.97656V6.3263C28.9508 6.58737 28.8471 6.83775 28.6625 7.02236C28.4779 7.20696 28.2275 7.31067 27.9665 7.31067C27.7054 7.31067 27.455 7.20696 27.2704 7.02236C27.0858 6.83775 26.9821 6.58737 26.9821 6.3263ZM14.4071 5.87359C14.2766 5.6475 14.2412 5.37882 14.3088 5.12665C14.3764 4.87448 14.5413 4.65948 14.7674 4.52894C15.238 4.25703 15.8402 4.41847 16.1121 4.88911L18.2872 8.65598C18.4177 8.88207 18.4531 9.15076 18.3855 9.40293C18.318 9.6551 18.153 9.8701 17.9269 10.0006C17.815 10.0653 17.6914 10.1073 17.5632 10.1242C17.4351 10.1411 17.3048 10.1326 17.18 10.0991C17.0551 10.0657 16.9381 10.0079 16.8355 9.92925C16.7329 9.85056 16.6469 9.75243 16.5823 9.64047L14.4071 5.87359ZM37.6463 8.6562L39.821 4.88933C39.8849 4.77602 39.9706 4.6765 40.0732 4.59653C40.1758 4.51655 40.2933 4.45772 40.4188 4.42341C40.5443 4.38911 40.6753 4.38002 40.8044 4.39668C40.9334 4.41333 41.0578 4.4554 41.1705 4.52044C41.2832 4.58549 41.3818 4.67222 41.4608 4.77563C41.5397 4.87903 41.5974 4.99706 41.6304 5.12289C41.6635 5.24872 41.6712 5.37985 41.6533 5.50871C41.6354 5.63756 41.5921 5.76158 41.5259 5.87359L39.3512 9.64047C39.2866 9.75245 39.2005 9.85059 39.098 9.92931C38.9954 10.008 38.8784 10.0658 38.7535 10.0992C38.6287 10.1327 38.4984 10.1412 38.3702 10.1244C38.2421 10.1075 38.1185 10.0655 38.0065 10.0009C37.7804 9.87032 37.6155 9.65532 37.5479 9.40315C37.4803 9.15098 37.5157 8.88229 37.6463 8.6562Z" fill="black"/>
</g>
</g>
</mask>
<g mask="url(#mask0_1_20063)">
<rect y="0.773438" width="56" height="56" fill="#405FF2"/>
</g>
<defs>
<clipPath id="clip0_1_20063">
<rect width="56" height="56" fill="white" transform="translate(0 0.773438)"/>
</clipPath>
<clipPath id="clip1_1_20063">
<rect width="56" height="56" fill="white" transform="translate(0 0.773438)"/>
</clipPath>
</defs>
</svg>
