<svg width="85" height="66" viewBox="0 0 85 66" fill="none" xmlns="http://www.w3.org/2000/svg">
<g clip-path="url(#clip0_1_19777)">
<path fill-rule="evenodd" clip-rule="evenodd" d="M29.6095 3.22317C30.379 2.41272 31.3181 1.78227 32.3595 1.37687C33.3438 0.979291 34.4725 0.706806 36.1317 0.635049C37.7821 0.556503 38.3125 0.537109 42.5249 0.537109C46.7382 0.537109 47.2686 0.556503 48.921 0.634079C50.5734 0.712625 51.7021 0.979291 52.6863 1.3759C53.7276 1.78199 54.6664 2.41311 55.4354 3.22414C56.2936 4.1085 56.8231 5.00644 57.2206 6.05372C57.5988 7.06899 57.8635 8.23263 57.9392 9.93735C58.0148 11.6421 58.0342 12.188 58.0342 16.5342C58.0342 20.8794 58.0148 21.4263 57.9392 23.1301C57.8635 24.8348 57.6056 25.9994 57.2206 27.0137C56.8342 28.0768 56.2233 29.0442 55.4296 29.8501C54.6603 30.6612 53.7212 31.2924 52.6795 31.6983C51.6953 32.0881 50.5666 32.3616 48.9142 32.4392C47.2619 32.5167 46.7324 32.5371 42.5191 32.5371C38.3057 32.5371 37.7763 32.5177 36.1239 32.4401C34.4715 32.3616 33.3428 32.0949 32.3586 31.6983C31.3169 31.2923 30.3779 30.6612 29.6085 29.8501C28.8155 29.044 28.2053 28.0766 27.8194 27.0137C27.4403 25.9994 27.1755 24.8348 27.0999 23.131C27.0243 21.4263 27.0049 20.8794 27.0049 16.5342C27.0049 12.188 27.0243 11.6421 27.0999 9.93735C27.1755 8.23263 27.4335 7.06899 27.8185 6.05372C28.216 5.00644 28.7455 4.10753 29.6095 3.22317ZM51.6711 4.06293C51.1222 3.84184 50.3028 3.58196 48.7891 3.5102C47.1562 3.43262 46.6635 3.41905 42.52 3.41905C38.3765 3.41905 37.8849 3.43165 36.2509 3.5102C34.7372 3.58196 33.9169 3.84184 33.369 4.06293C32.6915 4.3224 32.0813 4.73143 31.5838 5.25953C31.0408 5.81905 30.7072 6.35335 30.4231 7.10196C30.2097 7.66729 29.9566 8.51287 29.8868 10.0741C29.818 11.7584 29.7995 12.2656 29.7995 16.54C29.7995 20.8144 29.8112 21.3216 29.8868 23.0069C29.9566 24.5681 30.2088 25.4137 30.4231 25.98C30.7072 26.7277 31.0417 27.261 31.5838 27.8205C32.1268 28.38 32.6437 28.7252 33.368 29.0181C33.9169 29.2392 34.7372 29.4991 36.2509 29.5708C37.8839 29.6426 38.3765 29.662 42.52 29.662C46.6635 29.662 47.1552 29.6484 48.7891 29.5708C50.3028 29.4991 51.1232 29.2392 51.6711 29.0181C52.3487 28.7584 52.959 28.349 53.4563 27.8205C53.9993 27.261 54.3329 26.7277 54.617 25.98C54.8303 25.4137 55.0834 24.5681 55.1532 23.0069C55.2221 21.3216 55.2405 20.8144 55.2405 16.54C55.2405 12.2666 55.2289 11.7594 55.1532 10.0741C55.0834 8.51287 54.8313 7.66729 54.617 7.10099C54.3329 6.35335 53.9983 5.81905 53.4563 5.25953C52.9591 4.73152 52.3483 4.3225 51.6711 4.06293Z" fill="url(#paint0_radial_1_19777)"/>
<path fill-rule="evenodd" clip-rule="evenodd" d="M43.0051 24.7798C40.8191 24.7798 38.7226 23.9114 37.1768 22.3656C35.6311 20.8199 34.7627 18.7234 34.7627 16.5373C34.7627 11.9827 38.4505 8.29492 43.0051 8.29492C45.1911 8.29492 47.2876 9.16332 48.8334 10.7091C50.3791 12.2548 51.2475 14.3513 51.2475 16.5373C51.2475 18.7234 50.3791 20.8199 48.8334 22.3656C47.2876 23.9114 45.1911 24.7798 43.0051 24.7798ZM43.0051 21.8891C43.708 21.8894 44.404 21.7511 45.0534 21.4822C45.7029 21.2134 46.2929 20.8192 46.79 20.3222C47.287 19.8252 47.6812 19.2351 47.95 18.5857C48.2189 17.9363 48.3571 17.2402 48.3569 16.5373C48.3571 15.8345 48.2189 15.1384 47.95 14.489C47.6812 13.8396 47.287 13.2495 46.79 12.7525C46.2929 12.2555 45.7029 11.8613 45.0534 11.5924C44.404 11.3236 43.708 11.1853 43.0051 11.1856C42.3022 11.1853 41.6062 11.3236 40.9568 11.5924C40.3074 11.8613 39.7173 12.2555 39.2203 12.7525C38.7233 13.2495 38.3291 13.8396 38.0602 14.489C37.7914 15.1384 37.6531 15.8345 37.6534 16.5373C37.6531 17.2402 37.7914 17.9363 38.0602 18.5857C38.3291 19.2351 38.7233 19.8252 39.2203 20.3222C39.7173 20.8192 40.3074 21.2134 40.9568 21.4822C41.6062 21.7511 42.3022 21.8894 43.0051 21.8891Z" fill="url(#paint1_radial_1_19777)"/>
<path fill-rule="evenodd" clip-rule="evenodd" d="M50.2778 9.26355C50.7921 9.26355 51.2854 9.05922 51.6491 8.69552C52.0128 8.33181 52.2172 7.83852 52.2172 7.32416C52.2172 6.8098 52.0128 6.31651 51.6491 5.9528C51.2854 5.58909 50.7921 5.38477 50.2778 5.38477C49.7634 5.38477 49.2701 5.58909 48.9064 5.9528C48.5427 6.31651 48.3384 6.8098 48.3384 7.32416C48.3384 7.83852 48.5427 8.33181 48.9064 8.69552C49.2701 9.05922 49.7634 9.26355 50.2778 9.26355Z" fill="#654C9F"/>
</g>
<path d="M13.4878 47.584V57.5371H12.1685V47.584H13.4878ZM16.9604 51.7197V57.5371H15.6958V50.1406H16.8921L16.9604 51.7197ZM16.6597 53.5586L16.1333 53.5381C16.1379 53.0322 16.2131 52.5651 16.3589 52.1367C16.5047 51.7038 16.7098 51.3278 16.9741 51.0088C17.2384 50.6898 17.5529 50.4437 17.9175 50.2705C18.2866 50.0928 18.6945 50.0039 19.1411 50.0039C19.5057 50.0039 19.8338 50.054 20.1255 50.1543C20.4172 50.25 20.6655 50.4049 20.8706 50.6191C21.0802 50.8333 21.2397 51.1113 21.3491 51.4531C21.4585 51.7904 21.5132 52.2028 21.5132 52.6904V57.5371H20.2417V52.6768C20.2417 52.2894 20.1847 51.9795 20.0708 51.7471C19.9569 51.5101 19.7905 51.3392 19.5718 51.2344C19.353 51.125 19.0841 51.0703 18.7651 51.0703C18.4507 51.0703 18.1636 51.1364 17.9038 51.2686C17.6486 51.4007 17.4276 51.583 17.2407 51.8154C17.0584 52.0479 16.9149 52.3145 16.8101 52.6152C16.7098 52.9115 16.6597 53.2259 16.6597 53.5586ZM27.7407 55.5752C27.7407 55.3929 27.6997 55.2243 27.6177 55.0693C27.5402 54.9098 27.3784 54.7663 27.1323 54.6387C26.8908 54.5065 26.5262 54.3926 26.0386 54.2969C25.6284 54.2103 25.257 54.1077 24.9243 53.9893C24.5962 53.8708 24.3159 53.7272 24.0835 53.5586C23.8556 53.39 23.6802 53.1917 23.5571 52.9639C23.4341 52.736 23.3726 52.4694 23.3726 52.1641C23.3726 51.8724 23.4364 51.5967 23.564 51.3369C23.6961 51.0771 23.8807 50.847 24.1177 50.6465C24.3592 50.446 24.6486 50.2887 24.9858 50.1748C25.3231 50.0609 25.6991 50.0039 26.1138 50.0039C26.7062 50.0039 27.2121 50.1087 27.6313 50.3184C28.0506 50.528 28.3719 50.8083 28.5952 51.1592C28.8185 51.5055 28.9302 51.8906 28.9302 52.3145H27.6655C27.6655 52.1094 27.604 51.9111 27.481 51.7197C27.3625 51.5238 27.187 51.362 26.9546 51.2344C26.7267 51.1068 26.4465 51.043 26.1138 51.043C25.7629 51.043 25.478 51.0977 25.2593 51.207C25.0451 51.3118 24.8879 51.4463 24.7876 51.6104C24.6919 51.7744 24.644 51.9476 24.644 52.1299C24.644 52.2666 24.6668 52.3896 24.7124 52.499C24.7625 52.6038 24.8491 52.7018 24.9722 52.793C25.0952 52.8796 25.2684 52.9616 25.4917 53.0391C25.715 53.1165 25.9998 53.194 26.3462 53.2715C26.9523 53.4082 27.4513 53.5723 27.8433 53.7637C28.2352 53.9551 28.5269 54.1898 28.7183 54.4678C28.9097 54.7458 29.0054 55.083 29.0054 55.4795C29.0054 55.8031 28.937 56.0993 28.8003 56.3682C28.6681 56.637 28.4744 56.8695 28.2192 57.0654C27.9686 57.2568 27.6678 57.4072 27.3169 57.5166C26.9705 57.6214 26.5809 57.6738 26.1479 57.6738C25.4963 57.6738 24.9448 57.5576 24.4937 57.3252C24.0425 57.0928 23.7007 56.792 23.4683 56.4229C23.2358 56.0537 23.1196 55.6641 23.1196 55.2539H24.3911C24.4093 55.6003 24.5096 55.876 24.6919 56.0811C24.8742 56.2816 25.0975 56.4251 25.3618 56.5117C25.6261 56.5938 25.8882 56.6348 26.1479 56.6348C26.4943 56.6348 26.7837 56.5892 27.0161 56.498C27.2531 56.4069 27.4331 56.2816 27.5562 56.1221C27.6792 55.9626 27.7407 55.7803 27.7407 55.5752ZM33.7632 50.1406V51.1113H29.7642V50.1406H33.7632ZM31.1177 48.3428H32.3823V55.7051C32.3823 55.9557 32.4211 56.1449 32.4985 56.2725C32.576 56.4001 32.6763 56.4844 32.7993 56.5254C32.9224 56.5664 33.0545 56.5869 33.1958 56.5869C33.3006 56.5869 33.41 56.5778 33.5239 56.5596C33.6424 56.5368 33.7313 56.5186 33.7905 56.5049L33.7974 57.5371C33.6971 57.569 33.5649 57.5986 33.4009 57.626C33.2414 57.6579 33.0477 57.6738 32.8198 57.6738C32.5099 57.6738 32.2251 57.6123 31.9653 57.4893C31.7056 57.3662 31.4982 57.1611 31.3433 56.874C31.1929 56.5824 31.1177 56.1904 31.1177 55.6982V48.3428ZM39.6079 56.2725V52.4648C39.6079 52.1732 39.5487 51.9202 39.4302 51.7061C39.3162 51.4873 39.1431 51.3187 38.9106 51.2002C38.6782 51.0817 38.3911 51.0225 38.0493 51.0225C37.7303 51.0225 37.45 51.0771 37.2085 51.1865C36.9715 51.2959 36.7847 51.4395 36.6479 51.6172C36.5158 51.7949 36.4497 51.9863 36.4497 52.1914H35.1851C35.1851 51.9271 35.2534 51.665 35.3901 51.4053C35.5269 51.1455 35.7228 50.9108 35.978 50.7012C36.2378 50.487 36.5477 50.3184 36.9077 50.1953C37.2723 50.0677 37.6779 50.0039 38.1245 50.0039C38.6623 50.0039 39.1362 50.0951 39.5464 50.2773C39.9611 50.4596 40.2847 50.7354 40.5171 51.1045C40.7541 51.4691 40.8726 51.9271 40.8726 52.4785V55.9238C40.8726 56.1699 40.8931 56.432 40.9341 56.71C40.9797 56.988 41.0457 57.2272 41.1323 57.4277V57.5371H39.813C39.7492 57.3913 39.6991 57.1976 39.6626 56.9561C39.6261 56.71 39.6079 56.4821 39.6079 56.2725ZM39.8267 53.0527L39.8403 53.9414H38.562C38.202 53.9414 37.8807 53.971 37.5981 54.0303C37.3156 54.085 37.0786 54.1693 36.8872 54.2832C36.6958 54.3971 36.55 54.5407 36.4497 54.7139C36.3494 54.8825 36.2993 55.0807 36.2993 55.3086C36.2993 55.541 36.3517 55.7529 36.4565 55.9443C36.5614 56.1357 36.7186 56.2884 36.9282 56.4023C37.1424 56.5117 37.4045 56.5664 37.7144 56.5664C38.1017 56.5664 38.4435 56.4844 38.7397 56.3203C39.036 56.1562 39.2707 55.9557 39.4438 55.7188C39.6216 55.4818 39.7173 55.2516 39.731 55.0283L40.271 55.6367C40.2391 55.8281 40.1525 56.04 40.0112 56.2725C39.87 56.5049 39.6808 56.7282 39.4438 56.9424C39.2114 57.152 38.9334 57.3275 38.6099 57.4688C38.2909 57.6055 37.9308 57.6738 37.5298 57.6738C37.0285 57.6738 36.5887 57.5758 36.2104 57.3799C35.8368 57.1839 35.5451 56.9219 35.3354 56.5938C35.1304 56.2611 35.0278 55.8896 35.0278 55.4795C35.0278 55.083 35.1053 54.7344 35.2603 54.4336C35.4152 54.1283 35.6385 53.8753 35.9302 53.6748C36.2218 53.4697 36.5728 53.3148 36.9829 53.21C37.3931 53.1051 37.8511 53.0527 38.3569 53.0527H39.8267ZM47.6538 50.1406H48.8022V57.3799C48.8022 58.0316 48.6701 58.5876 48.4058 59.0479C48.1414 59.5081 47.7723 59.8568 47.2983 60.0938C46.8289 60.3353 46.2866 60.4561 45.6714 60.4561C45.4162 60.4561 45.1154 60.415 44.769 60.333C44.4272 60.2555 44.09 60.1211 43.7573 59.9297C43.4292 59.7428 43.1535 59.4899 42.9302 59.1709L43.5933 58.4189C43.9032 58.7926 44.2267 59.0524 44.564 59.1982C44.9058 59.3441 45.243 59.417 45.5757 59.417C45.9767 59.417 46.3231 59.3418 46.6147 59.1914C46.9064 59.041 47.132 58.8177 47.2915 58.5215C47.4556 58.2298 47.5376 57.8698 47.5376 57.4414V51.7676L47.6538 50.1406ZM42.561 53.9209V53.7773C42.561 53.2122 42.6271 52.6995 42.7593 52.2393C42.896 51.7744 43.0897 51.3757 43.3403 51.043C43.5955 50.7103 43.9032 50.4551 44.2632 50.2773C44.6232 50.0951 45.0288 50.0039 45.48 50.0039C45.9448 50.0039 46.3504 50.0859 46.6968 50.25C47.0477 50.4095 47.3439 50.6442 47.5854 50.9541C47.8315 51.2594 48.0252 51.6286 48.1665 52.0615C48.3078 52.4945 48.4058 52.9844 48.4604 53.5312V54.1602C48.4103 54.7025 48.3123 55.1901 48.1665 55.623C48.0252 56.056 47.8315 56.4251 47.5854 56.7305C47.3439 57.0358 47.0477 57.2705 46.6968 57.4346C46.3459 57.5941 45.9357 57.6738 45.4663 57.6738C45.0243 57.6738 44.6232 57.5804 44.2632 57.3936C43.9077 57.2067 43.6024 56.9447 43.3472 56.6074C43.092 56.2702 42.896 55.8737 42.7593 55.418C42.6271 54.9577 42.561 54.4587 42.561 53.9209ZM43.8257 53.7773V53.9209C43.8257 54.29 43.8621 54.6364 43.9351 54.96C44.0125 55.2835 44.1287 55.5684 44.2837 55.8145C44.4432 56.0605 44.646 56.2542 44.8921 56.3955C45.1382 56.5322 45.4321 56.6006 45.7739 56.6006C46.1932 56.6006 46.5396 56.5117 46.813 56.334C47.0864 56.1562 47.3029 55.9215 47.4624 55.6299C47.6265 55.3382 47.7541 55.0215 47.8452 54.6797V53.0322C47.7951 52.7816 47.7176 52.54 47.6128 52.3076C47.5125 52.0706 47.3804 51.861 47.2163 51.6787C47.0568 51.4919 46.8586 51.3438 46.6216 51.2344C46.3846 51.125 46.1066 51.0703 45.7876 51.0703C45.4412 51.0703 45.1427 51.1432 44.8921 51.2891C44.646 51.4303 44.4432 51.6263 44.2837 51.877C44.1287 52.123 44.0125 52.4102 43.9351 52.7383C43.8621 53.0618 43.8257 53.4082 43.8257 53.7773ZM51.9878 51.3027V57.5371H50.7231V50.1406H51.9536L51.9878 51.3027ZM54.2983 50.0996L54.2915 51.2754C54.1867 51.2526 54.0864 51.2389 53.9907 51.2344C53.8996 51.2253 53.7948 51.2207 53.6763 51.2207C53.3846 51.2207 53.1271 51.2663 52.9038 51.3574C52.6805 51.4486 52.4914 51.5762 52.3364 51.7402C52.1815 51.9043 52.0584 52.1003 51.9673 52.3281C51.8807 52.5514 51.8237 52.7975 51.7964 53.0664L51.4409 53.2715C51.4409 52.8249 51.4842 52.4056 51.5708 52.0137C51.6619 51.6217 51.8009 51.2754 51.9878 50.9746C52.1746 50.6693 52.4116 50.4323 52.6987 50.2637C52.9904 50.0905 53.3368 50.0039 53.7378 50.0039C53.8289 50.0039 53.9338 50.0153 54.0522 50.0381C54.1707 50.0563 54.2528 50.0768 54.2983 50.0996ZM59.5552 56.2725V52.4648C59.5552 52.1732 59.4959 51.9202 59.3774 51.7061C59.2635 51.4873 59.0903 51.3187 58.8579 51.2002C58.6255 51.0817 58.3384 51.0225 57.9966 51.0225C57.6776 51.0225 57.3973 51.0771 57.1558 51.1865C56.9188 51.2959 56.7319 51.4395 56.5952 51.6172C56.4631 51.7949 56.397 51.9863 56.397 52.1914H55.1323C55.1323 51.9271 55.2007 51.665 55.3374 51.4053C55.4741 51.1455 55.6701 50.9108 55.9253 50.7012C56.1851 50.487 56.495 50.3184 56.855 50.1953C57.2196 50.0677 57.6252 50.0039 58.0718 50.0039C58.6095 50.0039 59.0835 50.0951 59.4937 50.2773C59.9084 50.4596 60.2319 50.7354 60.4644 51.1045C60.7013 51.4691 60.8198 51.9271 60.8198 52.4785V55.9238C60.8198 56.1699 60.8403 56.432 60.8813 56.71C60.9269 56.988 60.993 57.2272 61.0796 57.4277V57.5371H59.7603C59.6965 57.3913 59.6463 57.1976 59.6099 56.9561C59.5734 56.71 59.5552 56.4821 59.5552 56.2725ZM59.7739 53.0527L59.7876 53.9414H58.5093C58.1493 53.9414 57.828 53.971 57.5454 54.0303C57.2629 54.085 57.0259 54.1693 56.8345 54.2832C56.6431 54.3971 56.4972 54.5407 56.397 54.7139C56.2967 54.8825 56.2466 55.0807 56.2466 55.3086C56.2466 55.541 56.299 55.7529 56.4038 55.9443C56.5086 56.1357 56.6659 56.2884 56.8755 56.4023C57.0897 56.5117 57.3517 56.5664 57.6616 56.5664C58.049 56.5664 58.3908 56.4844 58.687 56.3203C58.9832 56.1562 59.2179 55.9557 59.3911 55.7188C59.5688 55.4818 59.6646 55.2516 59.6782 55.0283L60.2183 55.6367C60.1864 55.8281 60.0998 56.04 59.9585 56.2725C59.8172 56.5049 59.6281 56.7282 59.3911 56.9424C59.1587 57.152 58.8807 57.3275 58.5571 57.4688C58.2381 57.6055 57.8781 57.6738 57.4771 57.6738C56.9757 57.6738 56.536 57.5758 56.1577 57.3799C55.784 57.1839 55.4924 56.9219 55.2827 56.5938C55.0776 56.2611 54.9751 55.8896 54.9751 55.4795C54.9751 55.083 55.0526 54.7344 55.2075 54.4336C55.3625 54.1283 55.5858 53.8753 55.8774 53.6748C56.1691 53.4697 56.52 53.3148 56.9302 53.21C57.3403 53.1051 57.7983 53.0527 58.3042 53.0527H59.7739ZM64.0669 51.6104V57.5371H62.7954V50.1406H63.9985L64.0669 51.6104ZM63.8071 53.5586L63.2192 53.5381C63.2238 53.0322 63.2899 52.5651 63.4175 52.1367C63.5451 51.7038 63.7342 51.3278 63.9849 51.0088C64.2355 50.6898 64.5477 50.4437 64.9214 50.2705C65.2951 50.0928 65.728 50.0039 66.2202 50.0039C66.5666 50.0039 66.8856 50.054 67.1772 50.1543C67.4689 50.25 67.7218 50.4027 67.936 50.6123C68.1502 50.8219 68.3166 51.0908 68.4351 51.4189C68.5535 51.7471 68.6128 52.1436 68.6128 52.6084V57.5371H67.3481V52.6699C67.3481 52.2826 67.2821 51.9727 67.1499 51.7402C67.0223 51.5078 66.84 51.3392 66.603 51.2344C66.366 51.125 66.0881 51.0703 65.769 51.0703C65.3953 51.0703 65.0832 51.1364 64.8325 51.2686C64.5819 51.4007 64.3813 51.583 64.231 51.8154C64.0806 52.0479 63.9712 52.3145 63.9028 52.6152C63.839 52.9115 63.8071 53.2259 63.8071 53.5586ZM68.5991 52.8613L67.7515 53.1211C67.756 52.7155 67.8221 52.3258 67.9497 51.9521C68.0819 51.5785 68.271 51.2458 68.5171 50.9541C68.7677 50.6624 69.0754 50.4323 69.4399 50.2637C69.8045 50.0905 70.2215 50.0039 70.6909 50.0039C71.0874 50.0039 71.4383 50.0563 71.7437 50.1611C72.0535 50.266 72.3133 50.4277 72.5229 50.6465C72.7371 50.8607 72.8989 51.1364 73.0083 51.4736C73.1177 51.8109 73.1724 52.2119 73.1724 52.6768V57.5371H71.9009V52.6631C71.9009 52.2484 71.8348 51.9271 71.7026 51.6992C71.575 51.4668 71.3927 51.305 71.1558 51.2139C70.9233 51.1182 70.6453 51.0703 70.3218 51.0703C70.0438 51.0703 69.7977 51.1182 69.5835 51.2139C69.3693 51.3096 69.1893 51.4417 69.0435 51.6104C68.8976 51.7744 68.786 51.9635 68.7085 52.1777C68.6356 52.3919 68.5991 52.6198 68.5991 52.8613Z" fill="#111111"/>
<defs>
<radialGradient id="paint0_radial_1_19777" cx="0" cy="0" r="1" gradientUnits="userSpaceOnUse" gradientTransform="translate(27.5692 29.6077) rotate(-3.0943) scale(44.8663 46.2604)">
<stop stop-color="#FED576"/>
<stop offset="0.263" stop-color="#F47133"/>
<stop offset="0.609" stop-color="#BC3081"/>
<stop offset="1" stop-color="#4C63D2"/>
</radialGradient>
<radialGradient id="paint1_radial_1_19777" cx="0" cy="0" r="1" gradientUnits="userSpaceOnUse" gradientTransform="translate(35.0614 23.2674) rotate(-3) scale(23.8378)">
<stop stop-color="#FED576"/>
<stop offset="0.263" stop-color="#F47133"/>
<stop offset="0.609" stop-color="#BC3081"/>
<stop offset="1" stop-color="#4C63D2"/>
</radialGradient>
<clipPath id="clip0_1_19777">
<rect width="31.0303" height="32" fill="white" transform="translate(27.0049 0.537109)"/>
</clipPath>
</defs>
</svg>
