<svg width="119" height="121" viewBox="0 0 119 121" fill="none" xmlns="http://www.w3.org/2000/svg">
<mask id="mask0_1_19643" style="mask-type:alpha" maskUnits="userSpaceOnUse" x="0" y="0" width="119" height="121">
<g clip-path="url(#clip0_1_19643)">
<g clip-path="url(#clip1_1_19643)">
<path d="M101.178 63.7221H89.6271C88.0551 63.7221 86.5331 63.9369 85.0846 64.3319C82.2272 58.7149 76.3936 54.8555 69.6715 54.8555H49.2543C42.5322 54.8555 36.6986 58.7149 33.8412 64.3319C32.3609 63.9273 30.8333 63.7222 29.2987 63.7221H17.748C8.21701 63.7221 0.462891 71.4762 0.462891 81.0072V99.4719C0.462891 105.191 5.11536 109.843 10.834 109.843H108.092C113.81 109.843 118.463 105.191 118.463 99.4719V81.0072C118.463 71.4762 110.709 63.7221 101.178 63.7221ZM31.9691 72.1411V102.929H10.834C8.92778 102.929 7.37695 101.378 7.37695 99.4721V81.0075C7.37695 75.2888 12.0294 70.6364 17.748 70.6364H29.2987C30.2371 70.6364 31.1459 70.7638 32.0111 70.9987C31.9846 71.3789 31.9706 71.7599 31.9691 72.1411ZM80.0426 102.929H38.8832V72.1409C38.8832 66.4222 43.5357 61.7698 49.2543 61.7698H69.6715C75.3901 61.7698 80.0426 66.4222 80.0426 72.1409V102.929ZM111.549 99.4721C111.549 101.378 109.998 102.929 108.092 102.929H86.9567V72.1409C86.9552 71.7597 86.9412 71.3787 86.9147 70.9984C87.7988 70.7581 88.7109 70.6363 89.6271 70.6361H101.178C106.896 70.6361 111.549 75.2886 111.549 81.0072V99.4721Z" fill="black"/>
<path d="M23.5236 31.0762C15.0541 31.0762 8.16382 37.9665 8.16382 46.436C8.16359 54.9055 15.0541 61.7958 23.5236 61.7958C31.9929 61.7958 38.8835 54.9055 38.8835 46.436C38.8835 37.9665 31.9931 31.0762 23.5236 31.0762ZM23.5234 54.8818C18.8663 54.8818 15.0776 51.0931 15.0776 46.436C15.0776 41.7789 18.8663 37.9902 23.5234 37.9902C28.1805 37.9902 31.9692 41.7789 31.9692 46.436C31.9692 51.0931 28.1805 54.8818 23.5234 54.8818Z" fill="black"/>
<path d="M59.4629 12C48.1478 12 38.9424 21.2054 38.9424 32.5205C38.9424 43.8356 48.1478 53.041 59.4629 53.041C70.778 53.041 79.9833 43.8356 79.9833 32.5205C79.9833 21.2056 70.778 12 59.4629 12ZM59.4629 46.1269C51.9602 46.1269 45.8564 40.0232 45.8564 32.5205C45.8564 25.018 51.9602 18.9141 59.4629 18.9141C66.9655 18.9141 73.0693 25.0178 73.0693 32.5205C73.0693 40.0232 66.9655 46.1269 59.4629 46.1269Z" fill="black"/>
<path d="M95.4023 31.0762C86.933 31.0762 80.0425 37.9665 80.0425 46.436C80.0427 54.9055 86.933 61.7958 95.4023 61.7958C103.872 61.7958 110.762 54.9055 110.762 46.436C110.762 37.9665 103.872 31.0762 95.4023 31.0762ZM95.4023 54.8818C90.7454 54.8818 86.9565 51.0931 86.9565 46.436C86.9568 41.7789 90.7454 37.9902 95.4023 37.9902C100.059 37.9902 103.848 41.7789 103.848 46.436C103.848 51.0931 100.059 54.8818 95.4023 54.8818Z" fill="black"/>
</g>
</g>
</mask>
<g mask="url(#mask0_1_19643)">
<rect x="0.462891" y="0.921875" width="118" height="120" fill="#D4DEE7"/>
</g>
<defs>
<clipPath id="clip0_1_19643">
<rect width="118" height="120" fill="white" transform="translate(0.462891 0.921875)"/>
</clipPath>
<clipPath id="clip1_1_19643">
<rect width="118" height="118" fill="white" transform="translate(0.462891 1.92188)"/>
</clipPath>
</defs>
</svg>
