<svg width="118" height="121" viewBox="0 0 118 121" fill="none" xmlns="http://www.w3.org/2000/svg">
<mask id="mask0_1_19683" style="mask-type:alpha" maskUnits="userSpaceOnUse" x="-1" y="0" width="119" height="121">
<g clip-path="url(#clip0_1_19683)">
<path d="M109.512 40.6398C102.137 20.7273 88.8617 6.71484 77.0617 6.71484C75.2179 6.71484 73.7429 7.08359 72.2679 7.45234C68.9492 8.55859 65.9992 11.1398 64.1554 14.4586C42.0304 39.5336 11.4242 50.9648 11.0554 50.9648C3.68042 53.5461 1.46792 65.3461 6.26167 78.2523C10.3179 89.3148 17.6929 96.3211 24.3304 96.3211C25.0679 96.3211 26.1742 96.3211 26.9117 95.9523C27.6492 95.5836 31.7054 94.8461 39.0804 93.7398L46.4554 109.227C46.8242 109.965 47.5617 110.702 48.6679 111.071L60.4679 115.127C60.8367 115.127 61.2054 115.496 61.5742 115.496C62.3117 115.496 63.0492 115.127 63.7867 114.759C64.8929 114.021 65.2617 112.546 65.2617 111.44L62.6804 90.4211C71.8992 89.6836 82.2242 89.3148 92.5492 90.0523H93.2867C94.7617 90.4211 96.2367 90.7898 97.7117 90.7898C99.5554 90.7898 101.03 90.4211 102.505 90.0523C108.774 87.8398 113.199 80.8336 114.305 70.8773C115.043 62.0273 113.568 50.9648 109.512 40.6398ZM52.3554 104.434L46.8242 92.2648L55.3054 91.1586L57.1492 105.909L52.3554 104.434ZM78.9054 69.0336C76.3242 64.9773 73.7429 60.1836 71.5304 54.2836C69.6867 48.7523 68.2117 43.5898 67.8429 38.4273C68.9492 38.4273 70.4242 39.5336 71.8992 40.6398C74.4804 43.2211 77.0617 47.2773 78.5367 51.7023C81.4867 60.1836 80.7492 66.8211 78.9054 69.0336ZM25.0679 88.9461H24.6992C22.1179 89.6836 16.5867 84.8898 12.8992 75.6711C9.58042 66.4523 11.0554 58.7086 13.2679 57.9711C14.3742 57.6023 38.3429 48.7523 60.0992 28.8398C59.7304 37.3211 61.2054 47.2773 64.5242 56.8648C68.5804 67.5586 74.1117 76.4086 80.3804 82.6773C51.6179 82.3086 26.1742 88.5773 25.0679 88.9461ZM106.562 70.1398C105.824 77.1461 103.243 81.5711 99.5554 83.0461C98.8179 83.4148 98.0804 83.4148 97.3429 83.4148C93.2867 83.4148 88.4929 80.4649 83.3304 74.5648C88.4929 70.1399 89.5992 60.1836 85.5429 49.1211C83.3304 43.5898 80.3804 38.7961 77.0617 35.4773C74.1117 32.5273 70.7929 31.0523 67.4742 31.0523C67.4742 29.5773 67.4742 28.4711 67.8429 27.3648C68.5804 20.3586 71.1617 15.9336 74.8492 14.4586C75.5867 14.0898 76.3242 14.0898 77.0617 14.0898C84.4367 14.0898 95.8679 25.1523 102.505 43.2211C106.193 52.4398 107.668 62.3961 106.562 70.1398Z" fill="black"/>
</g>
</mask>
<g mask="url(#mask0_1_19683)">
<rect x="-0.00708008" y="0.921875" width="118" height="120" fill="#CCCCCC"/>
</g>
<defs>
<clipPath id="clip0_1_19683">
<rect width="118" height="120" fill="white" transform="translate(-0.00708008 0.921875)"/>
</clipPath>
</defs>
</svg>
