<svg width="37" height="36" viewBox="0 0 37 36" fill="none" xmlns="http://www.w3.org/2000/svg">
<g clip-path="url(#clip0_1_19710)">
<path d="M34.4233 16.5372V18.0092C34.4214 21.4594 33.3041 24.8166 31.2383 27.5801C29.1724 30.3435 26.2686 32.3651 22.9599 33.3434C19.6512 34.3217 16.115 34.2042 12.8785 33.0085C9.64203 31.8128 6.87879 29.6029 5.00088 26.7085C3.12297 23.814 2.23101 20.3901 2.45802 16.9473C2.68504 13.5045 4.01887 10.2273 6.26059 7.60447C8.5023 4.98167 11.5318 3.15377 14.8972 2.39339C18.2627 1.63301 21.7838 1.9809 24.9353 3.38516" stroke="white" stroke-width="3" stroke-linecap="round" stroke-linejoin="round"/>
<path d="M34.4233 5.21094L18.4233 21.2289L13.6233 16.4289" stroke="white" stroke-width="3" stroke-linecap="round" stroke-linejoin="round"/>
</g>
<defs>
<clipPath id="clip0_1_19710">
<rect width="36" height="36" fill="white" transform="translate(0.42334)"/>
</clipPath>
</defs>
</svg>
