<svg width="61" height="66" viewBox="0 0 61 66" fill="none" xmlns="http://www.w3.org/2000/svg">
<g clip-path="url(#clip0_1_19769)">
<mask id="mask0_1_19769" style="mask-type:luminance" maskUnits="userSpaceOnUse" x="7" y="0" width="47" height="33">
<path fill-rule="evenodd" clip-rule="evenodd" d="M7.35205 0.537109H53.0663V32.5371H7.35205V0.537109Z" fill="white"/>
</mask>
<g mask="url(#mask0_1_19769)">
<path fill-rule="evenodd" clip-rule="evenodd" d="M25.5349 23.2857V9.78854L37.4858 16.5371L25.5349 23.2857ZM52.1166 5.53482C51.8569 4.56598 51.3467 3.68259 50.6373 2.97342C49.9279 2.26425 49.0444 1.7543 48.0755 1.49482C44.5098 0.537109 30.2092 0.537109 30.2092 0.537109C30.2092 0.537109 15.9098 0.537109 12.3498 1.49482C11.3809 1.7543 10.4973 2.26425 9.78794 2.97342C9.07857 3.68259 8.56837 4.56598 8.30862 5.53482C7.35205 9.0994 7.35205 16.5371 7.35205 16.5371C7.35205 16.5371 7.35205 23.9771 8.30862 27.5394C8.56837 28.5082 9.07857 29.3916 9.78794 30.1008C10.4973 30.81 11.3809 31.3199 12.3498 31.5794C15.9166 32.5371 30.2092 32.5371 30.2092 32.5371C30.2092 32.5371 44.5086 32.5371 48.0755 31.5794C49.0444 31.3199 49.9279 30.81 50.6373 30.1008C51.3467 29.3916 51.8569 28.5082 52.1166 27.5394C53.0663 23.976 53.0663 16.5371 53.0663 16.5371C53.0663 16.5371 53.0663 9.09711 52.1166 5.53482Z" fill="#FF0000"/>
</g>
</g>
<path d="M6.19434 47.584L8.77832 52.5811L11.3691 47.584H12.8662L9.43457 53.8184V57.5371H8.11523V53.8184L4.68359 47.584H6.19434ZM13.167 53.9209V53.7637C13.167 53.2305 13.2445 52.736 13.3994 52.2803C13.5544 51.82 13.7777 51.4212 14.0693 51.084C14.361 50.7422 14.7142 50.4779 15.1289 50.291C15.5436 50.0996 16.0085 50.0039 16.5234 50.0039C17.043 50.0039 17.5101 50.0996 17.9248 50.291C18.3441 50.4779 18.6995 50.7422 18.9912 51.084C19.2874 51.4212 19.513 51.82 19.668 52.2803C19.8229 52.736 19.9004 53.2305 19.9004 53.7637V53.9209C19.9004 54.4541 19.8229 54.9486 19.668 55.4043C19.513 55.86 19.2874 56.2588 18.9912 56.6006C18.6995 56.9378 18.3464 57.2021 17.9316 57.3936C17.5215 57.5804 17.0566 57.6738 16.5371 57.6738C16.0176 57.6738 15.5505 57.5804 15.1357 57.3936C14.721 57.2021 14.3656 56.9378 14.0693 56.6006C13.7777 56.2588 13.5544 55.86 13.3994 55.4043C13.2445 54.9486 13.167 54.4541 13.167 53.9209ZM14.4316 53.7637V53.9209C14.4316 54.29 14.4749 54.6387 14.5615 54.9668C14.6481 55.2904 14.778 55.5775 14.9512 55.8281C15.1289 56.0788 15.3499 56.277 15.6143 56.4229C15.8786 56.5641 16.1862 56.6348 16.5371 56.6348C16.8835 56.6348 17.1865 56.5641 17.4463 56.4229C17.7106 56.277 17.9294 56.0788 18.1025 55.8281C18.2757 55.5775 18.4056 55.2904 18.4922 54.9668C18.5833 54.6387 18.6289 54.29 18.6289 53.9209V53.7637C18.6289 53.3991 18.5833 53.055 18.4922 52.7314C18.4056 52.4033 18.2734 52.1139 18.0957 51.8633C17.9225 51.6081 17.7038 51.4076 17.4395 51.2617C17.1797 51.1159 16.8743 51.043 16.5234 51.043C16.1771 51.043 15.8717 51.1159 15.6074 51.2617C15.3477 51.4076 15.1289 51.6081 14.9512 51.8633C14.778 52.1139 14.6481 52.4033 14.5615 52.7314C14.4749 53.055 14.4316 53.3991 14.4316 53.7637ZM26.0117 55.8281V50.1406H27.2832V57.5371H26.0732L26.0117 55.8281ZM26.251 54.2695L26.7773 54.2559C26.7773 54.748 26.7249 55.2038 26.6201 55.623C26.5199 56.0378 26.3558 56.3978 26.1279 56.7031C25.9001 57.0085 25.6016 57.2477 25.2324 57.4209C24.8633 57.5895 24.4144 57.6738 23.8857 57.6738C23.5257 57.6738 23.1953 57.6214 22.8945 57.5166C22.5983 57.4118 22.3431 57.25 22.1289 57.0312C21.9147 56.8125 21.7484 56.5277 21.6299 56.1768C21.516 55.8258 21.459 55.4043 21.459 54.9121V50.1406H22.7236V54.9258C22.7236 55.2585 22.7601 55.5342 22.833 55.7529C22.9105 55.9671 23.013 56.138 23.1406 56.2656C23.2728 56.3887 23.4186 56.4753 23.5781 56.5254C23.7422 56.5755 23.9108 56.6006 24.084 56.6006C24.6217 56.6006 25.0479 56.498 25.3623 56.293C25.6768 56.0833 25.9023 55.8031 26.0391 55.4521C26.1803 55.0967 26.251 54.7025 26.251 54.2695ZM32.3076 50.1406V51.1113H28.3086V50.1406H32.3076ZM29.6621 48.3428H30.9268V55.7051C30.9268 55.9557 30.9655 56.1449 31.043 56.2725C31.1204 56.4001 31.2207 56.4844 31.3438 56.5254C31.4668 56.5664 31.599 56.5869 31.7402 56.5869C31.8451 56.5869 31.9544 56.5778 32.0684 56.5596C32.1868 56.5368 32.2757 56.5186 32.335 56.5049L32.3418 57.5371C32.2415 57.569 32.1094 57.5986 31.9453 57.626C31.7858 57.6579 31.5921 57.6738 31.3643 57.6738C31.0544 57.6738 30.7695 57.6123 30.5098 57.4893C30.25 57.3662 30.0426 57.1611 29.8877 56.874C29.7373 56.5824 29.6621 56.1904 29.6621 55.6982V48.3428ZM38.3164 55.8281V50.1406H39.5879V57.5371H38.3779L38.3164 55.8281ZM38.5557 54.2695L39.082 54.2559C39.082 54.748 39.0296 55.2038 38.9248 55.623C38.8245 56.0378 38.6605 56.3978 38.4326 56.7031C38.2048 57.0085 37.9062 57.2477 37.5371 57.4209C37.168 57.5895 36.7191 57.6738 36.1904 57.6738C35.8304 57.6738 35.5 57.6214 35.1992 57.5166C34.903 57.4118 34.6478 57.25 34.4336 57.0312C34.2194 56.8125 34.0531 56.5277 33.9346 56.1768C33.8206 55.8258 33.7637 55.4043 33.7637 54.9121V50.1406H35.0283V54.9258C35.0283 55.2585 35.0648 55.5342 35.1377 55.7529C35.2152 55.9671 35.3177 56.138 35.4453 56.2656C35.5775 56.3887 35.7233 56.4753 35.8828 56.5254C36.0469 56.5755 36.2155 56.6006 36.3887 56.6006C36.9264 56.6006 37.3525 56.498 37.667 56.293C37.9814 56.0833 38.207 55.8031 38.3438 55.4521C38.485 55.0967 38.5557 54.7025 38.5557 54.2695ZM41.5088 47.0371H42.7803V56.1016L42.6709 57.5371H41.5088V47.0371ZM47.7773 53.7773V53.9209C47.7773 54.4587 47.7135 54.9577 47.5859 55.418C47.4583 55.8737 47.2715 56.2702 47.0254 56.6074C46.7793 56.9447 46.4785 57.2067 46.123 57.3936C45.7676 57.5804 45.3597 57.6738 44.8994 57.6738C44.43 57.6738 44.0176 57.5941 43.6621 57.4346C43.3112 57.2705 43.015 57.0358 42.7734 56.7305C42.5319 56.4251 42.3382 56.056 42.1924 55.623C42.0511 55.1901 41.9531 54.7025 41.8984 54.1602V53.5312C41.9531 52.9844 42.0511 52.4945 42.1924 52.0615C42.3382 51.6286 42.5319 51.2594 42.7734 50.9541C43.015 50.6442 43.3112 50.4095 43.6621 50.25C44.013 50.0859 44.4209 50.0039 44.8857 50.0039C45.3506 50.0039 45.763 50.0951 46.123 50.2773C46.4831 50.4551 46.7839 50.7103 47.0254 51.043C47.2715 51.3757 47.4583 51.7744 47.5859 52.2393C47.7135 52.6995 47.7773 53.2122 47.7773 53.7773ZM46.5059 53.9209V53.7773C46.5059 53.4082 46.4717 53.0618 46.4033 52.7383C46.335 52.4102 46.2256 52.123 46.0752 51.877C45.9248 51.6263 45.7266 51.4303 45.4805 51.2891C45.2344 51.1432 44.9313 51.0703 44.5713 51.0703C44.2523 51.0703 43.9743 51.125 43.7373 51.2344C43.5049 51.3438 43.3066 51.4919 43.1426 51.6787C42.9785 51.861 42.8441 52.0706 42.7393 52.3076C42.639 52.54 42.5638 52.7816 42.5137 53.0322V54.6797C42.5866 54.9987 42.7051 55.3063 42.8691 55.6025C43.0378 55.8942 43.2611 56.1335 43.5391 56.3203C43.8216 56.5072 44.1702 56.6006 44.585 56.6006C44.9268 56.6006 45.2184 56.5322 45.46 56.3955C45.7061 56.2542 45.9043 56.0605 46.0547 55.8145C46.2096 55.5684 46.3236 55.2835 46.3965 54.96C46.4694 54.6364 46.5059 54.29 46.5059 53.9209ZM52.4463 57.6738C51.9313 57.6738 51.4642 57.5872 51.0449 57.4141C50.6302 57.2363 50.2725 56.988 49.9717 56.6689C49.6755 56.3499 49.4476 55.9717 49.2881 55.5342C49.1286 55.0967 49.0488 54.6182 49.0488 54.0986V53.8115C49.0488 53.21 49.1377 52.6745 49.3154 52.2051C49.4932 51.7311 49.7347 51.3301 50.04 51.002C50.3454 50.6738 50.6917 50.4255 51.0791 50.2568C51.4665 50.0882 51.8675 50.0039 52.2822 50.0039C52.8109 50.0039 53.2666 50.0951 53.6494 50.2773C54.0368 50.4596 54.3535 50.7148 54.5996 51.043C54.8457 51.3665 55.028 51.7493 55.1465 52.1914C55.265 52.6289 55.3242 53.1074 55.3242 53.627V54.1943H49.8008V53.1621H54.0596V53.0664C54.0413 52.7383 53.973 52.4193 53.8545 52.1094C53.7406 51.7995 53.5583 51.5443 53.3076 51.3438C53.057 51.1432 52.7152 51.043 52.2822 51.043C51.9951 51.043 51.7308 51.1045 51.4893 51.2275C51.2477 51.346 51.0404 51.5238 50.8672 51.7607C50.694 51.9977 50.5596 52.2871 50.4639 52.6289C50.3682 52.9707 50.3203 53.3649 50.3203 53.8115V54.0986C50.3203 54.4495 50.3682 54.7799 50.4639 55.0898C50.5641 55.3952 50.7077 55.6641 50.8945 55.8965C51.0859 56.1289 51.3161 56.3112 51.585 56.4434C51.8584 56.5755 52.1683 56.6416 52.5146 56.6416C52.9613 56.6416 53.3395 56.5505 53.6494 56.3682C53.9593 56.1859 54.2305 55.9421 54.4629 55.6367L55.2285 56.2451C55.069 56.4867 54.8662 56.7168 54.6201 56.9355C54.374 57.1543 54.071 57.332 53.7109 57.4688C53.3555 57.6055 52.9339 57.6738 52.4463 57.6738Z" fill="#111111"/>
<defs>
<clipPath id="clip0_1_19769">
<rect width="45.7143" height="32" fill="white" transform="translate(7.35205 0.537109)"/>
</clipPath>
</defs>
</svg>
