
<svg width="25" height="25" viewBox="0 0 25 25" fill="none" xmlns="http://www.w3.org/2000/svg">
<path d="M13.2954 2.96484H10.2954C9.74313 2.96484 9.29541 3.41256 9.29541 3.96484V4.96484C9.29541 5.51713 9.74313 5.96484 10.2954 5.96484H13.2954C13.8477 5.96484 14.2954 5.51713 14.2954 4.96484V3.96484C14.2954 3.41256 13.8477 2.96484 13.2954 2.96484Z" fill="black"/>
<path d="M17.7954 3.96484H15.2954V4.96484C15.2954 5.49528 15.0847 6.00398 14.7096 6.37906C14.3346 6.75413 13.8258 6.96484 13.2954 6.96484H10.2954C9.76498 6.96484 9.25627 6.75413 8.8812 6.37906C8.50612 6.00398 8.29541 5.49528 8.29541 4.96484V3.96484H5.79541C5.39759 3.96484 5.01605 4.12288 4.73475 4.40418C4.45345 4.68549 4.29541 5.06702 4.29541 5.46484V20.4648C4.29541 20.8627 4.45345 21.2442 4.73475 21.5255C5.01605 21.8068 5.39759 21.9648 5.79541 21.9648H13.2954C12.6342 21.0815 12.2838 20.0043 12.2987 18.9011C12.3136 17.7979 12.693 16.7305 13.3778 15.8654C14.0626 15.0003 15.0143 14.386 16.0847 14.1182C17.155 13.8504 18.2839 13.9441 19.2954 14.3848V5.46484C19.2954 5.06702 19.1374 4.68549 18.8561 4.40418C18.5748 4.12288 18.1932 3.96484 17.7954 3.96484ZM11.2954 17.9648H7.29541C7.1628 17.9648 7.03562 17.9122 6.94186 17.8184C6.84809 17.7246 6.79541 17.5975 6.79541 17.4648C6.79541 17.3322 6.84809 17.2051 6.94186 17.1113C7.03562 17.0175 7.1628 16.9648 7.29541 16.9648H11.2954C11.428 16.9648 11.5552 17.0175 11.649 17.1113C11.7427 17.2051 11.7954 17.3322 11.7954 17.4648C11.7954 17.5975 11.7427 17.7246 11.649 17.8184C11.5552 17.9122 11.428 17.9648 11.2954 17.9648ZM16.2954 13.9648H7.29541C7.1628 13.9648 7.03562 13.9122 6.94186 13.8184C6.84809 13.7246 6.79541 13.5975 6.79541 13.4648C6.79541 13.3322 6.84809 13.2051 6.94186 13.1113C7.03562 13.0175 7.1628 12.9648 7.29541 12.9648H16.2954C16.428 12.9648 16.5552 13.0175 16.649 13.1113C16.7427 13.2051 16.7954 13.3322 16.7954 13.4648C16.7954 13.5975 16.7427 13.7246 16.649 13.8184C16.5552 13.9122 16.428 13.9648 16.2954 13.9648ZM16.2954 9.96484H7.29541C7.1628 9.96484 7.03562 9.91217 6.94186 9.8184C6.84809 9.72463 6.79541 9.59745 6.79541 9.46484C6.79541 9.33224 6.84809 9.20506 6.94186 9.11129C7.03562 9.01752 7.1628 8.96484 7.29541 8.96484H16.2954C16.428 8.96484 16.5552 9.01752 16.649 9.11129C16.7427 9.20506 16.7954 9.33224 16.7954 9.46484C16.7954 9.59745 16.7427 9.72463 16.649 9.8184C16.5552 9.91217 16.428 9.96484 16.2954 9.96484Z" fill="black"/>
<path d="M17.2954 14.9648C16.5043 14.9648 15.7309 15.1994 15.0731 15.639C14.4153 16.0785 13.9026 16.7032 13.5999 17.4341C13.2971 18.165 13.2179 18.9693 13.3723 19.7452C13.5266 20.5211 13.9076 21.2339 14.467 21.7933C15.0264 22.3527 15.7391 22.7336 16.5151 22.888C17.291 23.0423 18.0952 22.9631 18.8261 22.6604C19.5571 22.3576 20.1818 21.8449 20.6213 21.1871C21.0608 20.5293 21.2954 19.756 21.2954 18.9648C21.2954 17.904 20.874 16.8866 20.1238 16.1364C19.3737 15.3863 18.3563 14.9648 17.2954 14.9648ZM18.7104 19.6698C18.7573 19.7163 18.7945 19.7716 18.8199 19.8326C18.8452 19.8935 18.8583 19.9588 18.8583 20.0248C18.8583 20.0908 18.8452 20.1562 18.8199 20.2171C18.7945 20.2781 18.7573 20.3334 18.7104 20.3798C18.6637 20.4262 18.6083 20.4628 18.5474 20.4877C18.4864 20.5126 18.4212 20.5252 18.3554 20.5248C18.2896 20.5252 18.2244 20.5126 18.1635 20.4877C18.1025 20.4628 18.0471 20.4262 18.0004 20.3798L17.2954 19.6698L16.5904 20.3798C16.5437 20.4262 16.4883 20.4628 16.4274 20.4877C16.3664 20.5126 16.3012 20.5252 16.2354 20.5248C16.1696 20.5252 16.1044 20.5126 16.0435 20.4877C15.9825 20.4628 15.9271 20.4262 15.8804 20.3798C15.8335 20.3334 15.7964 20.2781 15.771 20.2171C15.7456 20.1562 15.7325 20.0908 15.7325 20.0248C15.7325 19.9588 15.7456 19.8935 15.771 19.8326C15.7964 19.7716 15.8335 19.7163 15.8804 19.6698L16.5904 18.9648L15.8804 18.2598C15.7863 18.1657 15.7334 18.038 15.7334 17.9048C15.7334 17.7717 15.7863 17.644 15.8804 17.5498C15.9746 17.4557 16.1023 17.4028 16.2354 17.4028C16.3686 17.4028 16.4963 17.4557 16.5904 17.5498L17.2954 18.2598L18.0004 17.5498C18.0946 17.4557 18.2223 17.4028 18.3554 17.4028C18.4886 17.4028 18.6163 17.4557 18.7104 17.5498C18.8046 17.644 18.8575 17.7717 18.8575 17.9048C18.8575 18.038 18.8046 18.1657 18.7104 18.2598L18.0004 18.9648L18.7104 19.6698Z" fill="black"/>
</svg>

