<svg width="24" height="25" viewBox="0 0 24 25" fill="none" xmlns="http://www.w3.org/2000/svg">
<path d="M15.0767 0.607422V3.94553H18.4148L15.0767 0.607422Z" fill="black"/>
<path d="M13.355 17.673H7.81104C7.42272 17.673 7.10791 17.3582 7.10791 16.9699C7.10791 16.5815 7.42272 16.2667 7.81104 16.2667H13.2029C13.2141 15.6332 13.3303 15.025 13.5352 14.4587H7.81104C7.42272 14.4587 7.10791 14.1439 7.10791 13.7555C7.10791 13.3672 7.42272 13.0524 7.81104 13.0524H14.2851C15.3093 11.653 16.9635 10.7422 18.8267 10.7422V5.35156H14.3735C13.9852 5.35156 13.6704 5.03675 13.6704 4.64844V0.195312H1.24854C0.860223 0.195312 0.54541 0.510125 0.54541 0.898438V23.4922C0.54541 23.8805 0.860223 24.1953 1.24854 24.1953H18.1235C18.5118 24.1953 18.8267 23.8805 18.8267 23.4922V21.9922C16.1745 21.9922 13.9454 20.147 13.355 17.673ZM7.81104 3.40958H11.561C11.9493 3.40958 12.2642 3.72439 12.2642 4.1127C12.2642 4.50102 11.9493 4.81583 11.561 4.81583H7.81104C7.42272 4.81583 7.10791 4.50102 7.10791 4.1127C7.10791 3.72439 7.42272 3.40958 7.81104 3.40958ZM7.81104 6.62389H14.8423C15.2306 6.62389 15.5454 6.9387 15.5454 7.32702C15.5454 7.71533 15.2306 8.03014 14.8423 8.03014H7.81104C7.42272 8.03014 7.10791 7.71533 7.10791 7.32702C7.10791 6.9387 7.42272 6.62389 7.81104 6.62389ZM7.81104 9.83816H14.8423C15.2306 9.83816 15.5454 10.153 15.5454 10.5413C15.5454 10.9296 15.2306 11.2444 14.8423 11.2444H7.81104C7.42272 11.2444 7.10791 10.9296 7.10791 10.5413C7.10791 10.153 7.42272 9.83816 7.81104 9.83816ZM4.99854 20.8873H4.06104C3.67272 20.8873 3.35791 20.5725 3.35791 20.1842C3.35791 19.7959 3.67272 19.481 4.06104 19.481H4.99854C5.38685 19.481 5.70166 19.7959 5.70166 20.1842C5.70166 20.5725 5.38685 20.8873 4.99854 20.8873ZM4.99854 17.673H4.06104C3.67272 17.673 3.35791 17.3582 3.35791 16.9699C3.35791 16.5815 3.67272 16.2667 4.06104 16.2667H4.99854C5.38685 16.2667 5.70166 16.5815 5.70166 16.9699C5.70166 17.3582 5.38685 17.673 4.99854 17.673ZM4.99854 14.4587H4.06104C3.67272 14.4587 3.35791 14.1439 3.35791 13.7556C3.35791 13.3673 3.67272 13.0525 4.06104 13.0525H4.99854C5.38685 13.0525 5.70166 13.3673 5.70166 13.7556C5.70166 14.1439 5.38685 14.4587 4.99854 14.4587ZM4.99854 11.2444H4.06104C3.67272 11.2444 3.35791 10.9296 3.35791 10.5413C3.35791 10.153 3.67272 9.83816 4.06104 9.83816H4.99854C5.38685 9.83816 5.70166 10.153 5.70166 10.5413C5.70166 10.9296 5.38685 11.2444 4.99854 11.2444ZM4.99854 8.03014H4.06104C3.67272 8.03014 3.35791 7.71533 3.35791 7.32702C3.35791 6.9387 3.67272 6.62389 4.06104 6.62389H4.99854C5.38685 6.62389 5.70166 6.9387 5.70166 7.32702C5.70166 7.71533 5.38685 8.03014 4.99854 8.03014ZM4.99854 4.81583H4.06104C3.67272 4.81583 3.35791 4.50102 3.35791 4.1127C3.35791 3.72439 3.67272 3.40958 4.06104 3.40958H4.99854C5.38685 3.40958 5.70166 3.72439 5.70166 4.1127C5.70166 4.50102 5.38685 4.81583 4.99854 4.81583ZM11.0923 20.8873H7.81104C7.42272 20.8873 7.10791 20.5725 7.10791 20.1842C7.10791 19.7959 7.42272 19.481 7.81104 19.481H11.0923C11.4806 19.481 11.7954 19.7959 11.7954 20.1842C11.7954 20.5725 11.4806 20.8873 11.0923 20.8873Z" fill="black"/>
<path d="M18.8267 12.1484C16.4967 12.1484 14.6079 14.0372 14.6079 16.3672C14.6079 18.6972 16.4967 20.5859 18.8267 20.5859C21.1566 20.5859 23.0454 18.6972 23.0454 16.3672C23.0454 14.0372 21.1566 12.1484 18.8267 12.1484ZM20.8154 15.87L18.8267 17.8587C18.5521 18.1333 18.1069 18.1333 17.8323 17.8587L16.8379 16.8643C16.5633 16.5897 16.5633 16.1446 16.8379 15.87C17.1125 15.5954 17.5577 15.5954 17.8323 15.87L18.3295 16.3672L19.821 14.8757C20.0956 14.6011 20.5408 14.6011 20.8154 14.8757C21.09 15.1503 21.09 15.5954 20.8154 15.87Z" fill="black"/>
</svg>
