<svg width="22" height="24" viewBox="0 0 22 24" fill="none" xmlns="http://www.w3.org/2000/svg">
<path fill-rule="evenodd" clip-rule="evenodd" d="M2.26306 5.73759H5.18515V7.32431C5.18515 7.60087 5.40936 7.82508 5.68592 7.82508C5.96248 7.82508 6.18668 7.60087 6.18668 7.32431V5.73759H11.4314V7.32431C11.4314 7.60087 11.6556 7.82508 11.9322 7.82508C12.2088 7.82508 12.433 7.60087 12.433 7.32431V5.73759H15.355C15.5112 5.73723 15.6619 5.79542 15.7772 5.90069C15.8926 6.00597 15.9644 6.15066 15.9783 6.30623L16.4494 11.4313C16.2242 11.4079 15.9979 11.3961 15.7715 11.3961C12.193 11.3961 9.29211 14.297 9.29211 17.8755C9.29211 18.7556 9.46793 19.5945 9.78579 20.3596H1.6917C1.33447 20.3596 1.02692 20.2239 0.786168 19.9599C0.545371 19.696 0.438403 19.3774 0.471075 19.0216L1.63976 6.30623C1.65369 6.15066 1.72543 6.00597 1.84082 5.90069C1.95621 5.79542 2.10687 5.73723 2.26306 5.73759ZM5.18515 5.65514V3.86995C5.18515 2.87288 5.59268 1.96678 6.24926 1.3102C6.90584 0.653625 7.81193 0.246094 8.80901 0.246094C9.80609 0.246094 10.7122 0.653625 11.3688 1.3102C12.0253 1.96678 12.4329 2.87292 12.4329 3.86995V5.65514H11.4314V3.86995C11.4314 3.14934 11.1362 2.4938 10.6607 2.0183C10.1851 1.54275 9.52967 1.24758 8.80901 1.24758C8.0884 1.24758 7.4329 1.54275 6.95736 2.0183C6.48181 2.4938 6.18664 3.1493 6.18664 3.86995V5.65514H5.18515ZM15.7714 12.5211C12.8143 12.5211 10.4171 14.9183 10.4171 17.8755C10.4171 20.8326 12.8143 23.2298 15.7714 23.2298C18.7285 23.2298 21.1257 20.8326 21.1257 17.8755C21.1257 14.9183 18.7285 12.5211 15.7714 12.5211ZM13.1542 18.1924L14.7561 19.6636C14.9806 19.8701 15.328 19.8592 15.5391 19.6415L18.3975 16.9047C18.6207 16.6899 18.6276 16.3348 18.4129 16.1115C18.1981 15.8882 17.8429 15.8813 17.6196 16.0961L15.1285 18.4813L13.9144 17.3663C13.6863 17.1564 13.3311 17.1712 13.1212 17.3993C12.9113 17.6273 12.926 17.9825 13.1542 18.1924Z" fill="white"/>
</svg>
