<svg width="25" height="25" viewBox="0 0 25 25" fill="none" xmlns="http://www.w3.org/2000/svg">
<g clip-path="url(#clip0_446_7822)">
<path d="M24.6511 5.89473L18.7966 8.14389L12.9415 10.3925L7.08697 8.14389L1.23193 5.89473L12.9415 1.39648L24.6511 5.89473Z" stroke="#525252" stroke-width="1.40961" stroke-miterlimit="1.5"/>
<path d="M24.6511 10.3932L18.7966 12.6423L12.9415 14.891L7.08697 12.6423L1.23193 10.3932L7.08697 8.14453L12.9415 10.3932L18.7966 8.14453L24.6511 10.3932Z" stroke="#525252" stroke-width="1.40961" stroke-miterlimit="1.5"/>
<path d="M24.6511 14.8913L18.7966 17.1404L12.9415 19.3895L7.08697 17.1404L1.23193 14.8913L7.08697 12.6426L12.9415 14.8913L18.7966 12.6426L24.6511 14.8913Z" stroke="#525252" stroke-width="1.40961" stroke-miterlimit="1.5"/>
<path d="M24.6511 19.3878L12.9415 23.8856L1.23193 19.3878L7.08697 17.1387L12.9415 19.3878L18.7966 17.1387L24.6511 19.3878Z" stroke="#525252" stroke-width="1.40961" stroke-miterlimit="1.5"/>
</g>
<defs>
<clipPath id="clip0_446_7822">
<rect width="24" height="24" fill="white" transform="translate(0.941406 0.640625)"/>
</clipPath>
</defs>
</svg>
