<svg width="25" height="25" viewBox="0 0 25 25" fill="none" xmlns="http://www.w3.org/2000/svg">
<g clip-path="url(#clip0_1_13899)">
<path d="M20.061 0.833984V5.10983H24.3366L20.061 0.833984Z" fill="black"/>
<path d="M19.3579 6.51562C18.9696 6.51562 18.6548 6.20081 18.6548 5.8125V0.421875H8.57666C7.41355 0.421875 6.46729 1.36814 6.46729 2.53125V10.3917C6.69894 10.3707 6.93336 10.3594 7.17041 10.3594C9.56704 10.3594 11.7125 11.4551 13.1323 13.1719H20.7642C21.1525 13.1719 21.4673 13.4867 21.4673 13.875C21.4673 14.2633 21.1525 14.5781 20.7642 14.5781H14.0586C14.5078 15.4547 14.7842 16.4096 14.8725 17.3906H20.7642C21.1525 17.3906 21.4673 17.7054 21.4673 18.0938C21.4673 18.4821 21.1525 18.7969 20.7642 18.7969H14.8725C14.6622 21.119 13.4215 23.1481 11.6122 24.4219H22.6392C23.8023 24.4219 24.7485 23.4756 24.7485 22.3125V6.51562H19.3579ZM20.7642 10.3594H10.4517C10.0633 10.3594 9.74854 10.0446 9.74854 9.65625C9.74854 9.26794 10.0633 8.95312 10.4517 8.95312H20.7642C21.1525 8.95312 21.4673 9.26794 21.4673 9.65625C21.4673 10.0446 21.1525 10.3594 20.7642 10.3594Z" fill="black"/>
<path d="M7.17041 11.7656C3.68108 11.7656 0.842285 14.6044 0.842285 18.0938C0.842285 21.5831 3.68108 24.4219 7.17041 24.4219C10.6597 24.4219 13.4985 21.5831 13.4985 18.0938C13.4985 14.6044 10.6597 11.7656 7.17041 11.7656ZM9.04541 18.7969H7.17041C6.7821 18.7969 6.46729 18.4821 6.46729 18.0938V15.2812C6.46729 14.8929 6.7821 14.5781 7.17041 14.5781C7.55872 14.5781 7.87354 14.8929 7.87354 15.2812V17.3906H9.04541C9.43372 17.3906 9.74854 17.7054 9.74854 18.0938C9.74854 18.4821 9.43372 18.7969 9.04541 18.7969Z" fill="black"/>
</g>
<defs>
<clipPath id="clip0_1_13899">
<rect width="24" height="24" fill="white" transform="translate(0.79541 0.421875)"/>
</clipPath>
</defs>
</svg>
