<svg width="25" height="25" viewBox="0 0 25 25" fill="none" xmlns="http://www.w3.org/2000/svg">
<g clip-path="url(#clip0_446_7815)">
<path d="M18.4414 24.6403C18.3337 24.6403 18.2288 24.6055 18.1424 24.5413C17.8894 24.3523 11.9414 19.8713 11.9414 16.2703C11.9431 15.514 12.1807 14.7772 12.6211 14.1624C13.0614 13.5476 13.6826 13.0856 14.398 12.8405C15.1134 12.5955 15.8875 12.5798 16.6123 12.7956C17.3371 13.0114 17.9765 13.4479 18.4414 14.0443C18.9063 13.4479 19.5458 13.0114 20.2705 12.7956C20.9953 12.5798 21.7694 12.5955 22.4848 12.8405C23.2002 13.0856 23.8214 13.5476 24.2617 14.1624C24.7021 14.7772 24.9397 15.514 24.9414 16.2703C24.9414 19.8713 18.9934 24.3523 18.7404 24.5413C18.654 24.6055 18.5491 24.6403 18.4414 24.6403ZM15.5714 13.6403C14.1214 13.6403 12.9414 14.8203 12.9414 16.2703C12.9414 18.7003 16.6644 22.1193 18.4414 23.5103C20.2174 22.1183 23.9414 18.6973 23.9414 16.2703C23.9414 14.8203 22.7614 13.6403 21.3114 13.6403C20.7994 13.6394 20.2983 13.7883 19.8699 14.0687C19.4415 14.3491 19.1045 14.7487 18.9004 15.2183C18.7424 15.5833 18.1414 15.5833 17.9834 15.2183C17.7789 14.7488 17.4417 14.3493 17.0131 14.0689C16.5846 13.7886 16.0835 13.6396 15.5714 13.6403Z" fill="#525252"/>
<path d="M13.4414 24.6406H3.44141C2.77861 24.6398 2.14319 24.3762 1.67452 23.9075C1.20585 23.4388 0.9422 22.8034 0.941406 22.1406L0.941406 13.1406C0.941406 12.3136 1.61441 11.6406 2.44141 11.6406C2.57401 11.6406 2.70119 11.5879 2.79496 11.4942C2.88873 11.4004 2.94141 11.2732 2.94141 11.1406V9.14062C2.94141 9.00802 2.88873 8.88084 2.79496 8.78707C2.70119 8.6933 2.57401 8.64062 2.44141 8.64062C1.61441 8.64062 0.941406 7.96763 0.941406 7.14062V3.14062C0.941406 1.76262 2.06341 0.640625 3.44141 0.640625H13.6124C14.2794 0.640625 14.9074 0.900625 15.3804 1.37262L19.2094 5.20062C19.6814 5.67362 19.9414 6.30163 19.9414 6.96962V10.1406C19.9414 10.2732 19.8887 10.4004 19.795 10.4942C19.7012 10.5879 19.574 10.6406 19.4414 10.6406C19.3088 10.6406 19.1816 10.5879 19.0879 10.4942C18.9941 10.4004 18.9414 10.2732 18.9414 10.1406V6.96962C18.9414 6.56862 18.7854 6.19263 18.5024 5.90863L14.6734 2.08063C14.3916 1.79974 14.0103 1.64158 13.6124 1.64062H3.44141C2.61441 1.64062 1.94141 2.31362 1.94141 3.14062V7.14062C1.94141 7.27323 1.99408 7.40041 2.08785 7.49418C2.18162 7.58795 2.3088 7.64062 2.44141 7.64062C3.26841 7.64062 3.94141 8.31362 3.94141 9.14062V11.1406C3.94141 11.9676 3.26841 12.6406 2.44141 12.6406C2.3088 12.6406 2.18162 12.6933 2.08785 12.7871C1.99408 12.8808 1.94141 13.008 1.94141 13.1406V22.1406C1.94141 22.9676 2.61441 23.6406 3.44141 23.6406H13.4414C13.574 23.6406 13.7012 23.6933 13.795 23.7871C13.8887 23.8808 13.9414 24.008 13.9414 24.1406C13.9414 24.2732 13.8887 24.4004 13.795 24.4942C13.7012 24.5879 13.574 24.6406 13.4414 24.6406Z" fill="#525252"/>
<path d="M5.44141 5.64062C5.3088 5.64062 5.18162 5.58795 5.08785 5.49418C4.99408 5.40041 4.94141 5.27323 4.94141 5.14062V1.14062C4.94141 1.00802 4.99408 0.88084 5.08785 0.787072C5.18162 0.693303 5.3088 0.640625 5.44141 0.640625C5.57401 0.640625 5.70119 0.693303 5.79496 0.787072C5.88873 0.88084 5.94141 1.00802 5.94141 1.14062V5.14062C5.94141 5.27323 5.88873 5.40041 5.79496 5.49418C5.70119 5.58795 5.57401 5.64062 5.44141 5.64062ZM9.44141 5.64062C9.3088 5.64062 9.18162 5.58795 9.08785 5.49418C8.99408 5.40041 8.94141 5.27323 8.94141 5.14062V1.14062C8.94141 1.00802 8.99408 0.88084 9.08785 0.787072C9.18162 0.693303 9.3088 0.640625 9.44141 0.640625C9.57401 0.640625 9.70119 0.693303 9.79496 0.787072C9.88873 0.88084 9.94141 1.00802 9.94141 1.14062V5.14062C9.94141 5.27323 9.88873 5.40041 9.79496 5.49418C9.70119 5.58795 9.57401 5.64062 9.44141 5.64062ZM13.4414 5.64062C13.3088 5.64062 13.1816 5.58795 13.0879 5.49418C12.9941 5.40041 12.9414 5.27323 12.9414 5.14062V1.14062C12.9414 1.00802 12.9941 0.88084 13.0879 0.787072C13.1816 0.693303 13.3088 0.640625 13.4414 0.640625C13.574 0.640625 13.7012 0.693303 13.795 0.787072C13.8887 0.88084 13.9414 1.00802 13.9414 1.14062V5.14062C13.9414 5.27323 13.8887 5.40041 13.795 5.49418C13.7012 5.58795 13.574 5.64062 13.4414 5.64062ZM10.4414 21.6406H5.44141C4.61441 21.6406 3.94141 20.9676 3.94141 20.1406V15.1406C3.94141 14.3136 4.61441 13.6406 5.44141 13.6406H9.44141C9.57401 13.6406 9.70119 13.6933 9.79496 13.7871C9.88873 13.8808 9.94141 14.008 9.94141 14.1406C9.94141 14.2732 9.88873 14.4004 9.79496 14.4942C9.70119 14.5879 9.57401 14.6406 9.44141 14.6406H5.44141C5.3088 14.6406 5.18162 14.6933 5.08785 14.7871C4.99408 14.8808 4.94141 15.008 4.94141 15.1406V20.1406C4.94141 20.2732 4.99408 20.4004 5.08785 20.4942C5.18162 20.5879 5.3088 20.6406 5.44141 20.6406H10.4414C10.574 20.6406 10.7012 20.6933 10.795 20.7871C10.8887 20.8808 10.9414 21.008 10.9414 21.1406C10.9414 21.2732 10.8887 21.4004 10.795 21.4942C10.7012 21.5879 10.574 21.6406 10.4414 21.6406Z" fill="#525252"/>
</g>
<defs>
<clipPath id="clip0_446_7815">
<rect width="24" height="24" fill="white" transform="translate(0.941406 0.640625)"/>
</clipPath>
</defs>
</svg>
