<svg width="25" height="25" viewBox="0 0 25 25" fill="none" xmlns="http://www.w3.org/2000/svg">
<g clip-path="url(#clip0_446_7830)">
<path d="M17.9019 16.7841C16.752 16.7841 15.716 17.2807 14.9969 18.0706L8.52947 14.065C8.70703 13.6111 8.79806 13.128 8.79787 12.6406C8.7981 12.1532 8.70706 11.6701 8.52947 11.2162L14.9969 7.21042C15.716 8.00036 16.752 8.49714 17.9019 8.49714C20.068 8.49714 21.8302 6.73493 21.8302 4.56879C21.8302 2.40265 20.068 0.640625 17.9019 0.640625C15.7358 0.640625 13.9736 2.40284 13.9736 4.56898C13.9735 5.05634 14.0645 5.53942 14.242 5.99332L7.77469 9.99897C7.05563 9.20903 6.01965 8.71225 4.86976 8.71225C2.70362 8.71225 0.941406 10.4747 0.941406 12.6406C0.941406 14.8067 2.70362 16.569 4.86976 16.569C6.0196 16.569 7.05567 16.0724 7.77469 15.2822L14.242 19.2879C14.0645 19.7418 13.9735 20.225 13.9736 20.7124C13.9736 22.8784 15.7357 24.6406 17.9019 24.6406C20.068 24.6406 21.8302 22.8784 21.8302 20.7125C21.8302 18.5463 20.068 16.7841 17.9019 16.7841ZM15.406 4.56898C15.406 3.19273 16.5257 2.07308 17.9019 2.07308C19.2781 2.07308 20.3978 3.19273 20.3978 4.56898C20.3978 5.94522 19.2781 7.06488 17.9019 7.06488C16.5256 7.06488 15.406 5.94518 15.406 4.56898ZM4.86976 15.1365C3.49332 15.1365 2.37367 14.0168 2.37367 12.6406C2.37367 11.2644 3.49332 10.1447 4.86976 10.1447C6.246 10.1447 7.36547 11.2644 7.36547 12.6406C7.36547 14.0168 6.24596 15.1365 4.86976 15.1365ZM15.406 20.7123C15.406 19.336 16.5257 18.2163 17.9019 18.2163C19.2781 18.2163 20.3978 19.336 20.3978 20.7122C20.3978 22.0885 19.2781 23.2081 17.9019 23.2081C16.5256 23.2081 15.406 22.0885 15.406 20.7122V20.7123Z" fill="#525252"/>
</g>
<defs>
<clipPath id="clip0_446_7830">
<rect width="24" height="24" fill="white" transform="translate(0.941406 0.640625)"/>
</clipPath>
</defs>
</svg>
