<svg width="25" height="25" viewBox="0 0 25 25" fill="none" xmlns="http://www.w3.org/2000/svg">
<g clip-path="url(#clip0_1_22844)">
<path d="M22.9316 15.3875L20.2344 11.3411C20.1161 7.11363 16.6461 3.83238 12.5028 3.83008C8.53565 3.8282 5.5162 6.68697 4.89754 10.1285C4.60504 11.7586 4.81378 13.3935 5.50453 14.8567C6.90942 17.834 7.5892 20.6007 7.58367 23.2182L7.58095 24.2598C7.58095 24.4466 7.65375 24.6265 7.78556 24.7584C7.9178 24.8906 8.09709 24.9649 8.28407 24.965H15.3153C15.704 24.965 16.0184 24.6505 16.0184 24.2619V22.7813C18.6249 22.5726 19.9708 21.2569 20.0312 21.1965C20.0965 21.1313 20.1483 21.0538 20.1837 20.9685C20.219 20.8832 20.2372 20.7917 20.2372 20.6994V17.8869L19.5341 17.1838L20.2372 16.4807H22.3466C22.4738 16.4807 22.5986 16.4461 22.7077 16.3807C22.8168 16.3153 22.906 16.2214 22.9659 16.1092C23.0265 15.9972 23.0553 15.8707 23.0492 15.7436C23.0431 15.6164 23.0025 15.4933 22.9316 15.3875Z" fill="#FFD9B3"/>
<path d="M16.0186 24.2619V22.7813C18.625 22.5726 19.9709 21.2569 20.0313 21.1965C20.0966 21.1313 20.1484 21.0538 20.1838 20.9685C20.2191 20.8832 20.2373 20.7917 20.2373 20.6994V17.8869L19.5342 17.1838L20.2373 16.4807H22.3467C22.4739 16.4807 22.5987 16.4461 22.7078 16.3807C22.8169 16.3153 22.9062 16.2214 22.966 16.1092C23.0266 15.9972 23.0554 15.8707 23.0493 15.7436C23.0433 15.6164 23.0026 15.4933 22.9317 15.3875L20.2346 11.3411C20.1162 7.11363 16.6462 3.83237 12.5029 3.83008V24.965H15.3154C15.7041 24.965 16.0186 24.6505 16.0186 24.2619Z" fill="#FFBB99"/>
<path d="M15.3154 9.44922C15.3154 10.592 14.6329 11.612 13.5782 12.0489C13.3556 12.1408 13.2061 12.3888 13.2061 12.6648V12.9648C13.2061 13.3666 12.869 13.668 12.5029 13.668C12.1143 13.668 11.7998 13.3534 11.7998 12.9648V12.6648C11.7998 12.0386 12.0637 11.4662 12.5029 11.0837C12.6624 10.9436 12.8439 10.8307 13.0401 10.7495C13.5684 10.5316 13.9092 10.0206 13.9092 9.44922C13.9092 8.65984 13.2553 8.04297 12.5029 8.04297C11.7271 8.04297 11.0967 8.67391 11.0967 9.44922C11.0967 9.83781 10.7821 10.1523 10.3936 10.1523C10.005 10.1523 9.69043 9.83781 9.69043 9.44922C9.69043 7.89812 10.9523 6.63672 12.5029 6.63672C14.0428 6.63672 15.3154 7.89156 15.3154 9.44922Z" fill="#5F5166"/>
<path d="M12.5029 16.4805C12.8913 16.4805 13.2061 16.1657 13.2061 15.7773C13.2061 15.389 12.8913 15.0742 12.5029 15.0742C12.1146 15.0742 11.7998 15.389 11.7998 15.7773C11.7998 16.1657 12.1146 16.4805 12.5029 16.4805Z" fill="#5F5166"/>
<path d="M13.2061 15.7773C13.2061 15.3889 12.8912 15.0742 12.5029 15.0742V16.4805C12.8912 16.4805 13.2061 16.1657 13.2061 15.7773Z" fill="#45354D"/>
<path d="M2.6123 6.62022C2.22366 6.62022 1.90918 6.32223 1.90918 5.93359C1.90918 5.03134 2.32805 4.15708 3.02841 3.6407C3.21104 3.50683 3.31543 3.30011 3.31543 3.07422C3.31543 2.68628 2.99959 2.37109 2.6123 2.37109C2.22502 2.37109 1.90918 2.68628 1.90918 3.07422C1.90918 3.46286 1.5947 3.77734 1.20605 3.77734C0.817414 3.77734 0.50293 3.46286 0.50293 3.07422C0.50293 1.91106 1.44915 0.964844 2.6123 0.964844C3.77546 0.964844 4.72168 1.91106 4.72168 3.07422C4.72168 3.74163 4.40035 4.37678 3.86335 4.77297C3.52004 5.02567 3.31543 5.47628 3.31543 5.90064C3.31543 6.28928 3.00095 6.62022 2.6123 6.62022Z" fill="#5F5166"/>
<path d="M2.6123 9.44922C3.00063 9.44922 3.31543 9.13442 3.31543 8.74609C3.31543 8.35777 3.00063 8.04297 2.6123 8.04297C2.22398 8.04297 1.90918 8.35777 1.90918 8.74609C1.90918 9.13442 2.22398 9.44922 2.6123 9.44922Z" fill="#5F5166"/>
<path d="M22.3936 6.62022C22.0049 6.62022 21.6904 6.32223 21.6904 5.93359C21.6904 5.03134 22.1093 4.15708 22.8097 3.6407C22.9923 3.50683 23.0967 3.30011 23.0967 3.07422C23.0967 2.68628 22.7808 2.37109 22.3936 2.37109C22.0063 2.37109 21.6904 2.68628 21.6904 3.07422C21.6904 3.46286 21.3759 3.77734 20.9873 3.77734C20.5987 3.77734 20.2842 3.46286 20.2842 3.07422C20.2842 1.91106 21.2304 0.964844 22.3936 0.964844C23.5567 0.964844 24.5029 1.91106 24.5029 3.07422C24.5029 3.74163 24.1816 4.37678 23.6446 4.77297C23.3013 5.02567 23.0967 5.47628 23.0967 5.90064C23.0967 6.28928 22.7822 6.62022 22.3936 6.62022Z" fill="#45354D"/>
<path d="M22.3936 9.44922C22.7819 9.44922 23.0967 9.13442 23.0967 8.74609C23.0967 8.35777 22.7819 8.04297 22.3936 8.04297C22.0052 8.04297 21.6904 8.35777 21.6904 8.74609C21.6904 9.13442 22.0052 9.44922 22.3936 9.44922Z" fill="#45354D"/>
<path d="M18.1279 16.4805C16.9648 16.4805 16.0186 17.4267 16.0186 18.5898C16.0186 18.9785 16.333 19.293 16.7217 19.293C17.1103 19.293 17.4248 18.9785 17.4248 18.5898C17.4248 18.2019 17.7406 17.8867 18.1279 17.8867H20.2373V16.4805H18.1279Z" fill="#FF9680"/>
<path d="M15.3154 9.44922C15.3154 10.592 14.6329 11.612 13.5782 12.0489C13.3556 12.1408 13.2061 12.3888 13.2061 12.6648V12.9648C13.2061 13.3666 12.869 13.668 12.5029 13.668V11.0837C12.6624 10.9436 12.8439 10.8307 13.0401 10.7495C13.5684 10.5316 13.9092 10.0206 13.9092 9.44922C13.9092 8.65984 13.2553 8.04297 12.5029 8.04297V6.63672C14.0428 6.63672 15.3154 7.89156 15.3154 9.44922Z" fill="#45354D"/>
</g>
<defs>
<clipPath id="clip0_1_22844">
<rect width="24" height="24" fill="white" transform="translate(0.50293 0.964844)"/>
</clipPath>
</defs>
</svg>
