<svg width="71" height="49" viewBox="0 0 71 49" fill="none" xmlns="http://www.w3.org/2000/svg">
<rect x="0.5" y="0.191406" width="70" height="48" rx="4" fill="#EBF3FA"/>
<path d="M30.4482 32.358H26.4902L28.9658 17.0508H32.9236L30.4482 32.358Z" fill="#00579F"/>
<path d="M44.7947 17.4251C44.014 17.1154 42.7758 16.7734 41.2447 16.7734C37.3361 16.7734 34.5837 18.8577 34.5668 21.8376C34.5343 24.0362 36.5374 25.2573 38.0356 25.9904C39.5669 26.7394 40.0874 27.2284 40.0874 27.8961C40.0718 28.9215 38.85 29.3942 37.7105 29.3942C36.1303 29.3942 35.2836 29.1505 33.9969 28.58L33.4757 28.3354L32.9219 31.7716C33.8502 32.1945 35.5604 32.5698 37.3361 32.5862C41.489 32.5862 44.1928 30.5342 44.2248 27.3587C44.2406 25.6161 43.1829 24.2809 40.9025 23.1899C39.5182 22.4895 38.6704 22.0172 38.6704 21.3006C38.6866 20.6492 39.3875 19.9819 40.9501 19.9819C42.2368 19.9492 43.1822 20.2585 43.8984 20.568L44.2564 20.7305L44.7947 17.4251Z" fill="#00579F"/>
<path d="M50.0572 26.9352C50.3832 26.0558 51.6374 22.6524 51.6374 22.6524C51.621 22.685 51.9627 21.7567 52.1582 21.1869L52.4348 22.5058C52.4348 22.5058 53.1843 26.1699 53.347 26.9352C52.7285 26.9352 50.839 26.9352 50.0572 26.9352ZM54.9428 17.0508H51.8813C50.9372 17.0508 50.22 17.3274 49.8126 18.3208L43.9336 32.3578H48.0866C48.0866 32.3578 48.7703 30.4685 48.9172 30.0616C49.3728 30.0616 53.4128 30.0616 53.9989 30.0616C54.1126 30.599 54.4712 32.3578 54.4712 32.3578H58.1359L54.9428 17.0508Z" fill="#00579F"/>
<path d="M23.184 17.0508L19.3078 27.4888L18.8843 25.3719C18.1676 22.9292 15.9202 20.2752 13.4121 18.9556L16.9625 32.3417H21.148L27.3692 17.0508H23.184Z" fill="#00579F"/>
<path d="M15.7085 17.0508H9.34054L9.27539 17.3601C14.2428 18.6303 17.5326 21.6922 18.8843 25.3725L17.4999 18.3375C17.272 17.3599 16.5717 17.083 15.7085 17.0508Z" fill="#FAA61A"/>
</svg>
