<svg width="17" height="16" viewBox="0 0 17 16" fill="none" xmlns="http://www.w3.org/2000/svg">
<path d="M7.25841 0.908019L0.271782 13.0083C0.145579 13.2268 0.0791249 13.4747 0.0791016 13.7271C0.0790782 13.9794 0.145486 14.2273 0.271649 14.4459C0.397811 14.6644 0.579283 14.8459 0.797819 14.972C1.01635 15.0982 1.26425 15.1646 1.51659 15.1646H15.4887C15.7411 15.1646 15.989 15.0982 16.2075 14.972C16.426 14.8459 16.6075 14.6644 16.7337 14.4459C16.8598 14.2273 16.9262 13.9794 16.9262 13.7271C16.9262 13.4747 16.8597 13.2268 16.7335 13.0083L9.74766 0.908019C9.62152 0.689547 9.44009 0.508126 9.22161 0.381992C9.00313 0.255857 8.75531 0.189453 8.50303 0.189453C8.25076 0.189453 8.00293 0.255857 7.78445 0.381992C7.56597 0.508126 7.38455 0.689547 7.25841 0.908019Z" fill="#E50010"/>
<path d="M8.5943 4.64062H8.41205C7.96335 4.64062 7.59961 5.00437 7.59961 5.45306V9.33637C7.59961 9.78507 7.96335 10.1488 8.41205 10.1488H8.5943C9.04299 10.1488 9.40673 9.78507 9.40673 9.33637V5.45306C9.40673 5.00437 9.04299 4.64062 8.5943 4.64062Z" fill="#FFF7ED"/>
<path d="M8.50317 13.229C9.0022 13.229 9.40673 12.8245 9.40673 12.3254C9.40673 11.8264 9.0022 11.4219 8.50317 11.4219C8.00415 11.4219 7.59961 11.8264 7.59961 12.3254C7.59961 12.8245 8.00415 13.229 8.50317 13.229Z" fill="#FFF7ED"/>
</svg>
