

<svg width="25" height="25" viewBox="0 0 25 25" fill="none" xmlns="http://www.w3.org/2000/svg">
<path d="M13.1743 6.13807C14.2576 6.13807 15.6155 5.40571 16.4241 4.42923C17.1565 3.5443 17.6905 2.30845 17.6905 1.07259C17.6905 0.904759 17.6753 0.736927 17.6447 0.599609C16.4394 0.645382 14.9899 1.40826 14.1203 2.43051C13.4337 3.20864 12.8081 4.42923 12.8081 5.68035C12.8081 5.86344 12.8386 6.04653 12.8539 6.10756C12.9302 6.12281 13.0522 6.13807 13.1743 6.13807ZM9.35993 24.5996C10.8399 24.5996 11.496 23.6079 13.3421 23.6079C15.2188 23.6079 15.6308 24.5691 17.2786 24.5691C18.8959 24.5691 19.9791 23.0739 21.0014 21.6091C22.1457 19.9308 22.6187 18.283 22.6492 18.2067C22.5424 18.1762 19.4451 16.9098 19.4451 13.3549C19.4451 10.2728 21.8863 8.88441 22.0236 8.77761C20.4063 6.45848 17.9499 6.39745 17.2786 6.39745C15.4629 6.39745 13.9829 7.49599 13.0522 7.49599C12.0452 7.49599 10.7178 6.45848 9.14633 6.45848C6.15587 6.45848 3.11963 8.93019 3.11963 13.599C3.11963 16.4979 4.24868 19.5646 5.63711 21.5481C6.82719 23.2264 7.8647 24.5996 9.35993 24.5996Z" fill="white"/>
</svg>
