<svg width="26" height="25" viewBox="0 0 26 25" fill="none" xmlns="http://www.w3.org/2000/svg">
<path d="M24.6196 12.475C24.6196 5.80972 19.2437 0.400391 12.6196 0.400391C5.99553 0.400391 0.619629 5.80972 0.619629 12.475C0.619629 18.5061 5.00686 23.5051 10.7535 24.4004V15.9569H7.68863V12.475H10.7535V9.81386C10.7535 6.7921 12.5331 5.11334 15.2767 5.11334C16.5867 5.11334 17.9461 5.36205 17.9461 5.36205V8.3092H16.4384C14.943 8.3092 14.4734 9.25428 14.4734 10.1994V12.4626H17.8102L17.2787 15.9444H14.4734V24.388C20.2324 23.5051 24.6196 18.5061 24.6196 12.475Z" fill="white"/>
<path d="M17.2908 15.8647L17.8222 12.4062H14.4854V10.1581C14.4854 9.20698 14.9674 8.28057 16.4504 8.28057H17.9581V5.34079C17.9581 5.34079 16.5987 5.09375 15.2887 5.09375C12.5452 5.09375 10.7656 6.76127 10.7656 9.76282V12.4062H7.70068V15.8647H10.7656V24.2518C11.3711 24.3506 12.0014 24.4 12.6317 24.4C13.262 24.4 13.8922 24.3506 14.4978 24.2518V15.8647H17.2908Z" fill="#1877F2"/>
</svg>
