<svg width="25" height="25" viewBox="0 0 25 25" fill="none" xmlns="http://www.w3.org/2000/svg">
<path fill-rule="evenodd" clip-rule="evenodd" d="M24.1396 13.0737C24.1396 12.2228 24.0633 11.4046 23.9214 10.6191H12.6196V15.261H19.0778C18.7996 16.761 17.9542 18.0319 16.6833 18.8828V21.8937H20.5614C22.8305 19.8046 24.1396 16.7282 24.1396 13.0737Z" fill="#4285F4"/>
<path fill-rule="evenodd" clip-rule="evenodd" d="M12.6196 24.8001C15.8596 24.8001 18.576 23.7255 20.5615 21.8928L16.6833 18.8819C15.6087 19.6019 14.2342 20.0274 12.6196 20.0274C9.49418 20.0274 6.84872 17.9164 5.90509 15.0801H1.896V18.1892C3.87054 22.111 7.92872 24.8001 12.6196 24.8001Z" fill="#34A853"/>
<path fill-rule="evenodd" clip-rule="evenodd" d="M5.90508 15.0812C5.66508 14.3612 5.52872 13.5921 5.52872 12.8012C5.52872 12.0103 5.66508 11.2412 5.90508 10.5212V7.41211H1.89599C1.08327 9.03211 0.619629 10.8648 0.619629 12.8012C0.619629 14.7376 1.08327 16.5703 1.89599 18.1903L5.90508 15.0812Z" fill="#FBBC05"/>
<path fill-rule="evenodd" clip-rule="evenodd" d="M12.6196 5.57351C14.3815 5.57351 15.9633 6.17896 17.2069 7.36805L20.6487 3.92624C18.5705 1.98987 15.8542 0.800781 12.6196 0.800781C7.92872 0.800781 3.87054 3.48987 1.896 7.41169L5.90509 10.5208C6.84872 7.68442 9.49418 5.57351 12.6196 5.57351Z" fill="#EA4335"/>
</svg>
